<?xml version="1.0" encoding="UTF-8"?>
<svg version="1.1" viewBox="0 0 1600 1600" width="1280" height="1280" xmlns="http://www.w3.org/2000/svg">
<path transform="translate(1361,351)" d="m0 0c5.78-0.0741 11.6-0.129 17.4-0.165 1.97-0.0151 3.94-0.0356 5.9-0.0615 2.83-0.0363 5.65-0.0534 8.48-0.0667 1.32-0.0232 1.32-0.0232 2.67-0.0469 0.821-2.27e-4 1.64-4.53e-4 2.49-6.87e-4 0.722-0.00666 1.44-0.0133 2.19-0.0202 2.46 0.463 3.21 1.59 4.92 3.36 2.55 0.295 4.86 0.417 7.41 0.406 0.721 0.0108 1.44 0.0217 2.19 0.0328 2.3 0.0343 4.61 0.0499 6.91 0.0609 3.03 0.0146 6.06 0.0482 9.09 0.0938 0.697-0.00302 1.39-0.00604 2.11-0.00916 4.91 0.0762 4.91 0.0762 7.01 1.92 0.634 0.743 0.634 0.743 1.28 1.5 2.89 0.3 5.61 0.466 8.5 0.5 8.08 0.0944 8.08 0.0944 10 1.99 0.719 0.746 0.719 0.746 1.45 1.51 3.19 0.581 3.19 0.581 6.69 0.688 1.18 0.0657 2.36 0.131 3.57 0.199 0.904 0.0374 1.81 0.0748 2.74 0.113 0.33 0.99 0.66 1.98 1 3 0.771 0.0606 1.54 0.121 2.34 0.184 1.5 0.126 1.5 0.126 3.04 0.254 0.998 0.0812 2 0.162 3.02 0.246 2.6 0.316 2.6 0.316 4.6 1.32v2c0.928 0.103 1.86 0.206 2.81 0.312 3.19 0.688 3.19 0.688 4.61 2.2 2.04 1.92 3.25 1.88 6.02 1.99 3.82 0.302 5.66 0.905 8.56 3.5 1.65 0.712 3.31 1.39 5 2v2c0.99 0.33 1.98 0.66 3 1 0.65 0.712 0.65 0.712 1.31 1.44 2.3 2.13 4.73 2.64 7.69 3.56 0.99 0.66 1.98 1.32 3 2 0.784 0.268 1.57 0.536 2.38 0.812 2.63 1.19 2.63 1.19 5.06 3.69 2.79 2.72 4.84 3.55 8.56 4.5v2h2c1.71 1.62 3.37 3.3 5 5 1.35 1.33 1.35 1.33 2.72 2.68 8.42 8.34 8.42 8.34 11.3 11.9 1.94 2.61 1.94 2.61 5 4.44v3c0.589 0.11 1.18 0.219 1.79 0.332 5.87 1.77 10.8 7.81 14.2 12.7 0.247 1.55 0.247 1.55 0.5 3.12 0.24 3.1 0.24 3.1 3 5.19 1.24 0.835 1.24 0.835 2.5 1.69 1 1 1 1 1.06 4.06-0.0206 0.969-0.0412 1.94-0.0625 2.94 1.65 0.66 3.3 1.32 5 2v31c-1.32 0.66-2.64 1.32-4 2-2.39 2.03-2.98 2.93-4 6-0.99 0.33-1.98 0.66-3 1-0.33 0.99-0.66 1.98-1 3-1.33 0.333-2.67 0.667-4 1-0.33 0.99-0.66 1.98-1 3h-3c-0.0619 0.835-0.0619 0.835-0.125 1.69-1.11 2.93-2.95 4.2-5.38 6.07-1.83 1.52-3.08 3.33-4.49 5.24h-2v3c-1.32 0.33-2.64 0.66-4 1-0.103 0.639-0.206 1.28-0.312 1.94-0.227 0.681-0.454 1.36-0.688 2.06-0.99 0.33-1.98 0.66-3 1-0.66 0.99-1.32 1.98-2 3-2.33 0.694-4.66 1.36-7 2-0.33 0.66-0.66 1.32-1 2h-2c-0.33 1.32-0.66 2.64-1 4h-3c-0.33 0.99-0.66 1.98-1 3-0.949 0.0825-1.9 0.165-2.88 0.25-3.23 0.401-3.23 0.401-4.5 2.81-0.206 0.639-0.412 1.28-0.625 1.94h-3c-0.0825 0.619-0.165 1.24-0.25 1.88-0.75 2.12-0.75 2.12-2.75 3.25-0.66 0.289-1.32 0.578-2 0.875-0.33 0.66-0.66 1.32-1 2h-6c-0.33 1.32-0.66 2.64-1 4h-2c-0.412 0.66-0.825 1.32-1.25 2-1.75 2-1.75 2-4.94 2.25-0.928-0.0825-1.86-0.165-2.81-0.25v3c-2.97 0.33-5.94 0.66-9 1-0.33 1.32-0.66 2.64-1 4-3 3.89-5.28 4.28-10 5-0.66 0.99-1.32 1.98-2 3-3.12 0.188-3.12 0.188-6 0-0.33 0.99-0.66 1.98-1 3h-3c-0.144 0.639-0.289 1.28-0.438 1.94-0.562 2.06-0.562 2.06-1.56 3.06-2 0.0408-4 0.0425-6 0v3c-1.28 0.0825-2.56 0.165-3.88 0.25-2.18 0.209-2.18 0.209-4.12 0.75-1.59 1.92-1.59 1.92-2 4h-6v3c-0.619 0.0825-1.24 0.165-1.88 0.25-2.31 0.563-2.31 0.563-3.38 2.81-0.247 0.639-0.495 1.28-0.75 1.94h-6c-0.33 1.32-0.66 2.64-1 4-1.11 0.103-2.23 0.206-3.38 0.312-1.2 0.227-2.39 0.454-3.62 0.688-0.66 0.99-1.32 1.98-2 3-3.13 0.688-3.13 0.688-6 1-0.33 0.99-0.66 1.98-1 3-0.99 0.33-1.98 0.66-3 1-0.66 0.99-1.32 1.98-2 3-2.38 0.512-2.38 0.512-5.12 0.688-0.91 0.0657-1.82 0.131-2.76 0.199-0.699 0.0374-1.4 0.0748-2.12 0.113-0.33 0.99-0.66 1.98-1 3h-3c-0.66 1.32-1.32 2.64-2 4h-6c-0.33 0.99-0.66 1.98-1 3-2.31 0.33-4.62 0.66-7 1-0.33 1.32-0.66 2.64-1 4h-7v3c-2.64 0.33-5.28 0.66-8 1-0.33 1.32-0.66 2.64-1 4h-7v3c-1.11 0.0825-2.23 0.165-3.38 0.25-3.68 0.329-3.68 0.329-5.06 2.81-0.186 0.639-0.371 1.28-0.562 1.94h-7v3c-2.64 0.33-5.28 0.66-8 1-0.33 1.32-0.66 2.64-1 4h-7v3c-2.64 0.33-5.28 0.66-8 1-0.33 1.32-0.66 2.64-1 4h-7v3c-2.64 0.33-5.28 0.66-8 1-0.33 1.32-0.66 2.64-1 4h-7v3c-2.64 0.33-5.28 0.66-8 1-0.33 1.32-0.66 2.64-1 4h-7v3c-2.64 0.33-5.28 0.66-8 1-0.33 1.32-0.66 2.64-1 4h-7v3c-2.64 0.33-5.28 0.66-8 1-0.33 1.32-0.66 2.64-1 4h-7v3c-2.64 0.33-5.28 0.66-8 1-0.33 1.32-0.66 2.64-1 4h-7v3c-1.28 0.0825-2.56 0.165-3.88 0.25-2.17 0.0537-2.17 0.0537-4.12 0.75-0.464 0.99-0.464 0.99-0.938 2-0.526 0.99-0.526 0.99-1.06 2-2.38 0.609-2.38 0.609-5.12 0.75-0.91 0.0567-1.82 0.113-2.76 0.172-0.699 0.0258-1.4 0.0516-2.12 0.0781-0.33 0.99-0.66 1.98-1 3h-3c-0.33 1.32-0.66 2.64-1 4-3.63 0.33-7.26 0.66-11 1-0.33 0.99-0.66 1.98-1 3h-3c-0.66 1.32-1.32 2.64-2 4h-10c-0.33 1.32-0.66 2.64-1 4-1.11 0.103-2.23 0.206-3.38 0.312-1.2 0.227-2.39 0.454-3.62 0.688-0.66 0.99-1.32 1.98-2 3-2.33 0.694-4.66 1.36-7 2-0.33 0.66-0.66 1.32-1 2h-7c-0.33 1.32-0.66 2.64-1 4-0.699 0.0374-1.4 0.0748-2.12 0.113-0.91 0.0657-1.82 0.131-2.76 0.199-0.905 0.058-1.81 0.116-2.74 0.176-2.75 0.3-2.75 0.3-4.38 3.51h-2c-0.33 1.32-0.66 2.64-1 4h-3c-0.66 1.32-1.32 2.64-2 4h-2c-0.33 2.64-0.66 5.28-1 8h-4c0.33 2.31 0.66 4.62 1 7-0.66 0.392-1.32 0.784-2 1.19-2.29 1.67-2.29 1.67-2.25 4.5 0.124 1.14 0.124 1.14 0.25 2.31-1.32 0.66-2.64 1.32-4 2v6c-1.32 0.66-2.64 1.32-4 2v6c-1.98 0.495-1.98 0.495-4 1 0.0206 1.24 0.0412 2.48 0.0625 3.75 0.00517 2.91-0.132 5.46-1.06 8.25h-3c-0.33 2.64-0.66 5.28-1 8h-3c-0.186 1.7-0.186 1.7-0.375 3.44-0.206 1.18-0.412 2.35-0.625 3.56-0.66 0.33-1.32 0.66-2 1-0.685 1.89-0.685 1.89-1.12 4.06-0.168 0.733-0.335 1.47-0.508 2.22-0.121 0.566-0.242 1.13-0.367 1.71h-3c-0.33 2.64-0.66 5.28-1 8h-3c-0.33 2.64-0.66 5.28-1 8-0.99 0.33-1.98 0.66-3 1-0.0561 1.16-0.0561 1.16-0.113 2.34-0.0657 1-0.131 2.01-0.199 3.04-0.058 0.998-0.116 2-0.176 3.02-0.169 0.859-0.338 1.72-0.512 2.6l-3 2c-0.25 2.58-0.25 2.58 0 5-0.639 0.186-1.28 0.371-1.94 0.562-2.48 1.38-2.48 1.38-2.81 5.06-0.0825 1.11-0.165 2.23-0.25 3.38h-3v7l-4 2c0.124 1.39 0.124 1.39 0.25 2.81-0.0825 1.05-0.165 2.1-0.25 3.19-1.32 1.02-2.65 2.02-4 3-0.809 3.1-0.809 3.1-1 6h-3c-0.103 1.28-0.206 2.56-0.312 3.88-0.176 2.18-0.176 2.18-0.688 4.12l-3 2c-0.582 2.43-0.582 2.43-0.688 5.12-0.0657 0.91-0.131 1.82-0.199 2.76-0.0374 0.699-0.0748 1.4-0.113 2.12h-3c-0.33 2.64-0.66 5.28-1 8h-3c-0.33 2.64-0.66 5.28-1 8h-3c-0.124 1.13-0.247 2.27-0.375 3.44-0.309 1.76-0.309 1.76-0.625 3.56-0.66 0.33-1.32 0.66-2 1-0.685 1.89-0.685 1.89-1.12 4.06-0.168 0.733-0.335 1.47-0.508 2.22-0.121 0.566-0.242 1.13-0.367 1.71h-3c-0.0561 1.14-0.0561 1.14-0.113 2.3-0.0657 0.994-0.131 1.99-0.199 3.01-0.058 0.986-0.116 1.97-0.176 2.99-0.572 3.02-1.29 3.72-3.51 5.7-0.251 2.63-0.251 2.63 0 5l-4 2v6c-1.32 0.33-2.64 0.66-4 1v7l-4 2v6l-4 2v6c-1.32 0.33-2.64 0.66-4 1 0.0309 1.58 0.0309 1.58 0.0625 3.19-0.0515 3.14-0.328 5.78-1.06 8.81h-3c-0.33 2.64-0.66 5.28-1 8h-3c-0.155 1.92-0.155 1.92-0.312 3.88-0.176 2.18-0.176 2.18-0.688 4.12-0.99 0.66-1.98 1.32-3 2-0.733 3.07-0.733 3.07-1 6h-3c-0.155 1.92-0.155 1.92-0.312 3.88-0.176 2.18-0.176 2.18-0.688 4.12-0.99 0.66-1.98 1.32-3 2-0.733 3.07-0.733 3.07-1 6h-3c-0.33 3.96-0.66 7.92-1 12h-4v4h-3c0.0309 1.58 0.0309 1.58 0.0625 3.19-0.0515 3.14-0.328 5.78-1.06 8.81h-3v7c-0.639 0.186-1.28 0.371-1.94 0.562-2.48 1.38-2.48 1.38-2.81 5.06-0.0825 1.11-0.165 2.23-0.25 3.38h-3c0.0309 1.42 0.0309 1.42 0.0625 2.88-0.0625 3.12-0.0625 3.12-1.06 5.12-0.99 0.66-1.98 1.32-3 2-0.733 3.07-0.733 3.07-1 6-0.99 0.33-1.98 0.66-3 1 0.0309 1.61 0.0309 1.61 0.0625 3.25-0.0483 2.9-0.194 5.04-1.06 7.75h-3c-0.33 2.64-0.66 5.28-1 8h-3c-0.33 2.64-0.66 5.28-1 8h-3c0.0928 1.42 0.0928 1.42 0.188 2.88l-0.188 3.12c-0.99 0.66-1.98 1.32-3 2-0.79 1.95-0.79 1.95-1.19 4.12-0.268 1.28-0.536 2.56-0.812 3.88h-3c-0.0561 1.14-0.0561 1.14-0.113 2.3-0.0657 0.994-0.131 1.99-0.199 3.01-0.087 1.48-0.087 1.48-0.176 2.99-0.572 3.02-1.29 3.72-3.51 5.7-0.251 2.63-0.251 2.63 0 5-1.32 0.66-2.64 1.32-4 2v6c-1.32 0.33-2.64 0.66-4 1v7c-1.32 0.66-2.64 1.32-4 2v6c-1.32 0.66-2.64 1.32-4 2v6c-1.32 0.33-2.64 0.66-4 1 0.0309 1.86 0.0309 1.86 0.0625 3.75 0.00517 2.91-0.132 5.46-1.06 8.25h-3c-0.33 2.64-0.66 5.28-1 8h-3c-0.124 1.13-0.247 2.27-0.375 3.44-0.206 1.18-0.412 2.35-0.625 3.56-0.66 0.33-1.32 0.66-2 1-0.685 1.89-0.685 1.89-1.12 4.06-0.251 1.1-0.251 1.1-0.508 2.22-0.121 0.566-0.242 1.13-0.367 1.71h-3c-0.33 2.64-0.66 5.28-1 8h-3c-0.33 2.64-0.66 5.28-1 8h-3c-0.33 2.64-0.66 5.28-1 8h-3c-0.33 2.64-0.66 5.28-1 8h-3c-0.124 1.13-0.247 2.27-0.375 3.44-0.206 1.18-0.412 2.35-0.625 3.56-0.66 0.33-1.32 0.66-2 1-0.309 0.66-0.619 1.32-0.938 2-1.06 2-1.06 2-4.06 3-0.33 2.31-0.66 4.62-1 7-0.99 0.33-1.98 0.66-3 1-0.33 0.99-0.66 1.98-1 3h-3c0.0928 1.42 0.0928 1.42 0.188 2.88l-0.188 3.12c-0.99 0.66-1.98 1.32-3 2-0.33 0.66-0.66 1.32-1 2-1 2-1 2-4 4-0.25 2.58-0.25 2.58 0 5-0.959 0.155-0.959 0.155-1.94 0.312-0.681 0.227-1.36 0.454-2.06 0.688-0.33 0.99-0.66 1.98-1 3h-3c-0.124 0.639-0.247 1.28-0.375 1.94-0.206 0.681-0.412 1.36-0.625 2.06-0.66 0.33-1.32 0.66-2 1-0.33 0.99-0.66 1.98-1 3h-4v4c-1.32 0.33-2.64 0.66-4 1-0.33 1.32-0.66 2.64-1 4h-3v3c-1.32 0.33-2.64 0.66-4 1v3c-1.32 0.33-2.64 0.66-4 1-0.33 1.32-0.66 2.64-1 4h-3c-0.33 1.32-0.66 2.64-1 4h-3c-0.33 1.32-0.66 2.64-1 4h-8v4c-1.32 0.66-2.64 1.32-4 2v2h-7l-2 4h-6l-1 4h-7l-1 4h-11v3c-2.88 0.961-4.7 1.11-7.69 1.06-0.808-0.00902-1.62-0.018-2.45-0.0273l-1.86-0.0352-2 4c-1.14-0.124-1.14-0.124-2.31-0.25l-2.69 0.25c-0.474 0.66-0.949 1.32-1.44 2l-1.56 2c-3.19 0.25-3.19 0.25-6 0l-1 3c-4.02 0.227-8.04 0.428-12.1 0.625l-3.44 0.195c-6 0.28-10.9 0.314-16.5-1.82l-2.14-0.711c-2.84-1.13-4.59-1.89-6.29-4.48l-0.562-1.81h-2v-3l-1.69-0.75c-2.83-1.53-5.03-2.97-7.31-5.25-0.312-3.25-0.312-3.25 0-6-0.973-0.358-0.973-0.358-1.96-0.723-2.04-1.28-2.04-1.28-2.54-3.34l-0.0586-2.38c-0.0108-2.35-0.0108-2.35-0.438-4.56-0.497-0.421-0.993-0.843-1.5-1.28-2.15-2.47-1.84-4.25-1.79-7.48 0.0145-1.68 0.0145-1.68 0.0293-3.39l0.0762-3.54c0.0135-1.18 0.0271-2.36 0.041-3.57 0.0354-2.91 0.0848-5.83 0.146-8.74 1.32-0.66 2.64-1.32 4-2v-22c1.32-0.66 2.64-1.32 4-2v-18c1.32-0.66 2.64-1.32 4-2v-18c1.32-0.66 2.64-1.32 4-2v-18c1.32-0.66 2.64-1.32 4-2v-22c1.32-0.66 2.64-1.32 4-2v-18c1.32-0.66 2.64-1.32 4-2v-18c1.32-0.66 2.64-1.32 4-2v-18c1.32-0.66 2.64-1.32 4-2v-22c1.32-0.66 2.64-1.32 4-2v-18c1.32-0.66 2.64-1.32 4-2v-22c1.32-0.66 2.64-1.32 4-2v-18c1.32-0.66 2.64-1.32 4-2v-22c1.32-0.66 2.64-1.32 4-2v-18c1.32-0.66 2.64-1.32 4-2v-18l4-2v-18l4-2v-22l4-2v-18l4-2v-18l4-2c-0.949-3.35-1.9-6.69-3-10-2.02-0.733-2.02-0.733-4-1v3l-3.38 0.25c-3.68 0.329-3.68 0.329-5.06 2.81-0.186 0.639-0.371 1.28-0.562 1.94h-7l-1 3c-2.31 0.33-4.62 0.66-7 1l-1 3c-1.03 0.0387-1.03 0.0387-2.08 0.0781l-2.73 0.172-2.71 0.141c-3.15 0.773-3.65 2.05-5.48 4.61-3.69 0.25-3.69 0.25-7 0l-1 4c-1.42 0.155-1.42 0.155-2.88 0.312-3.42 0.373-3.42 0.373-5.12 3.69-2.35 0.441-2.35 0.441-5.06 0.562-2.65 0.0838-2.65 0.0838-4.94 0.438l-1 2c-2.32 0.407-4.66 0.744-7 1v3c-3.98 1.33-7.85 1.07-12 1l-2 4h-6l-1 4h-8l-1 4h-10v3c-2.71 1.35-5.01 1.07-8 1v3c-3.98 1.33-7.85 1.07-12 1l-1 4c-1.67 0.155-1.67 0.155-3.38 0.312-1.2 0.227-2.39 0.454-3.62 0.688l-2 3c-2.38 0.293-2.38 0.293-5.12 0.188l-2.76-0.082-2.12-0.105v3l-8 1v3c-0.843 0.11-1.69 0.219-2.55 0.332l-3.32 0.48-3.3 0.457c-3.13 0.477-3.13 0.477-4.82 3.73-3.13 0.188-3.13 0.188-6 0l-1 4h-11v3c-0.843 0.11-1.69 0.219-2.55 0.332l-3.32 0.48-3.3 0.457c-3.13 0.477-3.13 0.477-4.82 3.73-2.38 0.293-2.38 0.293-5.12 0.188l-2.76-0.082-2.12-0.105v3c-2.71 1.35-5.01 1.07-8 1l-1 4h-12l-1 4h-10c-0.33 1.32-0.66 2.64-1 4h-11c-0.66 1.32-1.32 2.64-2 4h-10v3c-5.28 0.33-10.6 0.66-16 1v3c-2.52 1.26-4.31 1.1-7.12 1.06-0.91-0.00902-1.82-0.018-2.76-0.0273-0.699-0.0116-1.4-0.0232-2.12-0.0352-0.33 1.32-0.66 2.64-1 4h-15c-0.33 1.32-0.66 2.64-1 4h-11v3c-5.28 0.33-10.6 0.66-16 1v3c-3.46 1.07-6.64 1.1-10.2 1.06l-3.27-0.0273c-1.23-0.0174-1.23-0.0174-2.48-0.0352v3c-5.28 0.33-10.6 0.66-16 1v3c-2.3 1.15-3.58 1.12-6.13 1.1-0.806-0.00322-1.61-0.00645-2.44-0.00977-0.842-0.00838-1.68-0.0168-2.55-0.0254-0.849-0.00451-1.7-0.00902-2.57-0.0137-2.1-0.0118-4.2-0.0297-6.3-0.0488-0.33 0.99-0.66 1.98-1 3-6.27 0.33-12.5 0.66-19 1v3c-7.92 0.33-15.8 0.66-24 1l-1 3c-10.4 1.02-20.6 1.11-31 1v3c-37.5 1.33-37.5 1.33-54 1-0.74-0.0126-1.48-0.0251-2.24-0.0381-8.62-0.193-8.62-0.193-11.8-0.962-1.36-2.05-1.36-2.05-2-4l-3.87 0.0703c-1.67 0.0188-3.34 0.037-5.01 0.0547-0.842 0.0168-1.68 0.0335-2.55 0.0508-1.21 0.00967-1.21 0.00967-2.44 0.0195-1.12 0.0157-1.12 0.0157-2.25 0.0317-1.88-0.227-1.88-0.227-3.88-2.23-2.32-0.41-4.66-0.731-7-1-6.78-0.778-6.78-0.778-9-3-2.1-0.604-2.1-0.604-4.44-1-3.28-0.605-4.69-1.09-7.56-3v-2c-0.99 0.33-1.98 0.66-3 1-0.99-0.66-1.98-1.32-3-2v-2c-1.03-0.0619-2.06-0.124-3.12-0.188-5.56-1.17-8.53-3.95-11.8-8.5-1.96-2.62-1.96-2.62-5.5-3.25-4.5-1.34-5.78-3.38-8.56-7.06l-2.31-1.56c-0.557-0.474-1.11-0.949-1.69-1.44 0.0206-0.804 0.0412-1.61 0.0625-2.44-0.0206-0.846-0.0412-1.69-0.0625-2.56-2.29-2.2-2.29-2.2-5-4-1.88-1.38-1.88-1.38-3-3 0.312-3.19 0.312-3.19 1-6-0.624-0.0709-1.25-0.142-1.89-0.215-2.11-0.785-2.11-0.785-3.16-2.85l-0.703-2.5c-0.242-0.826-0.485-1.65-0.734-2.5-0.255-0.957-0.255-0.957-0.516-1.93h-2v-2l-1.88-0.625c-2.97-1.92-3.16-4.05-4.12-7.38l-2-2c-0.195-2.38-0.195-2.38-0.125-5.12l0.0547-2.76 0.0703-2.12-1.97-0.82-2.03-1.18c-0.347-2-0.68-4-1-6-1.31-1.35-2.65-2.69-4-4-0.385-1.66-0.728-3.32-1-5l-2-1c-0.679-2-1.35-4-2-6l-2-2c-0.856-2.63-1.39-5.3-2-8h-2l-0.113-1.86c-0.0657-0.808-0.131-1.62-0.199-2.45l-0.176-2.43c-0.604-2.67-1.53-3.45-3.51-5.26-0.691-1.99-1.36-3.99-2-6l-2-2-1-3.56-1-3.44-2-1-0.438-2.94-0.562-3.06-3-2c-0.293-2.38-0.293-2.38-0.188-5.12l0.082-2.76c0.0348-0.699 0.0696-1.4 0.105-2.12-0.99-0.33-1.98-0.66-3-1-1.39-2.29-1.39-2.29-2.69-5.06l-1.32-2.79c-0.326-0.71-0.652-1.42-0.988-2.15h-1v-6c-0.99-0.33-1.98-0.66-3-1l1-6c-0.784-0.206-1.57-0.412-2.38-0.625-2.62-1.38-2.62-1.38-3.81-4.38-0.268-0.99-0.536-1.98-0.812-3l-2-2c-0.341-2.27-0.441-4.51-0.559-6.81-0.535-2.66-1.47-3.4-3.44-5.19-1.07-2.33-2.06-4.62-3-7-1.87-4.88-1.87-4.88-5-9-0.33-1.18-0.66-2.35-1-3.56-0.33-1.13-0.66-2.27-1-3.44-0.66-0.33-1.32-0.66-2-1-0.679-2-1.35-4-2-6-0.66-0.66-1.32-1.32-2-2-0.195-2.38-0.195-2.38-0.125-5.12 0.018-0.91 0.0361-1.82 0.0547-2.76 0.0232-0.699 0.0464-1.4 0.0703-2.12-0.99-0.33-1.98-0.66-3-1-1.96-2.98-2-4.26-2-8h-2c-2.17-2.17-2.6-3.38-3.5-6.25-0.254-0.798-0.508-1.6-0.77-2.42-0.241-0.77-0.482-1.54-0.73-2.33-0.392-1.18-0.784-2.35-1.19-3.56-0.268-0.804-0.536-1.61-0.812-2.44h-2c-0.121-0.782-0.242-1.56-0.367-2.37-0.168-1.01-0.335-2.02-0.508-3.07-0.162-1.01-0.325-2.02-0.492-3.06-0.209-0.826-0.418-1.65-0.633-2.5-0.66-0.33-1.32-0.66-2-1-0.144-0.784-0.289-1.57-0.438-2.38-0.312-2.65-0.312-2.65-2.06-4.06-2.16-2.25-2.04-4.55-2.5-7.56-0.66-0.33-1.32-0.66-2-1-2-2-2-2-2.12-5.12 0.0412-0.949 0.0825-1.9 0.125-2.88-0.99-0.33-1.98-0.66-3-1-0.049-0.71-0.098-1.42-0.148-2.15-0.0748-0.919-0.15-1.84-0.227-2.79-0.0696-0.917-0.139-1.83-0.211-2.78-0.205-1.13-0.205-1.13-0.414-2.29-0.66-0.33-1.32-0.66-2-1v-36h3c0.268-0.639 0.536-1.28 0.812-1.94 1.19-2.06 1.19-2.06 4.19-3.06v-2c0.66-0.33 1.32-0.66 2-1 0.433-1.64 0.433-1.64 0.875-3.31 1.15-3.78 2.06-5.29 5.12-7.69h2c0.33-1.32 0.66-2.64 1-4 0.619-0.0825 1.24-0.165 1.88-0.25 2.31-0.563 2.31-0.563 3.38-2.81 0.248-0.639 0.495-1.28 0.75-1.94h6l1-3c2.19-2.69 2.19-2.69 5-5 3.31-0.312 3.31-0.312 6 0 0.66-1.32 1.32-2.64 2-4h10c0.66-1.32 1.32-2.64 2-4h18c0.66-1.32 1.32-2.64 2-4 2.1-0.081 4.21-0.139 6.31-0.188 1.76-0.0522 1.76-0.0522 3.55-0.105 3.14 0.293 3.14 0.293 4.59 1.79 2.69 2.62 6.48 1.97 10 2.01 8.12 0.0949 8.12 0.0949 11.5 3.5 1.96 0.228 3.91 0.452 5.88 0.621 3.53 0.63 6.09 2.51 9.12 4.38 2.27 0.76 2.27 0.76 4 1v2c0.928 0.103 1.86 0.206 2.81 0.312 3.49 0.752 3.81 1.31 6.19 3.69 1.2 0.33 2.39 0.66 3.62 1 1.11 0.33 2.23 0.66 3.38 1l1 3c1.73 1.75 1.73 1.75 3.81 3.44 2.25 1.9 4.32 3.7 6.31 5.88 1.86 1.9 1.86 1.9 4.81 2.62 3.72 1.29 5.31 3.31 8.06 6.06 3.17 1.34 3.17 1.34 6 2v2c0.99 0.33 1.98 0.66 3 1l1.56 2.25c2.45 2.77 3.97 3.65 7.25 5.19 5.6 2.62 10.2 5.77 13.8 10.9 1.26 1.94 1.26 1.94 3.69 2 3.69 0.943 4.92 3.03 7.16 6 1.69 1.87 3.23 2.71 5.53 3.69v2l2.69 0.188c4.09 1 5.57 2.69 8.31 5.81 1.9 2.22 1.9 2.22 4.88 2.88 3.35 1.21 4.9 2.39 7.12 5.12v2c0.619 0.289 1.24 0.578 1.88 0.875 2.12 1.12 2.12 1.12 4.12 3.12 0.846 0.165 1.69 0.33 2.56 0.5 0.804 0.165 1.61 0.33 2.44 0.5 0.33 0.66 0.66 1.32 1 2 0.99 0.66 1.98 1.32 3 2 1.12 1.15 2.22 2.32 3.31 3.5 3.06 3.13 5.44 4.3 9.69 5.5 2.88 2 2.88 2 5 4v2c1.52 0.309 1.52 0.309 3.06 0.625 5.14 1.46 9.49 4.9 12.2 9.52 2.67 2.83 5.14 2.46 8.93 2.6 1.27 0.0567 2.54 0.113 3.86 0.172 0.976 0.0258 1.95 0.0516 2.96 0.0781 0.66-1.32 1.32-2.64 2-4h6c0.206-0.619 0.412-1.24 0.625-1.88 1.95-3.02 3.96-3.11 7.38-4.12 3.85-1.75 7.48-3.65 11-6 2.48-0.195 2.48-0.195 5.19-0.125 0.901 0.018 1.8 0.0361 2.73 0.0547l2.08 0.0703c0.33-1.32 0.66-2.64 1-4 0.928-0.103 1.86-0.206 2.81-0.312 3.42-0.737 3.9-1.3 6.19-3.69 1.67-0.333 3.33-0.667 5-1l1.5-1.5c2-2 3.77-1.95 6.5-2.5 0.45-0.501 0.9-1 1.36-1.52 2.18-1.97 3.43-1.79 6.32-1.67 0.808 0.0271 1.62 0.0541 2.45 0.082 0.922 0.0522 0.922 0.0522 1.86 0.105 0.33-0.99 0.66-1.98 1-3 1.11-0.0825 2.23-0.165 3.38-0.25 1.2-0.247 2.39-0.495 3.62-0.75 1.09-1.93 1.09-1.93 2-4 2.94-1.12 2.94-1.12 6-2 0.99-0.66 1.98-1.32 3-2 2.69-0.125 2.69-0.125 5 0 0.33-0.99 0.66-1.98 1-3 2.33-0.689 4.66-1.35 7-2 0.473-0.512 0.946-1.02 1.43-1.55 1.57-1.45 1.57-1.45 3.83-1.74 0.801 0.0348 1.6 0.0696 2.43 0.105 0.808 0.0271 1.62 0.0541 2.45 0.082 0.922 0.0522 0.922 0.0522 1.86 0.105 0.66-1.32 1.32-2.64 2-4h5v-2c0.922-0.273 0.922-0.273 1.86-0.551 0.808-0.251 1.62-0.503 2.45-0.762 0.801-0.244 1.6-0.487 2.43-0.738 2.38-1 3.48-2.13 5.26-3.95 2.69-0.188 2.69-0.188 5 0 0.33-0.99 0.66-1.98 1-3 2.85-1.42 5.66-1.33 8.81-1.52 2.62-0.57 3.39-1.56 5.19-3.48 2.69-0.188 2.69-0.188 5 0 0.33-0.99 0.66-1.98 1-3 1.99-0.704 3.99-1.37 6-2 0.33-0.66 0.66-1.32 1-2 1.64-0.464 1.64-0.464 3.31-0.938 3.6-0.758 3.6-0.758 5.56-2.69 3.43-2.22 7.15-1.6 11.1-1.38 0.66-1.32 1.32-2.64 2-4 2.31 0.33 4.62 0.66 7 1-0.33-0.99-0.66-1.98-1-3l1.64-0.551c0.715-0.251 1.43-0.503 2.17-0.762 0.708-0.244 1.42-0.487 2.14-0.738 2.2-1.02 3.37-2.23 5.04-3.95 1.67-0.333 3.33-0.667 5-1 0.743-0.773 0.743-0.773 1.5-1.56 1.5-1.44 1.5-1.44 4.19-1.62 1.14 0.0928 1.14 0.0928 2.31 0.188 0.342-0.973 0.342-0.973 0.691-1.96 1.31-2.04 1.31-2.04 3.59-2.54 0.878-0.0193 1.76-0.0387 2.66-0.0586 3.73 0.0111 3.73 0.0111 6.71-1.95 0.669-0.735 0.669-0.735 1.35-1.48 2.69-0.188 2.69-0.188 5 0 0.66-1.32 1.32-2.64 2-4h6l1-3c2.31-1.05 4.65-2.05 7-3 0.66-0.66 1.32-1.32 2-2 2.6-0.414 2.6-0.414 5.62-0.625 1-0.0748 2.01-0.15 3.04-0.227 0.771-0.049 1.54-0.098 2.34-0.148l1-3c0.928-0.103 1.86-0.206 2.81-0.312 3.42-0.737 3.9-1.3 6.19-3.69 1.67-0.333 3.33-0.667 5-1l1.5-1.5c2-2 3.77-1.95 6.5-2.5 0.45-0.501 0.9-1 1.36-1.52 2.18-1.97 3.43-1.79 6.32-1.67 0.808 0.0271 1.62 0.0541 2.45 0.082 0.922 0.0522 0.922 0.0522 1.86 0.105l1-3c1.11-0.0825 2.23-0.165 3.38-0.25 1.2-0.247 2.39-0.495 3.62-0.75 0.699-1.32 1.37-2.65 2-4 1.99-0.381 3.99-0.713 6-1 0.461-0.5 0.923-1 1.4-1.52 1.6-1.48 1.6-1.48 3.86-1.78 1.2 0.0522 1.2 0.0522 2.43 0.105 0.808 0.0271 1.62 0.0541 2.45 0.082 0.922 0.0522 0.922 0.0522 1.86 0.105 0.66-1.32 1.32-2.64 2-4 2.31 0.33 4.62 0.66 7 1l-1-3 1.64-0.551c0.715-0.251 1.43-0.503 2.17-0.762 0.708-0.244 1.42-0.487 2.14-0.738 2.2-1.02 3.37-2.23 5.04-3.95 1.67-0.333 3.33-0.667 5-1 0.743-0.773 0.743-0.773 1.5-1.56 1.5-1.44 1.5-1.44 4.19-1.62 1.14 0.0928 1.14 0.0928 2.31 0.188 0.342-0.973 0.342-0.973 0.691-1.96 1.31-2.04 1.31-2.04 3.59-2.54 0.878-0.0193 1.76-0.0387 2.66-0.0586 3.73 0.0111 3.73 0.0111 6.71-1.95 0.669-0.735 0.669-0.735 1.35-1.48 2.69-0.188 2.69-0.188 5 0 0.66-1.32 1.32-2.64 2-4h6c0.206-0.619 0.412-1.24 0.625-1.88 1.92-2.97 4.05-3.16 7.38-4.12 0.66-0.66 1.32-1.32 2-2 2.6-0.414 2.6-0.414 5.62-0.625 1-0.0748 2.01-0.15 3.04-0.227 0.771-0.049 1.54-0.098 2.34-0.148l1-3c0.928-0.103 1.86-0.206 2.81-0.312 3.42-0.737 3.9-1.3 6.19-3.69 1.67-0.333 3.33-0.667 5-1l1.5-1.5c2-2 3.77-1.95 6.5-2.5 0.45-0.501 0.9-1 1.36-1.52 2.18-1.97 3.43-1.79 6.32-1.67 1.21 0.0406 1.21 0.0406 2.45 0.082 0.615 0.0348 1.23 0.0696 1.86 0.105 0.33-0.99 0.66-1.98 1-3 1.11-0.0825 2.23-0.165 3.38-0.25 3.68-0.329 3.68-0.329 5.06-2.81 0.186-0.639 0.371-1.28 0.562-1.94h6c0.66-1.32 1.32-2.64 2-4h6c0.66-1.32 1.32-2.64 2-4h6c0.33-0.99 0.66-1.98 1-3 2.31-1.05 4.65-2.05 7-3 0.66-0.66 1.32-1.32 2-2 2.6-0.414 2.6-0.414 5.62-0.625 1-0.0748 2.01-0.15 3.04-0.227 0.771-0.049 1.54-0.098 2.34-0.148 0.33-0.99 0.66-1.98 1-3 0.928-0.103 1.86-0.206 2.81-0.312 3.42-0.737 3.9-1.3 6.19-3.69 1.67-0.333 3.33-0.667 5-1 0.743-0.773 0.743-0.773 1.5-1.56 1.5-1.44 1.5-1.44 4.19-1.62 0.763 0.0619 1.53 0.124 2.31 0.188 0.228-0.648 0.456-1.3 0.691-1.96 1.31-2.04 1.31-2.04 3.59-2.54 0.878-0.0193 1.76-0.0387 2.66-0.0586 3.73 0.0111 3.73 0.0111 6.71-1.95 0.446-0.49 0.892-0.98 1.35-1.48 2.69-0.188 2.69-0.188 5 0 0.66-1.32 1.32-2.64 2-4h6c0.206-0.619 0.412-1.24 0.625-1.88 1.92-2.97 4.05-3.16 7.38-4.12 0.66-0.66 1.32-1.32 2-2 2.6-0.414 2.6-0.414 5.62-0.625 1-0.0748 2.01-0.15 3.04-0.227 0.771-0.049 1.54-0.098 2.34-0.148 0.33-0.99 0.66-1.98 1-3 0.928-0.103 1.86-0.206 2.81-0.312 3.42-0.737 3.9-1.3 6.19-3.69 1.67-0.333 3.33-0.667 5-1 0.743-0.773 0.743-0.773 1.5-1.56 1.5-1.44 1.5-1.44 4.19-1.62 0.763 0.0619 1.53 0.124 2.31 0.188 0.66-1.32 1.32-2.64 2-4h10c0.33-0.99 0.66-1.98 1-3 1.11-0.0825 2.23-0.165 3.38-0.25 1.2-0.247 2.39-0.495 3.62-0.75 1.09-1.93 1.09-1.93 2-4 2.62-1 2.62-1 6-2 5.41-2.39 5.41-2.39 10-6 2.6-0.414 2.6-0.414 5.62-0.625 1-0.0748 2.01-0.15 3.04-0.227 0.771-0.049 1.54-0.098 2.34-0.148v-2c2.31-0.33 4.62-0.66 7-1 0.33-0.99 0.66-1.98 1-3h5c0.33-0.66 0.66-1.32 1-2v2h2c-0.33-1.32-0.66-2.64-1-4 1.28-0.0825 2.56-0.165 3.88-0.25 2.18-0.209 2.18-0.209 4.12-0.75 1.59-1.92 1.59-1.92 2-4h6c0.33-0.99 0.66-1.98 1-3 2.85-1.42 5.66-1.33 8.81-1.52 2.62-0.57 3.39-1.56 5.19-3.48 2.69-0.188 2.69-0.188 5 0 0.227-0.639 0.454-1.28 0.688-1.94 1.31-2.06 1.31-2.06 3.88-2.69 0.804-0.124 1.61-0.248 2.44-0.375 0.33-0.66 0.66-1.32 1-2 1.09-0.309 2.19-0.619 3.31-0.938 3.6-0.758 3.6-0.758 5.56-2.69 3.43-2.22 7.15-1.6 11.1-1.38 0.66-1.32 1.32-2.64 2-4 3.46 0.495 3.46 0.495 7 1-0.33-0.99-0.66-1.98-1-3 0.814-0.273 0.814-0.273 1.64-0.551 0.715-0.251 1.43-0.503 2.17-0.762 0.708-0.244 1.42-0.487 2.14-0.738 2.12-0.842 2.12-0.842 3.64-2.54 1.41-1.41 1.41-1.41 4.09-1.59 1.14 0.0928 1.14 0.0928 2.31 0.188 0.33-0.99 0.66-1.98 1-3 2.85-1.42 5.66-1.33 8.81-1.52 2.62-0.571 3.44-1.51 5.19-3.48 1.64-0.729 3.31-1.39 5-2 4.78-1.53 4.78-1.53 8-5 1.09-0.309 2.19-0.619 3.31-0.938 3.6-0.758 3.6-0.758 5.56-2.69 3.43-2.22 7.15-1.6 11.1-1.38 0.66-1.32 1.32-2.64 2-4 3.46 0.495 3.46 0.495 7 1-0.33-0.99-0.66-1.98-1-3 0.814-0.273 0.814-0.273 1.64-0.551 0.715-0.251 1.43-0.503 2.17-0.762 0.708-0.244 1.42-0.487 2.14-0.738 2.2-1.02 3.37-2.23 5.04-3.95 1.67-0.333 3.33-0.667 5-1 0.495-0.516 0.99-1.03 1.5-1.56 1.5-1.44 1.5-1.44 4.19-1.62 1.14 0.0928 1.14 0.0928 2.31 0.188 0.66-1.32 1.32-2.64 2-4h10c0.66-1.32 1.32-2.64 2-4h6c0.66-1.32 1.32-2.64 2-4 3.46 0.495 3.46 0.495 7 1-0.33-0.99-0.66-1.98-1-3 2-2 2-2 5.12-2.12 0.949 0.0412 1.9 0.0825 2.88 0.125 0.33-0.99 0.66-1.98 1-3 0.782-0.121 1.56-0.242 2.37-0.367 1.01-0.168 2.02-0.335 3.07-0.508 1.51-0.244 1.51-0.244 3.06-0.492 0.826-0.209 1.65-0.418 2.5-0.633 0.33-0.66 0.66-1.32 1-2 1.13-0.124 2.27-0.248 3.44-0.375 1.18-0.206 2.35-0.413 3.56-0.625 1.51-1.94 1.51-1.94 2-4h6c0.66-1.32 1.32-2.64 2-4h10c0.66-1.32 1.32-2.64 2-4h6c0.206-0.619 0.412-1.24 0.625-1.88 1.94-3 4.01-3.18 7.38-4.12 0.619-0.371 1.24-0.743 1.88-1.12 3.35-1.38 6.52-0.995 10.1-0.875 0.66-1.32 1.32-2.64 2-4h10c0.66-1.32 1.32-2.64 2-4h10c0.66-1.32 1.32-2.64 2-4h14c0.66-1.32 1.32-2.64 2-4h14c0.66-1.32 1.32-2.64 2-4h18c0.66-1.32 1.32-2.64 2-4h42c0.66-1.32 1.32-2.64 2-4zm-134 31 1 2zm-136 60 1 2zm-8 4 1 2zm-8 4 1 2zm-56 24 1 2zm-8 4 1 2zm-80 36 1 2zm-799 165 4 1zm-113 11 1 2zm-4 4 1 2zm468 20 1 2zm-8 4 1 2zm-44 20c-0.33 0.66-0.66 1.32-1 2h2c-0.33-0.66-0.66-1.32-1-2zm-211 5 4 1zm175 11 1 2zm-388 6v5h1v-5h-1zm4 8 1 2zm8 16 1 2zm304 2 1 2zm-292 26 1 3zm20 44 1 2zm20 44 1 4zm32 72 1 4z" fill="#FBFCFE"/>
<path transform="translate(409,415)" d="m0 0c8.94-0.0695 17.9-0.123 26.8-0.155 4.15-0.0157 8.31-0.0369 12.5-0.0709 4.01-0.0326 8.01-0.0505 12-0.0583 1.53-0.00555 3.06-0.0164 4.59-0.0326 2.14-0.0217 4.28-0.0248 6.42-0.0234 1.22-0.00666 2.44-0.0133 3.69-0.0202 3.27 0.396 3.97 0.885 5.98 3.36 2.27 0.454 2.27 0.454 4.78 0.406 1.39 0.0329 1.39 0.0329 2.8 0.0664 0.963 0.00902 1.93 0.018 2.92 0.0273 1.91 0.0179 3.81 0.0486 5.72 0.0938 0.845 0.00709 1.69 0.0142 2.56 0.0215 2.71 0.469 3.36 1.45 5.22 3.38 2.89 0.3 5.61 0.466 8.5 0.5 8.08 0.0944 8.08 0.0944 10.1 2 0.478 0.496 0.957 0.991 1.45 1.5 3.16 0.506 3.16 0.506 6.62 0.562 2.13 0.0775 4.26 0.207 6.38 0.438 0.33 0.66 0.66 1.32 1 2 2.76 0.608 5.53 0.959 8.34 1.34 2.94 0.73 3.62 1.56 5.66 3.66 2.18 0.464 2.18 0.464 4.5 0.5 3.84 0.154 4.84 0.845 7.5 3.5 2.18 0.464 2.18 0.464 4.5 0.5 3.84 0.154 4.84 0.845 7.5 3.5 2.18 0.464 2.18 0.464 4.5 0.5 3.84 0.154 4.84 0.845 7.5 3.5 2.18 0.464 2.18 0.464 4.5 0.5 2.34 0.0938 2.34 0.0938 4.5 0.5 0.454 0.495 0.908 0.99 1.38 1.5 2.49 2.3 4.81 1.91 8.12 2 6.14 0.166 6.14 0.166 8.12 2 0.454 0.495 0.908 0.99 1.38 1.5 2.18 0.464 2.18 0.464 4.5 0.5 3.84 0.154 4.84 0.845 7.5 3.5 2.18 0.464 2.18 0.464 4.5 0.5 3.84 0.154 4.84 0.845 7.5 3.5 2.18 0.464 2.18 0.464 4.5 0.5 2.34 0.0938 2.34 0.0938 4.5 0.5 0.452 0.492 0.905 0.985 1.37 1.49 2.5 2.31 4.86 1.99 8.19 2.13 6.28 0.294 6.28 0.294 8.44 1.38v2c0.687 0.0374 1.37 0.0748 2.08 0.113 0.901 0.0657 1.8 0.131 2.73 0.199 1.34 0.087 1.34 0.087 2.71 0.176 2.87 0.593 3.49 1.48 5.48 3.51 2.18 0.464 2.18 0.464 4.5 0.5 3.84 0.154 4.84 0.845 7.5 3.5 2.18 0.464 2.18 0.464 4.5 0.5 2.34 0.0938 2.34 0.0938 4.5 0.5 0.681 0.742 0.681 0.742 1.38 1.5 2.49 2.3 4.81 1.91 8.12 2 6.14 0.166 6.14 0.166 8.12 2 0.681 0.742 0.681 0.742 1.38 1.5 2.18 0.464 2.18 0.464 4.5 0.5 2.34 0.0938 2.34 0.0938 4.5 0.5 0.681 0.742 0.681 0.742 1.38 1.5 2.49 2.3 4.81 1.91 8.12 2 6.14 0.166 6.14 0.166 8.12 2 0.681 0.742 0.681 0.742 1.38 1.5 2.18 0.464 2.18 0.464 4.5 0.5 2.34 0.0938 2.34 0.0938 4.5 0.5 0.416 0.498 0.833 0.995 1.26 1.51 3.22 2.77 8.21 1.89 12.3 1.84 4.03 0.0849 6.71 0.439 9.97 2.94 2.46 2.71 2.46 2.71 2.46 6.71-2.02 0.163-4.04 0.326-6.05 0.488-2.34 0.386-2.34 0.386-3.95 3.51-3.12 0.188-3.12 0.188-6 0-0.33 1.32-0.66 2.64-1 4h-7c-0.33 1.32-0.66 2.64-1 4-1.11 0.103-2.23 0.206-3.38 0.312-1.2 0.227-2.39 0.454-3.62 0.688-0.66 0.99-1.32 1.98-2 3-3.12 0.188-3.12 0.188-6 0-0.33 1.32-0.66 2.64-1 4-0.782 0.049-1.56 0.098-2.37 0.148-1.52 0.112-1.52 0.112-3.07 0.227-1.51 0.104-1.51 0.104-3.06 0.211-1.24 0.205-1.24 0.205-2.5 0.414-0.33 0.66-0.66 1.32-1 2-2.32 0.407-4.66 0.744-7 1v3c-1.11 0.0825-2.23 0.165-3.38 0.25-3.68 0.329-3.68 0.329-5.06 2.81-0.186 0.639-0.371 1.28-0.562 1.94h-7v3c-2.71 1.35-5.01 1.07-8 1-0.66 1.32-1.32 2.64-2 4h-10c-0.33 1.32-0.66 2.64-1 4-1.11 0.103-2.23 0.206-3.38 0.312-1.79 0.34-1.79 0.34-3.62 0.688-0.66 0.99-1.32 1.98-2 3-2 0.333-4 0.667-6 1-0.66 0.99-1.32 1.98-2 3-3.63 0.188-3.63 0.188-7 0-0.33 1.32-0.66 2.64-1 4h-6c-0.33 1.32-0.66 2.64-1 4h-8c-0.33 1.32-0.66 2.64-1 4-1.05 0.0561-1.05 0.0561-2.12 0.113-0.91 0.0657-1.82 0.131-2.76 0.199-1.36 0.087-1.36 0.087-2.74 0.176-2.75 0.3-2.75 0.3-4.38 3.51-2 0.333-4 0.667-6 1-0.66 0.99-1.32 1.98-2 3-3.12 0.188-3.12 0.188-6 0v3c-2.64 0.33-5.28 0.66-8 1v3c-2.52 1.26-4.31 1.1-7.12 1.06-0.91-0.00902-1.82-0.018-2.76-0.0273-0.699-0.0116-1.4-0.0232-2.12-0.0352-0.33 1.32-0.66 2.64-1 4-1.11 0.103-2.23 0.206-3.38 0.312-1.79 0.34-1.79 0.34-3.62 0.688-0.66 0.99-1.32 1.98-2 3-2 0.333-4 0.667-6 1-0.66 0.99-1.32 1.98-2 3-2 0.333-4 0.667-6 1-0.66 0.99-1.32 1.98-2 3-3.12 0.188-3.12 0.188-6 0v3c-2.88 0.961-4.7 1.11-7.69 1.06-0.808-0.00902-1.62-0.018-2.45-0.0273-0.922-0.0174-0.922-0.0174-1.86-0.0352-0.66 1.32-1.32 2.64-2 4h-6v3c-2.64 0.33-5.28 0.66-8 1-0.33 0.99-0.66 1.98-1 3-5.44 0.99-5.44 0.99-11 2-0.33 0.99-0.66 1.98-1 3-1.13 0.124-2.27 0.247-3.44 0.375-1.18 0.206-2.35 0.413-3.56 0.625-0.33 0.66-0.66 1.32-1 2-1.42 0.217-1.42 0.217-2.88 0.438-3.31 0.595-4.1 1.03-6.12 3.56-0.66 0.66-1.32 1.32-2 2v2c-3.31 0.688-3.31 0.688-7 1-1.5-1.25-1.5-1.25-3-3-1.11-0.454-2.23-0.908-3.38-1.38-3.84-1.72-5.69-3.69-8.62-6.62-0.99-0.309-1.98-0.619-3-0.938-3-1.06-3-1.06-5.44-4.06-3.04-3.56-5.09-3.99-9.56-5-0.66-0.66-1.32-1.32-2-2-0.99-0.289-1.98-0.578-3-0.875-3-1.12-3-1.12-4.38-3.25-0.206-0.619-0.413-1.24-0.625-1.88h-2c-0.433-0.454-0.866-0.908-1.31-1.38-2.04-1.97-4.03-2.69-6.69-3.62v-2c-1.36-0.186-1.36-0.186-2.75-0.375-2.84-0.546-4.78-1.2-7.25-2.62v-2c-1.39-0.186-1.39-0.186-2.81-0.375-3.19-0.625-3.19-0.625-6.19-2.62v-2c-0.626-0.193-1.25-0.387-1.9-0.586-0.817-0.26-1.63-0.521-2.48-0.789-0.812-0.255-1.62-0.51-2.46-0.773-2.16-0.852-2.16-0.852-4.16-2.85-1.58-0.619-1.58-0.619-3.19-1.25-3.71-1.5-6.27-3.69-9.14-6.45-1.89-1.47-3.37-1.77-5.68-2.3-1.29-1.29-2.55-2.62-3.75-4-2.62-2.33-4.92-2.99-8.25-4-0.66-0.66-1.32-1.32-2-2-1.49-0.433-1.49-0.433-3-0.875-3-1.12-3-1.12-4.38-3.25-0.309-0.928-0.309-0.928-0.625-1.88h-2c-0.66-0.66-1.32-1.32-2-2-2.33-1.02-4.66-2.01-7-3-0.99-0.66-1.98-1.32-3-2-0.928-0.155-0.928-0.155-1.88-0.312-2.12-0.688-2.12-0.688-4.31-3-3.56-3.4-7.28-4.92-11.8-6.69v-2c-1.07 0.164-1.07 0.164-2.16 0.332-3.99-0.467-5.68-2.78-8.21-5.64-2.84-3.2-5.38-5.78-9.41-7.36-1.06-0.44-2.12-0.879-3.21-1.33-0.33-0.99-0.66-1.98-1-3-1.32-0.702-2.65-1.37-4-2-2.89-2.04-3.01-3.07-3.69-6.69-0.103-1.09-0.206-2.19-0.312-3.31-0.598-0.0825-1.2-0.165-1.81-0.25-2.92-1-3.73-2.05-5.19-4.75-0.188-3.25-0.188-3.25 0-6-0.99-0.33-1.98-0.66-3-1-1-1-1-1-1.11-3.41 0.00524-1.04 0.0105-2.08 0.0159-3.16 0.00322-1.12 0.00645-2.25 0.00977-3.41 0.00838-1.18 0.0168-2.37 0.0254-3.59 0.00451-1.19 0.00902-2.38 0.0137-3.6 0.0118-2.95 0.0283-5.89 0.0488-8.84 0.975-0.387 0.975-0.387 1.97-0.781 0.67-0.402 1.34-0.804 2.03-1.22 0.165-1.15 0.33-2.31 0.5-3.5 0.165-1.15 0.33-2.31 0.5-3.5 2.06-1.44 2.06-1.44 4-2v-2h3v-4c2.06-2.69 2.06-2.69 5-5 1.7-0.186 1.7-0.186 3.44-0.375 4.02-0.706 4.18-1.04 6.44-4.12 2.54-3.35 2.54-3.35 5.32-4.08 1.56-0.114 3.13-0.197 4.69-0.25 2.91-0.237 4.73-1.54 7.11-3.17 1.33-0.333 2.67-0.667 4-1 0.33-0.66 0.66-1.32 1-2 1.98-0.727 3.98-1.4 6-2v2h2c-0.495-1.98-0.495-1.98-1-4 1.26-0.268 2.52-0.536 3.81-0.812 3.36-0.82 4.8-1.69 7.19-4.19 2.69-0.188 2.69-0.188 5 0 0.66-1.32 1.32-2.64 2-4h14c0.66-1.32 1.32-2.64 2-4h14c0.66-1.32 1.32-2.64 2-4zm-66 27 1 2zm-24 11 1 3zm463 52 1 2z" fill="#FBFCFE"/>
<path transform="translate(440,599)" d="m0 0 2 1z" fill="#000002"/>
<path transform="translate(432,595)" d="m0 0 2 1z" fill="#000002"/>
<path transform="translate(1574,515)" d="m0 0 2 1z" fill="#000100"/>
</svg>
