<?xml version="1.0" encoding="UTF-8"?>
<svg version="1.1" viewBox="0 0 1600 1600" width="1280" height="1280" xmlns="http://www.w3.org/2000/svg">
<path transform="translate(229,259)" d="m0 0c42.9-0.0686 85.8-0.121 129-0.153 5.06-0.00375 10.1-0.00764 15.2-0.0116 1.01-7.87e-4 2.01-0.00157 3.05-0.00238 16.3-0.0131 32.7-0.0367 49-0.0643 16.7-0.028 33.5-0.0447 50.2-0.0508 10.3-0.00413 20.7-0.0172 31-0.0415 7.08-0.0158 14.2-0.0207 21.2-0.0168 4.09 0.00193 8.18-0.00112 12.3-0.0171 3.74-0.0145 7.48-0.0154 11.2-0.00508 2 0.00188 4.01-0.0111 6.01-0.0245 1.77 0.00896 1.77 0.00896 3.57 0.0181 1.02-0.00114 2.05-0.00228 3.1-0.00345 0.795 0.123 1.59 0.246 2.41 0.373 0.66 0.99 1.32 1.98 2 3 3.57 0.736 3.57 0.736 7 1v-3c3.88 0.875 3.88 0.875 5 2 2.88 0.16 5.74 0.26 8.63 0.316 1.3 0.0312 1.3 0.0312 2.62 0.063 2.77 0.0656 5.54 0.124 8.31 0.183 1.87 0.0432 3.75 0.0868 5.62 0.131 4.6 0.107 9.21 0.209 13.8 0.307 0.66-1.32 1.32-2.64 2-4 2.12-0.0808 4.25-0.139 6.38-0.188 1.18-0.0348 2.37-0.0696 3.59-0.105 1 0.0967 2.01 0.193 3.04 0.293 0.66 0.99 1.32 1.98 2 3 2.02 0.506 2.02 0.506 4.35 0.512 0.851 0.0354 1.7 0.0709 2.58 0.107 0.889 0.0226 1.78 0.0451 2.7 0.0684 1.35 0.0512 1.35 0.0512 2.72 0.104 2.22 0.0826 4.44 0.152 6.66 0.209 0.66-1.32 1.32-2.64 2-4 52.6-0.0686 105-0.121 158-0.153 6.2-0.00375 12.4-0.00764 18.6-0.0116 1.85-0.00118 1.85-0.00118 3.74-0.00238 20-0.0131 40-0.0367 60-0.0643 20.5-0.028 41-0.0447 61.6-0.0508 12.7-0.00413 25.3-0.0172 38-0.0415 8.68-0.0158 17.4-0.0207 26-0.0168 5.01 0.00193 10-0.00112 15-0.0171 4.58-0.0145 9.17-0.0154 13.8-0.00508 1.66 0.00128 3.33-0.0026 4.99-0.012 2.25-0.0119 4.5-0.00563 6.75 0.00551 1.88-0.00171 1.88-0.00171 3.8-0.00345 0.956 0.123 1.91 0.246 2.9 0.373 0.66 0.99 1.32 1.98 2 3 3.07 0.463 3.07 0.463 6.69 0.406 0.987 0.0163 0.987 0.0163 1.99 0.0328 2.11 0.0343 4.21 0.0499 6.32 0.0609 2.77 0.0145 5.54 0.0481 8.31 0.0938 1.23 0.00709 2.47 0.0142 3.74 0.0215 1.46 0.19 1.46 0.19 2.95 0.385 0.66 0.99 1.32 1.98 2 3 2.36 0.47 2.36 0.47 5 0.5 2.69 0.0938 2.69 0.0938 5 0.5 0.66 0.99 1.32 1.98 2 3 0.99 0.165 1.98 0.33 3 0.5 0.99 0.165 1.98 0.33 3 0.5 0.66 0.99 1.32 1.98 2 3 0.99 0.165 1.98 0.33 3 0.5 0.99 0.165 1.98 0.33 3 0.5 0.66 0.99 1.32 1.98 2 3 0.99 0.124 1.98 0.248 3 0.375 0.99 0.206 1.98 0.413 3 0.625 1.38 2.56 1.38 2.56 2 5h4v3c0.99 0.33 1.98 0.66 3 1 2.64 2.44 4.87 4.81 6.94 7.75 2.58 2.82 4.33 3 8.06 3.25 0.186 1.03 0.371 2.06 0.562 3.12 1.34 4.78 4.62 6.97 8.44 9.88 3.93 3.29 4.72 6.08 6 11 0.66 0.66 1.32 1.32 2 2 0.667 2 1.33 4 2 6 0.66 0.66 1.32 1.32 2 2 0.144 0.804 0.289 1.61 0.438 2.44 0.329 2.6 0.329 2.6 2.06 4.06 1.5 1.5 1.5 1.5 2 4.06 0.276 2.8 0.276 2.8 3.5 4.44 0.461 3.61 0.504 7.17 0.594 10.8 0.134 1.05 0.268 2.1 0.406 3.19 0.99 0.66 1.98 1.32 3 2 0.379 1.97 0.379 1.97 0.385 4.42 0.0101 0.914 0.0202 1.83 0.0306 2.77-0.00302 0.99-0.00604 1.98-0.00916 3 0.0163 1.52 0.0163 1.52 0.0328 3.07 0.046 4.35 0.0574 8.7 0.0721 13 0.0156 3.17 0.0486 6.34 0.0825 9.51-0.00302 0.99-0.00604 1.98-0.00916 3 0.0101 0.914 0.0202 1.83 0.0306 2.77 0.00205 0.807 0.00411 1.61 0.00623 2.44 0.125 0.651 0.25 1.3 0.379 1.97 0.99 0.66 1.98 1.32 3 2 0.294 2.97 0.391 5.73 0.361 8.71 0.00256 0.912 0.00513 1.82 0.00777 2.76 0.00497 3.08-0.0116 6.15-0.028 9.23-8.46e-4 2.2-3.72e-4 4.39 0.00133 6.59 8.64e-4 5.98-0.0168 12-0.0377 17.9-0.0187 6.24-0.0205 12.5-0.0241 18.7-0.00828 10.5-0.027 21-0.0538 31.5-0.0275 10.8-0.0488 21.6-0.0615 32.4-7.88e-4 0.666-0.00158 1.33-0.00239 2.02-0.00392 3.34-0.0077 6.68-0.0114 10-0.0314 27.7-0.0842 55.4-0.151 83.1-0.99 0.33-1.98 0.66-3 1-0.0514 61.9-0.0991 124-0.127 186-6.21e-4 1.37-6.21e-4 1.37-0.00126 2.78-0.00898 19.9-0.0173 39.8-0.0249 59.7-0.00374 9.76-0.00763 19.5-0.0116 29.3-3.92e-4 0.971-7.85e-4 1.94-0.00119 2.94-0.0128 31.5-0.0353 63-0.0629 94.5-0.0283 32.4-0.0468 64.7-0.0529 97.1-8.65e-4 4.57-0.00184 9.13-0.00289 13.7-2.02e-4 0.899-4.05e-4 1.8-6.13e-4 2.72-0.00355 14.5-0.0175 29-0.0353 43.5-0.0176 14.6-0.0244 29.1-0.02 43.7 0.00229 8.66-0.00387 17.3-0.0219 26-0.0112 5.78-0.0116 11.6-0.0031 17.3 0.00456 3.3 0.00259 6.59-0.00915 9.89-0.0119 3.54-0.00564 7.08 0.00551 10.6-0.0118 1.56-0.0118 1.56-0.0239 3.14 0.00674 0.936 0.0135 1.87 0.0204 2.84-7.02e-4 1.22-7.02e-4 1.22-0.00142 2.46 0.123 0.647 0.247 1.29 0.374 1.96l3 2c0.369 1.79 0.369 1.79 0.361 4 0.00412 0.836 0.00825 1.67 0.0125 2.53-0.0108 0.919-0.0216 1.84-0.0327 2.78 4.38e-4 0.966 8.76e-4 1.93 0.00133 2.93-0.0021 3.2-0.0255 6.41-0.0489 9.61-0.00559 2.22-0.00986 4.43-0.0129 6.65-0.0115 5.84-0.041 11.7-0.0741 17.5-0.0307 5.96-0.0444 11.9-0.0595 17.9-0.0322 11.7-0.0834 23.4-0.146 35.1-0.99 0.33-1.98 0.66-3 1 0.33 1.32 0.66 2.64 1 4h2c0.188 3.37 0.188 3.37 0 7l-3 2c-0.3 3.01-0.406 5.81-0.385 8.82-0.00537 0.914-0.0107 1.83-0.0163 2.77-0.0098 1.99-0.0127 3.98-0.00964 5.97 0.00446 3.14-0.00947 6.29-0.0284 9.43-0.0369 6.67-0.0505 13.3-0.0609 20-0.0121 7.73-0.0335 15.5-0.08 23.2-0.0136 3.1-0.00939 6.21-0.00459 9.31-0.00934 1.89-0.0195 3.79-0.0306 5.68 0.00615 0.869 0.0123 1.74 0.0186 2.63-0.0249 2.4-0.0249 2.4-0.403 6.19l-3 2c-0.47 2.36-0.47 2.36-0.5 5-0.0938 2.69-0.0938 2.69-0.5 5l-3 2c-0.47 2.36-0.47 2.36-0.5 5-0.0938 2.69-0.0938 2.69-0.5 5l-3 2c-0.165 0.99-0.33 1.98-0.5 3-0.165 0.99-0.33 1.98-0.5 3l-3 2-0.25 2.75c-0.846 3.67-1.4 4.05-4.25 6.25-3.6 2.78-3.91 4.48-4.5 9-4.11 4-4.11 4-7 4-0.098 0.601-0.196 1.2-0.297 1.82-0.846 2.62-1.79 3.39-3.95 5.05-2.38 1.93-4.45 3.8-6.38 6.19-2.35 2.91-4.5 5.55-7.38 7.94-3.31 0.312-3.31 0.312-6 0-0.33 0.99-0.66 1.98-1 3-3.14 3.98-6.2 4.73-11 6-0.33 0.66-0.66 1.32-1 2-2.33 0.667-4.67 1.33-7 2-0.33 0.66-0.66 1.32-1 2-2.14 0.273-2.14 0.273-4.81 0.375-4.11 0.198-4.11 0.198-7.25 2.69-1.94 1.94-1.94 1.94-4.17 2.2-2.27-0.0106-4.51-0.0877-6.77-0.262-0.33 0.99-0.66 1.98-1 3-2.33 0.667-4.67 1.33-7 2-0.33 0.99-0.66 1.98-1 3h-887c-0.66-1.32-1.32-2.64-2-4-3.55-1.3-3.55-1.3-7-2v-2c-0.99-0.33-1.98-0.66-3-1-0.99-1.49-0.99-1.49-2-3-2.33-0.694-4.66-1.36-7-2-0.33-0.66-0.66-1.32-1-2-1.61-0.371-1.61-0.371-3.25-0.75-4.56-1.52-5.73-3.62-8.75-7.25-2.35-1.06-4.44-1.5-7-2v-2c-0.99-0.33-1.98-0.66-3-1-0.667-1.33-1.33-2.67-2-4-0.99-0.33-1.98-0.66-3-1-2.62-2.42-4.91-4.89-7.12-7.69-1.84-2.5-1.84-2.5-4.88-4.31l-0.25-2.75c-0.846-3.67-1.4-4.05-4.25-6.25-3.42-2.64-3.42-2.64-4.25-6.25l-0.25-2.75c-0.99-0.66-1.98-1.32-3-2-0.453-2.58-0.503-5.07-0.594-7.69l-0.406-2.31-3-2c-0.461-3.61-0.504-7.17-0.594-10.8l-0.406-3.19-3-2c-0.299-2.63-0.399-5.03-0.373-7.67-0.00383-0.806-0.00767-1.61-0.0116-2.44-0.00928-2.74 0.00306-5.47 0.0151-8.21-0.00222-1.98-0.00575-3.95-0.0105-5.93-0.00926-5.48 3.65e-4 -11 0.0128-16.4 0.0103-5.94 0.0032-11.9-0.00173-17.8-0.00624-10.4-0.00136-20.8 0.0109-31.3 0.0131-11.2 0.0197-22.4 0.0183-33.6-8.61e-5 -0.706-1.72e-4 -1.41-2.61e-4 -2.14-4.69e-4 -3.6-0.00104-7.2-0.00166-10.8-0.00423-26.1 0.00609-52.1 0.0241-78.2 0.0178-25.8 0.0293-51.7 0.0326-77.5 1.03e-4 -0.802 2.06e-4 -1.6 3.13e-4 -2.43 9.4e-4 -7.32 0.0018-14.6 0.00257-22 0.00192-18.2 0.0048-36.4 0.00833-54.6 1.6e-4 -0.829 3.2e-4 -1.66 4.85e-4 -2.51 0.00787-40.3 0.0268-80.7 0.0466-121 0.00687-14 0.0137-28 0.0203-42 4.11e-4 -0.868 8.22e-4 -1.74 0.00124-2.63 0.019-40.4 0.0302-80.7 0.0394-121 5.94e-4 -2.62 0.00119-5.24 0.00179-7.86 0.00396-17.4 0.00778-34.7 0.0115-52.1 0.00743-34.5 0.0157-69.1 0.0244-104 4.18e-4 -1.64 8.35e-4 -3.29 0.00125-4.93 0.0188-74.1 0.0468-148 0.0788-222 3e-4 -0.694 6e-4 -1.39 9.09e-4 -2.1 0.015-34.7 0.0305-69.4 0.0467-104 1.98-0.99 1.98-0.99 4-2v-10c1.98-0.99 1.98-0.99 4-2v-10c1.98-0.99 1.98-0.99 4-2 0.819-3.56 0.819-3.56 1-7h3v-7c0.619-0.248 1.24-0.495 1.88-0.75 2.48-1.46 3.08-2.63 4.12-5.25h2c0.402-0.897 0.402-0.897 0.812-1.81 1.19-2.19 2.28-3.6 4.19-5.19h2c0.66-1.32 1.32-2.64 2-4h2c0.66-1.32 1.32-2.64 2-4h2c0.66-1.32 1.32-2.64 2-4h3c0.103-0.639 0.206-1.28 0.312-1.94 0.227-0.681 0.454-1.36 0.688-2.06 0.99-0.33 1.98-0.66 3-1 1.21-2 1.21-2 2-4h6c0.66-1.32 1.32-2.64 2-4h6c0.66-1.32 1.32-2.64 2-4h10c0.66-1.32 1.32-2.64 2-4h30c0.66-1.32 1.32-2.64 2-4zm-70 27 1 2zm-4 4 1 2zm-4 4 1 2zm-4 4 1 2zm474 173c-0.66 1.32-1.32 2.64-2 4h-22c-0.66 1.32-1.32 2.64-2 4h-14c-0.66 1.32-1.32 2.64-2 4h-10c-0.66 1.32-1.32 2.64-2 4h-10c-0.66 1.32-1.32 2.64-2 4-2.32 0.407-4.66 0.744-7 1-0.33 0.66-0.66 1.32-1 2-1.73 0.464-1.73 0.464-3.5 0.938-1.16 0.351-2.31 0.701-3.5 1.06-0.33 0.99-0.66 1.98-1 3-2.31 0.33-4.62 0.66-7 1v2c-1.11 0.0825-2.23 0.165-3.38 0.25-1.2 0.248-2.39 0.495-3.62 0.75-0.33 0.66-0.66 1.32-1 2-0.33 0.66-0.66 1.32-1 2-3.62 0.75-3.62 0.75-7 1v2c-1.67 0.186-1.67 0.186-3.38 0.375-3.66 0.272-3.66 0.272-5.62 2.62v3l-1.56 0.312c-3.32 0.937-6.34 2.17-9.44 3.69-0.33 0.99-0.66 1.98-1 3-2.06 1.19-2.06 1.19-4 2v2c-0.639 0.124-1.28 0.247-1.94 0.375-0.681 0.206-1.36 0.412-2.06 0.625l-1 2c-0.908 0.268-1.82 0.536-2.75 0.812-3.8 1.39-5.65 3.13-8.25 6.19v2c-0.578 0.247-1.15 0.495-1.75 0.75-2.58 1.43-4.31 3.03-6.25 5.25v2c-0.578 0.247-1.15 0.495-1.75 0.75-2.58 1.43-4.31 3.03-6.25 5.25v2l-3 1c-2.71 2.38-2.71 2.38-5 5v2c-0.578 0.247-1.15 0.495-1.75 0.75-2.58 1.43-4.31 3.03-6.25 5.25v2c-1.98 0.99-1.98 0.99-4 2v2c-1.98 0.99-1.98 0.99-4 2v2c-1.98 0.99-1.98 0.99-4 2v2c-1.98 0.99-1.98 0.99-4 2v6c-1.98 0.99-1.98 0.99-4 2v2c-0.959 0.309-0.959 0.309-1.94 0.625-0.681 0.454-1.36 0.908-2.06 1.38-0.103 0.908-0.206 1.82-0.312 2.75-0.787 3.72-1.35 4.05-4.25 6.25-3.16 2.38-3.16 2.38-3.88 6.38 0.144 0.866 0.289 1.73 0.438 2.62-1.98 0.99-1.98 0.99-4 2v6c-1.98 0.99-1.98 0.99-4 2v6c-1.98 0.99-1.98 0.99-4 2v6c-1.98 0.99-1.98 0.99-4 2v6c-1.98 0.99-1.98 0.99-4 2v10c-1.98 0.99-1.98 0.99-4 2v10c-1.98 0.99-1.98 0.99-4 2v6c-1.98 0.99-1.98 0.99-4 2v18c-1.98 0.99-1.98 0.99-4 2v18c-1.98 0.99-1.98 0.99-4 2-0.0694 10-0.123 20-0.155 30-0.0157 4.65-0.037 9.29-0.0709 13.9-0.0325 4.48-0.0505 8.96-0.0583 13.4-0.00556 1.71-0.0164 3.42-0.0326 5.14-0.0217 2.39-0.0248 4.78-0.0234 7.18-0.0108 0.713-0.0216 1.43-0.0327 2.16-0.0214 2.18-0.0214 2.18 0.373 5.14 0.99 0.66 1.98 1.32 3 2 0.385 1.85 0.385 1.85 0.406 4.06 0.0329 1.19 0.0329 1.19 0.0664 2.41 0.0182 1.68 0.0365 3.36 0.0547 5.05 0.0329 1.19 0.0329 1.19 0.0664 2.41 0.00709 0.731 0.0142 1.46 0.0215 2.21 0.246 2.26 0.246 2.26 3.38 3.85 0.461 3.61 0.504 7.17 0.594 10.8 0.201 1.58 0.201 1.58 0.406 3.19 0.99 0.66 1.98 1.32 3 2 0.453 2.58 0.503 5.07 0.594 7.69 0.134 0.763 0.268 1.53 0.406 2.31 0.99 0.66 1.98 1.32 3 2 0.453 2.58 0.503 5.07 0.594 7.69 0.134 0.763 0.268 1.53 0.406 2.31 0.99 0.66 1.98 1.32 3 2 0.694 2.33 1.36 4.66 2 7 0.66 0.33 1.32 0.66 2 1 0.356 2.55 0.444 5.08 0.559 7.65l0.441 2.35c0.99 0.66 1.98 1.32 3 2 0.0825 0.908 0.165 1.82 0.25 2.75 0.843 3.65 1.35 4.01 4.19 6.19 3.88 3 4.7 5.29 5.56 10.1h2c0.103 1.11 0.206 2.23 0.312 3.38 0.227 1.2 0.454 2.39 0.688 3.62 0.99 0.66 1.98 1.32 3 2 0.402 1.64 0.402 1.64 0.812 3.31 1.46 4.52 3.6 5.71 7.19 8.69 0.144 0.969 0.289 1.94 0.438 2.94 0.745 4.05 2.49 5.02 5.65 7.48 2.57 2.13 4.57 4.58 6.65 7.17 1.23 1.55 1.23 1.55 3.26 2.42 0.248 1.26 0.495 2.52 0.75 3.81 0.795 3.52 1.04 4.03 4.06 6.38l3.19 1.81c4.79 4.36 4.79 4.36 6 8h2c0.33 0.66 0.66 1.32 1 2 0.99 0.33 1.98 0.66 3 1 1.19 2.56 1.19 2.56 2 5h3l1 3c1.98 1.69 3.98 3.35 6 5l2 3c0.908 0.0825 1.82 0.165 2.75 0.25 4.15 0.958 5.2 2.65 7.73 5.91 1.47 1.79 2.96 3.15 4.77 4.59 2.75 2.25 2.75 2.25 4.75 5.25l2.75 0.25c4.22 0.974 5.23 2.86 7.8 6.17 1.95 2.13 3.64 2.27 6.45 2.58 0.474 0.495 0.949 0.99 1.44 1.5 1.58 1.8 1.58 1.8 4.62 2 0.969 0.165 1.94 0.33 2.94 0.5l2 3c0.99 0.144 1.98 0.289 3 0.438l3 0.562c1.38 2.06 1.38 2.06 2 4h3c0.33 0.99 0.66 1.98 1 3 0.928 0.103 1.86 0.206 2.81 0.312 3.19 0.688 3.19 0.688 4.56 2.19 2 1.84 3.02 1.8 5.69 2.06 3.94 0.438 3.94 0.438 5.94 2.44 1.16 0.309 2.31 0.619 3.5 0.938 3.5 1.06 3.5 1.06 5.5 4.06 2.36 0.47 2.36 0.47 5 0.5 2.69 0.0938 2.69 0.0938 5 0.5 0.99 1.49 0.99 1.49 2 3 3.28 0.473 3.28 0.473 7 0.5 3.81 0.0938 3.81 0.0938 7 0.5 0.99 1.49 0.99 1.49 2 3 3.28 0.473 3.28 0.473 7 0.5 3.81 0.0938 3.81 0.0938 7 0.5 0.99 1.49 0.99 1.49 2 3 3.07 0.463 3.07 0.463 6.69 0.406 0.658 0.0108 1.32 0.0217 1.99 0.0328 2.11 0.0343 4.21 0.0499 6.32 0.0609 2.77 0.0145 5.54 0.0481 8.31 0.0938 1.23 0.00709 2.47 0.0142 3.74 0.0215 0.973 0.127 1.95 0.254 2.95 0.385 0.66 0.99 1.32 1.98 2 3 2.08 0.457 2.08 0.457 4.51 0.388 0.934 0.00946 1.87 0.0189 2.83 0.0287 1.01-0.00607 2.02-0.0121 3.07-0.0184 1.55 0.00431 1.55 0.00431 3.14 0.0087 2.19 0.00204 4.38-0.00351 6.58-0.016 3.36-0.016 6.73-1.62e-4 10.1 0.019 2.13-0.00198 4.25-0.00583 6.38-0.0117 1.01 0.00607 2.02 0.0121 3.07 0.0184 0.934-0.00946 1.87-0.0189 2.83-0.0287 0.824-0.00239 1.65-0.00477 2.5-0.00723 0.996-0.189 0.996-0.189 2.01-0.381 0.66-0.99 1.32-1.98 2-3 2.95-0.385 2.95-0.385 6.69-0.406 0.658-0.0108 1.32-0.0217 1.99-0.0328 2.82-0.046 5.64-0.0574 8.46-0.0721 2.06-0.0157 4.11-0.0487 6.17-0.0825 1.23-0.00709 2.47-0.0142 3.74-0.0215 0.973-0.127 1.95-0.254 2.95-0.385 0.66-0.99 1.32-1.98 2-3 3.61-0.461 7.17-0.504 10.8-0.594l3.19-0.406c0.66-0.99 1.32-1.98 2-3 2.58-0.453 5.07-0.503 7.69-0.594l2.31-0.406c0.66-0.99 1.32-1.98 2-3 2.58-0.453 5.07-0.503 7.69-0.594l2.31-0.406c0.66-0.99 1.32-1.98 2-3 2.58-0.453 5.07-0.503 7.69-0.594l2.31-0.406c0.66-0.99 1.32-1.98 2-3 2-0.333 4-0.667 6-1 0.66-0.99 1.32-1.98 2-3 2-0.333 4-0.667 6-1 0.66-0.99 1.32-1.98 2-3 2-0.333 4-0.667 6-1 0.66-0.99 1.32-1.98 2-3 2-0.333 4-0.667 6-1 0.66-0.99 1.32-1.98 2-3l2.75-0.25c3.67-0.846 4.05-1.4 6.25-4.25 2.79-3.6 4.47-3.92 9-4.5 2.9-2.31 2.9-2.31 5-5v-2l3.12-0.0625c4.61-1.12 5.63-2.47 8.39-6.09 1.45-1.81 2.92-3.16 4.73-4.59 2.89-2.14 2.89-2.14 4.75-5.25 3.13-0.688 3.13-0.688 6-1 0.33-1.32 0.66-2.64 1-4 0.578-0.0825 1.16-0.165 1.75-0.25 2.9-0.968 4.29-2.44 6.25-4.75v-2c1.32-0.66 2.64-1.32 4-2v-2h3l0.625-1.69c1.38-2.31 1.38-2.31 4.44-4.62 3.27-2.48 3.27-2.48 3.81-6.5l0.125-3.19c0.99-0.33 1.98-0.66 3-1 3.03-3.06 3.03-3.06 4-7h4c0.289-0.639 0.578-1.28 0.875-1.94 1.12-2.06 1.12-2.06 3.12-3.06l0.75-3.25c1.52-4.56 3.62-5.73 7.25-8.75l1-3.5c1.28-4.47 3.49-5.58 7-8.5 1.28-3.64 1.28-3.64 2-7 0.66-0.33 1.32-0.66 2-1l2-7c0.66-0.33 1.32-0.66 2-1l2-7c0.66-0.33 1.32-0.66 2-1l2-7c0.66-0.33 1.32-0.66 2-1l2-7c0.66-0.33 1.32-0.66 2-1 0.356-2.55 0.444-5.08 0.559-7.65 0.146-0.775 0.291-1.55 0.441-2.35 0.99-0.66 1.98-1.32 3-2 0.47-2.36 0.47-2.36 0.5-5 0.0938-2.69 0.0938-2.69 0.5-5 0.99-0.66 1.98-1.32 3-2 0.473-3.28 0.473-3.28 0.5-7 0.0938-3.81 0.0938-3.81 0.5-7 0.99-0.66 1.98-1.32 3-2 0.473-3.28 0.473-3.28 0.5-7 0.0938-3.81 0.0938-3.81 0.5-7 0.99-0.66 1.98-1.32 3-2 0.463-3.07 0.463-3.07 0.406-6.69 0.0108-0.658 0.0217-1.32 0.0328-1.99 0.0343-2.11 0.0499-4.21 0.0609-6.32 0.0145-2.77 0.0481-5.54 0.0938-8.31l0.0215-3.74c0.127-0.973 0.254-1.95 0.385-2.95 0.99-0.66 1.98-1.32 3-2 0.456-1.92 0.456-1.92 0.388-4.14 0.00946-0.854 0.0189-1.71 0.0287-2.59-0.00607-0.924-0.0121-1.85-0.0184-2.8 0.00431-1.42 0.00431-1.42 0.0087-2.87 0.00204-2-0.00351-4.01-0.016-6.01-0.016-3.08-1.61e-4 -6.15 0.019-9.22-0.00198-1.94-0.00583-3.89-0.0117-5.83 0.00607-0.924 0.0121-1.85 0.0184-2.8-0.00946-0.854-0.0189-1.71-0.0287-2.59-0.00239-0.753-0.00477-1.51-0.00723-2.28-0.238-2.27-0.238-2.27-3.38-3.86-0.385-2.95-0.385-2.95-0.406-6.69-0.0108-0.658-0.0217-1.32-0.0328-1.99-0.046-2.82-0.0574-5.64-0.0721-8.46-0.0157-2.06-0.0487-4.11-0.0825-6.17l-0.0215-3.74c-0.127-0.973-0.254-1.95-0.385-2.95-0.99-0.66-1.98-1.32-3-2-0.461-3.61-0.504-7.17-0.594-10.8l-0.406-3.19c-0.99-0.66-1.98-1.32-3-2-0.461-3.61-0.504-7.17-0.594-10.8l-0.406-3.19c-0.99-0.66-1.98-1.32-3-2-1.19-3.12-1.19-3.12-2-6h-2c-0.0374-0.843-0.0748-1.69-0.113-2.55l-0.199-3.32c-0.058-1.09-0.116-2.18-0.176-3.3-0.169-0.931-0.338-1.86-0.512-2.82-0.99-0.66-1.98-1.32-3-2-1.12-3-1.12-3-2-6-0.33-0.66-0.66-1.32-1-2h-2l0.188-2.88-0.188-3.12c-0.99-0.66-1.98-1.32-3-2-0.694-2.33-1.36-4.66-2-7-0.66-0.33-1.32-0.66-2-1-0.667-2.33-1.33-4.67-2-7-0.66-0.33-1.32-0.66-2-1l-0.75-3.25c-0.95-3.95-0.95-3.95-4.25-6.25-3.58-2.98-3.97-5.06-5-9.5-0.66-0.33-1.32-0.66-2-1l-0.188-2.69c-1.03-4.18-2.76-5.33-6.12-7.82-1.89-1.67-2.61-3.24-3.69-5.49-0.66-0.33-1.32-0.66-2-1-0.289-0.928-0.578-1.86-0.875-2.81-1.2-3.4-2.35-4.94-5.12-7.19h-2c-0.33-0.99-0.66-1.98-1-3-0.66-0.309-1.32-0.619-2-0.938-2-1.06-2-1.06-2.75-3.19-0.0825-0.619-0.165-1.24-0.25-1.88h-2c-0.33-0.66-0.66-1.32-1-2-2.4-2.65-2.4-2.65-5-5h-2c-0.33-0.99-0.66-1.98-1-3-0.66-0.309-1.32-0.619-2-0.938-2-1.06-2-1.06-2.75-3.19-0.0825-0.619-0.165-1.24-0.25-1.88h-2c-0.33-0.66-0.66-1.32-1-2-1.72-1.55-3.51-3-5.31-4.46-1.69-1.54-1.69-1.54-3.69-4.54-0.99-0.144-1.98-0.289-3-0.438l-3-0.562c-1.12-2-1.12-2-2-4-1.33-0.362-2.66-0.697-4-1-0.33-0.99-0.66-1.98-1-3h-2c-0.33-0.99-0.66-1.98-1-3-0.866-0.0206-1.73-0.0412-2.62-0.0625-4.24-1.18-5.26-2.99-7.86-6.36-2.21-2.3-4.43-2.3-7.52-2.58-0.66-0.99-1.32-1.98-2-3-1.64-0.402-1.64-0.402-3.31-0.812-3.69-1.19-3.69-1.19-6-4.25-3.04-3.33-3.61-3.34-7.88-3.62-0.86-0.00387-1.72-0.00773-2.61-0.0117-1.09-0.149-1.09-0.149-2.21-0.301-0.66-0.99-1.32-1.98-2-3-0.99-0.165-1.98-0.33-3-0.5-0.99-0.165-1.98-0.33-3-0.5-0.66-0.99-1.32-1.98-2-3-3.63-1.78-6.89-2.97-10.8-4-3.19-1-3.19-1-5.19-4-3.28-0.473-3.28-0.473-7-0.5-3.81-0.0938-3.81-0.0938-7-0.5-0.66-0.99-1.32-1.98-2-3-2.36-0.47-2.36-0.47-5-0.5-2.69-0.0938-2.69-0.0938-5-0.5-0.66-0.99-1.32-1.98-2-3-3.28-0.473-3.28-0.473-7-0.5-3.81-0.0938-3.81-0.0938-7-0.5-0.66-0.99-1.32-1.98-2-3-2.29-0.459-2.29-0.459-4.94-0.406-0.977-0.0219-1.95-0.0438-2.96-0.0664l-3.1-0.0273c-2.02-0.0178-4.04-0.0484-6.06-0.0938-0.898-0.00709-1.8-0.0142-2.72-0.0215-0.731-0.127-1.46-0.254-2.21-0.385-0.66-0.99-1.32-1.98-2-3-2.99-0.441-2.99-0.441-6.56-0.341-0.673-4.38e-4 -1.35-8.76e-4 -2.04-0.00133-2.23 0.00209-4.46 0.0254-6.69 0.0489-1.54 0.00559-3.09 0.00987-4.63 0.0129-4.07 0.0115-8.13 0.0409-12.2 0.0741-4.15 0.0307-8.3 0.0444-12.4 0.0595-8.14 0.0322-16.3 0.0834-24.4 0.146zm262 467 1 2zm-438 225c-0.66 1.32-1.32 2.64-2 4h-26c-0.66 1.32-1.32 2.64-2 4-1.98 0.99-1.98 0.99-4 2v10c-1.98 0.99-1.98 0.99-4 2-0.25 2.42-0.25 2.42 0 5l3 2c0.461 3.61 0.504 7.17 0.594 10.8 0.134 1.05 0.268 2.1 0.406 3.19 0.99 0.66 1.98 1.32 3 2 0.688 3.12 0.688 3.12 1 6 1.09 0.268 2.19 0.536 3.31 0.812 3.69 1.19 3.69 1.19 4.94 2.74 2.8 2.32 5.97 1.87 9.44 1.84 0.795 0.00556 1.59 0.0111 2.41 0.0168 2.69 0.0151 5.37 0.00859 8.06 0.00233 1.94 0.00632 3.87 0.0139 5.81 0.0227 5.34 0.0204 10.7 0.0218 16 0.0202 5.75 0.00144 11.5 0.02 17.3 0.0363 12.6 0.0322 25.2 0.0419 37.8 0.0476 7.85 0.00375 15.7 0.0125 23.6 0.0225 21.7 0.0269 43.5 0.0496 65.2 0.0519 0.695 7.85e-5 1.39 1.57e-4 2.11 2.38e-4 3.52 3.9e-4 7.05 7.41e-4 10.6 0.00109 1.41 1.44e-4 2.83 2.89e-4 4.24 4.33e-4 1.05 1e-4 1.05 1e-4 2.12 2.02e-4 22 0.00229 44.1 0.0319 66.1 0.0818 24.7 0.0561 49.5 0.0884 74.2 0.0878 13.1 2.53e-4 26.2 0.0116 39.3 0.0512 11.2 0.0335 22.3 0.0431 33.5 0.0212 5.69-0.0105 11.4-0.0095 17.1 0.0218 5.21 0.0283 10.4 0.0245 15.6-0.00516 1.89-0.00506 3.78 0.0018 5.66 0.0216 2.56 0.0251 5.12 0.00725 7.68-0.0215 1.11 0.0263 1.11 0.0263 2.23 0.0531 3.04-0.0731 5.25-0.397 7.55-2.45 1.59-1.83 1.59-1.83 2.93-3.73 1.41-1.82 2.82-2.91 4.69-4.23 2.96-2.31 2.96-2.31 3.4-5.89-0.0185-1.89-0.0185-1.89-0.0374-3.82-0.00206-1.01-0.00206-1.01-0.00417-2.05-0.00902-1.42-0.0325-2.84-0.0698-4.26-0.055-2.18-0.0615-4.36-0.0608-6.54-0.0321-5.49-0.0321-5.49-0.557-11-0.99-0.66-1.98-1.32-3-2-1.19-3.63-1.19-3.63-2-7-0.777-0.0146-1.55-0.0292-2.35-0.0442-3.51-0.0743-7.01-0.171-10.5-0.268-1.83-0.0338-1.83-0.0338-3.71-0.0684-1.17-0.0354-2.33-0.0709-3.54-0.107-1.08-0.0262-2.16-0.0524-3.27-0.0793-1.29-0.214-1.29-0.214-2.61-0.432-0.66-0.99-1.32-1.98-2-3-3.15-0.454-3.15-0.454-6.95-0.369-0.727-0.00346-1.45-0.00692-2.2-0.0105-2.46-0.00801-4.92 0.00557-7.38 0.0189-1.77-0.00131-3.54-0.00393-5.31-0.00777-4.89-0.00674-9.77 0.00533-14.7 0.0203-5.26 0.0129-10.5 0.00857-15.8 0.00629-9.12-0.00158-18.2 0.00787-27.4 0.0247-13.2 0.0243-26.4 0.0322-39.6 0.036-21.4 0.00657-42.8 0.0266-64.2 0.0549-20.8 0.0275-41.6 0.0488-62.4 0.0615-1.28 7.88e-4 -2.56 0.00158-3.88 0.00239-6.43 0.00392-12.9 0.00771-19.3 0.0114-53.3 0.0311-107 0.084-160 0.151zm72 168c-0.66 1.32-1.32 2.64-2 4-0.699-0.0232-1.4-0.0464-2.12-0.0703l-2.76-0.0547-2.74-0.0703c-2.57-0.0479-2.57-0.0479-4.38 2.2-0.167 3.08-0.167 3.08 0 6l-4 2c-0.174 4.02-0.3 8.04-0.385 12.1-0.0351 1.37-0.0827 2.73-0.144 4.1-0.623 7.89-0.623 7.89 2.05 15 1.82 1.6 1.82 1.6 3.77 2.75 1.71 1.08 1.71 1.08 3.71 4.08 2.33 0.471 2.33 0.471 4.94 0.5 2.65 0.0938 2.65 0.0938 5.06 0.5 0.446 0.496 0.893 0.991 1.35 1.5 2.2 2 3.47 1.87 6.41 1.88 0.987 0.00782 1.97 0.0156 2.99 0.0237 1.63-0.01 1.63-0.01 3.29-0.0203 1.73 0.00702 1.73 0.00702 3.49 0.0142 3.2 0.00992 6.41 0.00632 9.61-0.00296 3.45-0.00677 6.91 0.00368 10.4 0.0119 6.77 0.0134 13.5 0.0104 20.3 0.00176 5.5-0.00677 11-0.0077 16.5-0.00443 1.17 6.9e-4 1.17 6.9e-4 2.37 0.00139 1.59 9.59e-4 3.18 0.00193 4.76 0.00292 14.9 0.00856 29.8-0.00129 44.7-0.0174 12.8-0.0134 25.6-0.0111 38.4 0.00276 14.8 0.016 29.7 0.0224 44.5 0.0132 1.58-9.56e-4 3.16-0.0019 4.75-0.00283 1.17-6.94e-4 1.17-6.94e-4 2.36-0.0014 5.49-0.00259 11 0.00179 16.5 0.00884 6.69 0.0084 13.4 0.00617 20.1-0.00984 3.42-0.00791 6.83-0.0109 10.3-0.00105 3.7 0.00813 7.39-0.00201 11.1-0.017 1.09 0.00669 2.18 0.0134 3.3 0.0203 0.984-0.00782 1.97-0.0156 2.98-0.0237 0.854-4.87e-4 1.71-9.74e-4 2.59-0.00148 0.678-0.124 1.36-0.248 2.05-0.376 0.66-0.99 1.32-1.98 2-3l2.88-0.438c3.9-0.702 4.83-1.33 7.12-4.56 0.558-3.27 0.465-6.49 0.391-9.8-0.00566-0.949-0.0113-1.9-0.0172-2.88-0.0224-3.03-0.0726-6.05-0.123-9.08-0.0201-2.05-0.0383-4.11-0.0547-6.16-0.0441-5.03-0.113-10.1-0.195-15.1-1.11-0.268-2.23-0.536-3.38-0.812-3.62-1.19-3.62-1.19-5.62-4.19-2.18-0.45-2.18-0.45-4.76-0.369-1.01-0.00597-2.02-0.0119-3.06-0.0181-1.12 0.00874-2.24 0.0175-3.39 0.0265-1.18-0.00256-2.36-0.00513-3.58-0.00777-3.29-0.0041-6.58 0.00532-9.87 0.0203-3.54 0.0129-7.09 0.00857-10.6 0.00629-6.14-0.00158-12.3 0.00786-18.4 0.0247-8.88 0.0243-17.8 0.0322-26.7 0.036-14.4 0.00657-28.8 0.0266-43.2 0.0549-14 0.0275-28 0.0488-42 0.0615-1.29 0.00118-1.29 0.00118-2.61 0.00239-4.33 0.00392-8.66 0.00771-13 0.0114-35.9 0.0311-71.8 0.084-108 0.151z" fill="#FCFCFC"/>
<path transform="translate(831)" d="m0 0h568c0.33 0.66 0.66 1.32 1 2 2.31 0.731 4.65 1.4 7 2v2c2.31 0.33 4.62 0.66 7 1 0.33 0.99 0.66 1.98 1 3 2.12 1.12 2.12 1.12 5 2v3c0.763-0.0206 1.53-0.0412 2.31-0.0625 2.69 0.0625 2.69 0.0625 5.69 1.06v3c0.887-0.103 1.77-0.206 2.69-0.312 3.31 0.312 3.31 0.312 6.19 2.69 2.12 2.62 2.12 2.62 2.12 4.62h2c1.67 2 3.33 4 5 6h2v3c0.99 0.33 1.98 0.66 3 1 2.19 1.69 2.19 1.69 4 4 0.25 3.25 0.25 3.25 0 6 0.577 0.248 1.16 0.495 1.75 0.75 2.67 1.48 4.33 2.87 6.25 5.25 0.359 2 0.695 4 1 6l3 2c0.705 2.32 1.37 4.66 2 7 0.66 0.66 1.32 1.32 2 2 0.195 2.16 0.195 2.16 0.125 4.62-0.018 0.817-0.0361 1.63-0.0547 2.48-0.0348 0.94-0.0348 0.94-0.0703 1.9 1.32 0.66 2.64 1.32 4 2v351c-2.31 0.66-4.62 1.32-7 2-0.33 0.66-0.66 1.32-1 2-2.32 0.407-4.66 0.744-7 1-0.33 0.99-0.66 1.98-1 3-0.699 0.0374-1.4 0.0748-2.12 0.113-1.37 0.0986-1.37 0.0986-2.76 0.199-0.905 0.058-1.81 0.116-2.74 0.176-2.75 0.3-2.75 0.3-4.38 3.51-3.61 0.461-7.17 0.504-10.8 0.594-1.05 0.134-2.1 0.268-3.19 0.406-0.66 0.99-1.32 1.98-2 3-1.67 0.464-1.67 0.464-3.38 0.938-3.91 1.15-5.15 1.92-7.62 5.06-0.596 2.76-0.596 2.76-0.496 5.79-6.45e-4 1.11-0.00129 2.21-0.00195 3.35 0.02 1.15 0.04 2.3 0.0605 3.48-0.0106 1.74-0.0106 1.74-0.0215 3.51-0.00372 4.45-0.00372 4.45 0.459 8.87l3 2c0.188 3.13 0.188 3.13 0 6 0.959 0.433 0.959 0.433 1.94 0.875 2.06 1.12 2.06 1.12 3.06 3.12l7 2c0.33 0.66 0.66 1.32 1 2 3.59 0.359 7.17 0.445 10.8 0.559 1.06 0.146 2.13 0.291 3.22 0.441 0.66 0.99 1.32 1.98 2 3 2.36 0.47 2.36 0.47 5 0.5 2.69 0.0938 2.69 0.0938 5 0.5 0.66 0.99 1.32 1.98 2 3l3.38 0.938c3.94 1.15 5.18 1.85 7.62 5.06 0.5 3.16 0.5 3.16 0.5 6.98 0.00823 1.06 0.00823 1.06 0.0166 2.14 0.0136 2.39-0.00151 4.77-0.0163 7.16 0.00387 1.73 0.00949 3.46 0.0167 5.18 0.0148 4.78 0.00454 9.56-0.00961 14.3-0.011 5.19 0.00109 10.4 0.0103 15.6 0.0129 9.1 0.0109 18.2-7.8e-4 27.3-0.0173 13.5-0.0119 27.1-0.00183 40.6 0.0162 22.8 0.0134 45.5-7.48e-4 68.3-0.014 22.6-0.021 45.1-0.0183 67.7 1.63e-4 1.42 3.25e-4 2.83 4.86e-4 4.25 6.58e-4 5.69 0.00136 11.4 0.00213 17.1 0.00211 15.9 0.00286 31.8 0.00258 47.7-1.24e-5 0.724-2.48e-5 1.45-3.75e-5 2.19-4.9e-4 23.1-0.00692 46.2-0.0175 69.2-3.43e-4 0.749-6.87e-4 1.5-0.00104 2.27-0.0056 12.2-0.0115 24.3-0.0175 36.5-0.0236 48.2-0.0298 96.5-0.0194 145 6.53e-4 3.05 0.0013 6.1 0.00196 9.14 2.42e-4 1.13 2.42e-4 1.13 4.88e-4 2.28 0.00178 8.35 0.0035 16.7 0.00515 25 1.49e-4 0.748 2.99e-4 1.5 4.53e-4 2.27 0.00785 39.7 0.00225 79.3-0.00857 119-0.00155 5.68-0.00306 11.4-0.00457 17-5.68e-4 2.12-0.00115 4.24-0.00173 6.36-0.00421 15.5-0.00639 31-0.00331 46.5 1.39e-4 0.7 2.77e-4 1.4 4.2e-4 2.12 7.1e-4 3.52 0.00146 7.05 0.00222 10.6 0.00548 25.4 0.00139 50.9-0.02 76.3-0.011 13.5-0.0137 26.9-0.00471 40.4 0.00519 8.98-4.09e-4 18-0.0151 26.9-0.00806 5.13-0.0112 10.3-0.00143 15.4 0.0088 4.65 0.00406 9.31-0.012 14-0.00334 1.68-0.00155 3.36 0.00573 5.05 0.00909 2.27 3.16e-5 4.53-0.0139 6.8-4.27e-4 1.26-8.54e-4 2.52-0.00129 3.82-0.124 0.959-0.248 1.92-0.376 2.91l-3 2c-0.47 2.36-0.47 2.36-0.5 5-0.0938 2.69-0.0938 2.69-0.5 5l-3 2c-0.165 0.99-0.33 1.98-0.5 3-0.165 0.99-0.33 1.98-0.5 3l-3 2-0.25 2.81c-0.852 3.62-1.31 3.9-4.25 5.88-0.629 0.375-1.26 0.75-1.91 1.14-1.91 1.18-1.91 1.18-2.59 4.18l-3 2-0.25 2.75c-0.967 4.19-2.8 5.36-6.16 7.86-1.88 1.41-1.88 1.41-2.59 4.39h-3c-0.33 0.99-0.66 1.98-1 3l-3.25 0.812c-3.95 0.88-3.95 0.88-6.25 4.19-2.98 3.58-5.06 3.97-9.5 5-0.33 0.66-0.66 1.32-1 2-2.32 0.407-4.66 0.744-7 1v2c-3.23 2.15-4.28 2.2-8 2-0.33 0.99-0.66 1.98-1 3-2.33 0.667-4.67 1.33-7 2-0.33 0.99-0.66 1.98-1 3h-160c-0.33-3.96-0.66-7.92-1-12l-3-2c-0.188-3.12-0.188-3.12 0-6-0.99-0.33-1.98-0.66-3-1-2.69-2-2.69-2-5-5-0.419-3.05-0.3-5.94 0-9 0.634-0.286 1.27-0.572 1.92-0.867 2.49-1.36 3.04-2.54 4.08-5.13h2c-0.0928-1.39-0.0928-1.39-0.188-2.81 0.188-3.19 0.188-3.19 1.67-4.6 2.4-2.51 1.93-5.19 2.01-8.53 0.504-2.06 0.504-2.06 2.54-3.34 0.648-0.238 1.3-0.477 1.96-0.723v-7c1.32-0.33 2.64-0.66 4-1v-10c1.32-0.66 2.64-1.32 4-2v-18c1.32-0.66 2.64-1.32 4-2-0.00152-0.654-0.00304-1.31-0.0046-1.98-0.0895-38.8-0.158-77.5-0.2-116-5e-3 -4.65-0.0102-9.3-0.0155-14-0.00105-0.926-0.0021-1.85-0.00318-2.81-0.0174-15-0.049-30-0.0857-45-0.0374-15.4-0.0596-30.8-0.0677-46.2-0.0055-9.5-0.0229-19-0.0553-28.5-0.0211-6.51-0.0275-13-0.0223-19.5 0.00257-3.76-0.00145-7.52-0.0228-11.3-0.023-4.07-0.0152-8.14-0.0042-12.2-0.0117-1.19-0.0233-2.39-0.0353-3.62 0.0119-1.63 0.0119-1.63 0.0241-3.3-0.00152-0.94-0.00304-1.88-0.0046-2.85 0.64-3.2 2.05-4.41 4.5-6.48-0.652-0.358-1.3-0.716-1.98-1.09-2.02-1.91-2.02-1.91-2.48-4.92 0.0314-1.8 0.0314-1.8 0.0635-3.63 0.0129-1.3 0.0258-2.6 0.0391-3.94 0.0334-1.37 0.0673-2.74 0.102-4.12 0.0201-1.38 0.0383-2.77 0.0547-4.15 0.0472-3.39 0.113-6.77 0.195-10.2 1.32-0.66 2.64-1.32 4-2-0.0611-8.18-0.138-16.4-0.236-24.5-0.0448-3.8-0.084-7.6-0.111-11.4-0.026-3.66-0.0663-7.33-0.117-11-0.0167-1.4-0.0282-2.8-0.0344-4.2-0.00959-1.96-0.0393-3.91-0.07-5.87-0.0111-1.11-0.0222-2.23-0.0336-3.38-0.132-0.869-0.263-1.74-0.399-2.63l-3-2c-0.331-2.88-0.464-5.49-0.438-8.38-0.02-0.768-0.04-1.54-0.0605-2.33 0.00338-3.91 0.0173-5.69 2.53-8.84 0.651-0.482 1.3-0.964 1.97-1.46-0.65-0.315-1.3-0.629-1.97-0.953-2.61-2.63-2.51-4.62-2.55-8.22 0.0117-0.851 0.0233-1.7 0.0353-2.58-0.00342-0.905-0.00684-1.81-0.0104-2.74-0.00661-3.05 0.0154-6.09 0.0373-9.13 0.00113-2.18 4.96e-4 -4.36-0.00177-6.53-0.00115-5.92 0.0224-11.8 0.0503-17.8 0.025-6.19 0.0274-12.4 0.0321-18.6 0.0124-11.7 0.0453-23.4 0.0854-35.2 0.045-13.3 0.0667-26.7 0.0868-40 0.0418-27.4 0.112-54.9 0.201-82.3 1.32-0.66 2.64-1.32 4-2v-326c1.32-0.66 2.64-1.32 4-2l-0.125-2.88c0.125-3.12 0.125-3.12 2.12-5.12 3.12-0.125 3.12-0.125 6 0 0.66-1.32 1.32-2.64 2-4h38c0.66-1.32 1.32-2.64 2-4h18c0.66-1.32 1.32-2.64 2-4 1.44-1.75 1.44-1.75 3-3h3v-7c1.32-0.66 2.64-1.32 4-2-0.0806-3.79-0.193-7.58-0.312-11.4-0.0338-1.62-0.0338-1.62-0.0684-3.27-0.0354-1.03-0.0709-2.06-0.107-3.12l-0.0793-2.89c-0.143-0.772-0.285-1.54-0.432-2.34l-3-2c-0.688-3.13-0.688-3.13-1-6-1.13-0.289-2.27-0.578-3.44-0.875-1.18-0.371-2.35-0.742-3.56-1.12-0.33-0.66-0.66-1.32-1-2-0.777-0.0146-1.55-0.0292-2.35-0.0442-3.51-0.0743-7.01-0.171-10.5-0.268-1.22-0.0226-2.45-0.0451-3.71-0.0684-1.17-0.0354-2.33-0.0709-3.54-0.107-1.08-0.0262-2.16-0.0524-3.27-0.0793-0.863-0.143-1.73-0.285-2.61-0.432-0.66-0.99-1.32-1.98-2-3-2.56-0.277-4.9-0.369-7.46-0.336-1.52-0.0125-3.04-0.0256-4.56-0.0391-2.4-0.00392-4.79-1.56e-5 -7.19 0.0146-2.31 0.00859-4.63-0.0132-6.94-0.0381-1.07 0.02-1.07 0.02-2.16 0.0404-3.89-0.0575-5.57-0.537-8.65-2.98-2.32-3.01-2.55-4.96-3.05-8.66l-3-2c-0.385-2.95-0.385-2.95-0.406-6.69-0.0108-0.658-0.0217-1.32-0.0328-1.99-0.046-2.82-0.0574-5.64-0.0721-8.46-0.0157-2.06-0.0487-4.11-0.0825-6.17l-0.0215-3.74c-0.127-0.973-0.254-1.95-0.385-2.95l-3-2c-0.301-2.88-0.417-5.56-0.406-8.44-0.0108-0.836-0.0217-1.67-0.0328-2.53-0.046-3.58-0.0574-7.17-0.0721-10.8-0.0157-2.61-0.0486-5.23-0.0825-7.84 0.00302-0.815 0.00604-1.63 0.00916-2.47 6.6e-4 -2.52 6.6e-4 -2.52-0.415-5.97l-3-2c-0.461-3.61-0.504-7.17-0.594-10.8-0.134-1.05-0.268-2.1-0.406-3.19l-3-2c-0.512-2.6-0.512-2.6-0.688-5.62l-0.199-3.04c-0.0374-0.771-0.0748-1.54-0.113-2.34-0.99-0.33-1.98-0.66-3-1-0.103-0.949-0.206-1.9-0.312-2.88-0.373-3.42-0.373-3.42-3.69-5.12-0.333-2-0.667-4-1-6l-3-2c-0.694-2.33-1.36-4.66-2-7-0.66-0.33-1.32-0.66-2-1-0.144-0.969-0.289-1.94-0.438-2.94-0.186-1.01-0.371-2.02-0.562-3.06l-3-2c-0.688-3.63-0.688-3.63-1-7-0.99-0.33-1.98-0.66-3-1v-2c-0.99-0.33-1.98-0.66-3-1-0.227-1.03-0.454-2.06-0.688-3.12-1.06-4.56-4.05-6.61-7.63-9.39-0.554-0.489-1.11-0.977-1.68-1.48v-2h-2c-2.62-2.62-4.43-4.64-6-8h-2c-1.26-1.32-1.26-1.32-2.69-3.12-2.7-3.28-5.59-5.95-8.89-8.61-1.42-1.26-1.42-1.26-2.42-3.26-1.72-0.696-3.45-1.39-5.17-2.08-1.83-0.922-1.83-0.922-4.33-3.48-2.37-2.71-2.37-2.71-6-3.38-4.43-1.34-5.59-3.56-8.5-7.06-3.64-1.28-3.64-1.28-7-2-0.33-0.66-0.66-1.32-1-2-1.16-0.33-2.31-0.66-3.5-1-1.16-0.33-2.31-0.66-3.5-1-0.33-0.66-0.66-1.32-1-2-2.55-0.356-5.08-0.444-7.65-0.559l-2.35-0.441c-0.66-0.99-1.32-1.98-2-3-2.36-0.47-2.36-0.47-5-0.5-2.69-0.0938-2.69-0.0938-5-0.5-0.66-0.99-1.32-1.98-2-3-3.28-0.473-3.28-0.473-7-0.5-3.81-0.0938-3.81-0.0938-7-0.5-0.66-0.99-1.32-1.98-2-3-1.89-0.457-1.89-0.457-4.06-0.406l-2.41-0.0664c-0.833-0.00902-1.67-0.018-2.52-0.0273-1.65-0.0178-3.29-0.0485-4.94-0.0938-1.1-0.0106-1.1-0.0106-2.21-0.0215-1.85-0.385-1.85-0.385-3.85-3.38-2.68-0.461-2.68-0.461-5.81-0.406-1.74-0.0329-1.74-0.0329-3.51-0.0664-1.21-0.00902-2.43-0.018-3.68-0.0273-2.4-0.0178-4.79-0.0484-7.19-0.0938-1.07-0.00709-2.13-0.0142-3.23-0.0215-0.852-0.127-1.7-0.254-2.58-0.385-0.66-0.99-1.32-1.98-2-3-2.49-0.378-4.88-0.376-7.39-0.398-3.77-0.87-5.18-2.64-7.61-5.6-0.612-3.29-0.612-3.29-0.602-6.98-0.012-0.981-0.012-0.981-0.0243-1.98-0.023-2.08-0.0136-4.15 8.24e-4 -6.23 0.00385-2.09 4.6e-4 -4.17-0.0206-6.26-0.0176-1.88-0.0101-3.77-0.00137-5.65-0.116-0.958-0.233-1.92-0.353-2.9-0.99-0.66-1.98-1.32-3-2-0.321-2.15-0.321-2.15-0.266-4.8-0.00387-0.959-0.00773-1.92-0.0117-2.91 0.0181-2.02 0.0517-4.03 0.102-6.05 0.0549-5.5 0.0549-5.5-2.4-10.2-1.86-1.62-1.86-1.62-3.83-2.92-1.6-1.11-1.6-1.11-2.6-3.11-1.15-0.33-2.31-0.66-3.5-1-1.15-0.33-2.31-0.66-3.5-1-0.33-0.66-0.66-1.32-1-2-2.79-0.0807-5.58-0.14-8.38-0.188-0.794-0.0251-1.59-0.0503-2.41-0.0762-2.07-0.0264-4.15 0.109-6.22 0.264-0.66 0.99-1.32 1.98-2 3-1.11 0.309-2.23 0.619-3.38 0.938-3.84 1.13-5.31 1.85-7.62 5.06-0.359 2-0.695 4-1 6-0.99 0.66-1.98 1.32-3 2-0.459 2.29-0.459 2.29-0.406 4.94-0.0329 1.47-0.0329 1.47-0.0664 2.96-0.00902 1.02-0.018 2.05-0.0273 3.1-0.0178 2.02-0.0484 4.04-0.0938 6.06-0.00709 0.898-0.0142 1.8-0.0215 2.72-0.127 0.731-0.254 1.46-0.385 2.21-0.99 0.66-1.98 1.32-3 2-0.457 1.89-0.457 1.89-0.406 4.06-0.0329 1.19-0.0329 1.19-0.0664 2.41-0.00902 0.833-0.018 1.67-0.0273 2.52-0.0178 1.65-0.0485 3.29-0.0938 4.94-0.00709 0.731-0.0142 1.46-0.0215 2.21-0.385 1.85-0.385 1.85-3.38 3.85-0.165 0.99-0.33 1.98-0.5 3-0.165 0.99-0.33 1.98-0.5 3-0.99 0.66-1.98 1.32-3 2-0.733 3.07-0.733 3.07-1 6-26.4 0.117-52.8 0.205-79.1 0.259-12.2 0.0258-24.5 0.061-36.7 0.118-10.7 0.0498-21.3 0.0821-32 0.0932-5.65 0.00653-11.3 0.0219-17 0.0582-5.32 0.0339-10.6 0.0444-16 0.0369-1.95 0.00138-3.91 0.0113-5.86 0.0305-2.67 0.0248-5.33 0.0189-8 0.00525-1.16 0.0218-1.16 0.0218-2.35 0.0441-3.98-0.0552-5.77-0.5-8.94-2.98-2.28-3.01-2.53-4.98-3.02-8.66-0.99-0.66-1.98-1.32-3-2-0.461-3.61-0.504-7.17-0.594-10.8-0.134-1.05-0.268-2.1-0.406-3.19-0.99-0.66-1.98-1.32-3-2-0.361-3.01-0.361-3.01-0.341-6.93-4.38e-4 -0.712-8.76e-4 -1.42-0.00133-2.16 0.00209-2.36 0.0255-4.72 0.0489-7.08 0.00559-1.63 0.00986-3.27 0.0129-4.9 0.0115-4.3 0.0409-8.61 0.0741-12.9 0.0307-4.39 0.0444-8.78 0.0595-13.2 0.0322-8.62 0.0834-17.2 0.146-25.9 1.98-0.99 1.98-0.99 4-2v-22c1.98-0.99 1.98-0.99 4-2v-10c1.32-0.66 2.64-1.32 4-2v-6c0.639-0.186 1.28-0.371 1.94-0.562 2.48-1.38 2.48-1.38 2.81-5.06 0.0825-1.11 0.165-2.23 0.25-3.38h2c0.66-1.32 1.32-2.64 2-4h2c0.206-0.557 0.413-1.11 0.625-1.69 1.53-2.57 3.38-4.04 5.72-5.88 2.43-2.11 4.36-4.57 6.36-7.08 0.428-0.447 0.856-0.895 1.3-1.36h2c0.66-1.32 1.32-2.64 2-4h3c0.144-0.639 0.289-1.28 0.438-1.94 0.562-2.06 0.562-2.06 1.56-3.06 2-0.0408 4-0.0425 6 0 0.66-1.32 1.32-2.64 2-4h6c0.227-0.578 0.454-1.16 0.688-1.75 1.7-2.91 3.49-4.41 6.31-6.25 2.81-0.25 2.81-0.25 5 0 0.66-1.32 1.32-2.64 2-4h2v-3zm-36 26 1 2zm-4 4 1 2zm-12 12 1 2zm-4 4 1 2zm546 117c-0.286 0.634-0.572 1.27-0.867 1.92-1.36 2.49-2.54 3.04-5.13 4.08v2l-4 2v2l-4 2c-0.07 18.3-0.123 36.7-0.155 55-0.0155 8.52-0.0366 17-0.0709 25.6-0.0299 7.42-0.0492 14.8-0.0559 22.3-0.00392 3.93-0.0132 7.87-0.0349 11.8-0.0203 3.7-0.0267 7.4-0.0221 11.1-0.00122 2.01-0.0174 4.02-0.0339 6.03 0.00412 1.19 0.00825 2.38 0.0125 3.6-0.00277 1.04-0.00553 2.08-0.00838 3.15 0.122 0.808 0.244 1.62 0.369 2.45 0.99 0.66 1.98 1.32 3 2 0.477 3.22 0.477 3.22 0.625 7.06-0.212 4.29-0.212 4.29 1.38 7.94 2.55 0.243 5.1 0.384 7.65 0.523 2.35 0.477 2.35 0.477 4.35 3.48 1.99 0.463 1.99 0.463 4.28 0.398 0.842 0.00387 1.68 0.00773 2.55 0.0117 1.32-0.0174 1.32-0.0174 2.67-0.0352 0.88 0.0116 1.76 0.0232 2.67 0.0352 0.842-0.00387 1.68-0.00773 2.55-0.0117 1.16-0.00508 1.16-0.00508 2.34-0.0103 2.35-0.232 2.35-0.232 3.94-3.39 3.26-0.512 3.26-0.512 7.12-0.688 1.28-0.0657 2.56-0.131 3.88-0.199 0.987-0.0374 1.97-0.0748 2.99-0.113 0.0374-0.987 0.0748-1.97 0.113-2.99l0.199-3.88c0.058-1.28 0.116-2.55 0.176-3.87 0.169-1.08 0.338-2.15 0.512-3.26 0.99-0.66 1.98-1.32 3-2 0.457-2.51 0.457-2.51 0.381-5.5 0.00846-1.17 0.0169-2.34 0.0256-3.54-0.00911-1.93-0.00911-1.93-0.0184-3.91 0.00406-1.37 0.0094-2.73 0.0159-4.1 0.0137-3.72 0.00836-7.43-0.00114-11.2-0.00758-3.88-5.56e-4 -7.77 0.00416-11.7 0.00546-6.52-0.00175-13-0.016-19.6-0.0163-7.55-0.011-15.1 0.00548-22.6 0.0136-6.47 0.0155-12.9 0.00768-19.4-0.00468-3.87-0.00528-7.74 0.00461-11.6 0.00865-3.64 0.00269-7.28-0.0147-10.9-0.00588-1.98 0.00307-3.95 0.0124-5.93-0.0127-1.75-0.0127-1.75-0.0256-3.54-0.00113-1.02-0.00226-2.04-0.00343-3.09-0.125-0.796-0.249-1.59-0.378-2.41l-3-2c-0.512-2.38-0.512-2.38-0.688-5.12-0.0657-0.91-0.131-1.82-0.199-2.76-0.0561-1.05-0.0561-1.05-0.113-2.12-1.11-0.268-2.23-0.536-3.38-0.812-3.62-1.19-3.62-1.19-5.62-4.19-3.01-0.418-3.01-0.418-6.54-0.293-1.3 0.00967-2.6 0.0193-3.95 0.0293-1.38 0.0251-2.76 0.0505-4.14 0.0762-1.39 0.015-2.78 0.0287-4.16 0.041-3.4 0.0355-6.81 0.0849-10.2 0.146zm-66 903 1 2zm0 120 1 2z" fill="#FCFCFC"/>
<path transform="translate(657,543)" d="m0 0c2.19-0.375 2.19-0.375 5 0 2.5 2.69 2.5 2.69 3.75 4.34 2.39 3.17 4.93 6 8.5 7.79 0.577 0.289 1.15 0.577 1.75 0.875 0.495 1.49 0.495 1.49 1 3 0.66 0.33 1.32 0.66 2 1v2c0.66 0.33 1.32 0.66 2 1 0.588 1.58 0.588 1.58 1.19 3.19 1.26 3.18 2.68 4.74 5.38 6.81 3.71 2.9 4.26 5.45 5.44 10 0.825 0.66 1.65 1.32 2.5 2 3.28 2.62 3.47 5.02 4.5 9 0.99 0.66 1.98 1.32 3 2 0.705 2.32 1.37 4.66 2 7 0.66 0.66 1.32 1.32 2 2 0.0619 0.742 0.124 1.49 0.188 2.25 0.956 3.24 1.71 3.55 4.38 5.44 2.5 1.95 3.34 2.75 3.9 5.92-0.0211 2.5-0.152 4.92-0.461 7.39h2c2 3 2 3 2.44 5.56 0.351 2.79 0.351 2.79 3.56 4.44 0.453 2.58 0.503 5.07 0.594 7.69 0.201 1.14 0.201 1.14 0.406 2.31 0.99 0.66 1.98 1.32 3 2 0.333 2 0.667 4 1 6 0.99 0.66 1.98 1.32 3 2 0.461 3.61 0.504 7.17 0.594 10.8 0.201 1.58 0.201 1.58 0.406 3.19 0.99 0.66 1.98 1.32 3 2 0.333 2 0.667 4 1 6 0.99 0.66 1.98 1.32 3 2 0.385 1.85 0.385 1.85 0.406 4.06 0.0329 1.19 0.0329 1.19 0.0664 2.41 0.0182 1.68 0.0365 3.36 0.0547 5.05 0.0329 1.19 0.0329 1.19 0.0664 2.41 0.00709 0.731 0.0142 1.46 0.0215 2.21 0.246 2.26 0.246 2.26 3.38 3.85 0.341 2.71 0.341 2.71 0.293 6.1-0.00967 1.21-0.0193 2.42-0.0293 3.67-0.0251 1.27-0.0503 2.54-0.0762 3.85-0.0135 1.28-0.0271 2.56-0.041 3.88-0.0355 3.17-0.0849 6.33-0.146 9.5-0.984 0.0219-0.984 0.0219-1.99 0.0442-2.96 0.0743-5.92 0.171-8.89 0.268-1.03 0.0226-2.07 0.0451-3.13 0.0684-0.986 0.0354-1.97 0.0709-2.99 0.107-0.911 0.0262-1.82 0.0524-2.76 0.0793-0.741 0.143-1.48 0.285-2.25 0.432-0.66 0.99-1.32 1.98-2 3-2.48 0.369-2.48 0.369-5.67 0.361-1.81 0.00619-1.81 0.00619-3.65 0.0125-1.34-0.0106-2.69-0.0215-4.03-0.0327-1.41-8.46e-4 -2.82-3.72e-4 -4.23 0.00133-3.83 8.63e-4 -7.66-0.0168-11.5-0.0377-4-0.0187-8.01-0.0205-12-0.0241-7.58-0.00934-15.2-0.034-22.7-0.064-8.63-0.0335-17.3-0.05-25.9-0.0651-17.8-0.0314-35.5-0.0842-53.3-0.151-0.99-2.97-1.98-5.94-3-9h-2v-5c1.98-0.99 1.98-0.99 4-2v-22c1.98-0.99 1.98-0.99 4-2v-14c1.98-0.99 1.98-0.99 4-2v-10l4-2v-10l4-2v-6l4-2v-10l4-2v-6l4-2v-6l4-2v-6l4-2v-6c0.619-0.247 1.24-0.495 1.88-0.75 2.48-1.46 3.08-2.63 4.12-5.25h2v-6c0.619-0.247 1.24-0.495 1.88-0.75 2.48-1.46 3.08-2.63 4.12-5.25h2v-6c0.619-0.247 1.24-0.495 1.88-0.75 2.48-1.46 3.08-2.63 4.12-5.25h2v-6c0.619-0.247 1.24-0.495 1.88-0.75 2.48-1.46 3.08-2.63 4.12-5.25h2c0.0619-1.05 0.124-2.1 0.188-3.19 0.968-4.54 2.09-6.09 5.81-8.81 3.31-0.312 3.31-0.312 6 0 0.66-1.32 1.32-2.64 2-4z" fill="#FCFCFC"/>
<path transform="translate(580 787)" d="m0 0c1.73 0.00277 1.73 0.00277 3.5 0.00559 0.643-0.00171 1.29-0.00342 1.95-0.00518 2.16-0.00331 4.33 0.00773 6.49 0.0186 1.55 5.64e-4 3.09 2.48e-4 4.64-8.85e-4 4.21-5.75e-4 8.42 0.0112 12.6 0.0251 4.39 0.0125 8.79 0.0137 13.2 0.0161 8.33 0.00622 16.7 0.0226 25 0.0427 9.48 0.0223 19 0.0333 28.4 0.0434 19.5 0.0209 39 0.0561 58.5 0.101 0.33 0.99 0.66 1.98 1 3 1.14-0.495 1.14-0.495 2.31-1 2.69-1 2.69-1 5.69-1 0.0867 4.46 0.14 8.92 0.188 13.4 0.0251 1.27 0.0503 2.54 0.0762 3.85 0.0145 1.82 0.0145 1.82 0.0293 3.67 0.0236 1.68 0.0236 1.68 0.0476 3.4-0.112 0.893-0.225 1.79-0.341 2.71-0.99 0.66-1.98 1.32-3 2-0.457 1.89-0.457 1.89-0.406 4.06-0.0329 1.19-0.0329 1.19-0.0664 2.41-0.00902 0.833-0.018 1.67-0.0273 2.52-0.0178 1.65-0.0485 3.29-0.0938 4.94-0.00709 0.731-0.0142 1.46-0.0215 2.21-0.385 1.85-0.385 1.85-3.38 3.85-0.47 2.36-0.47 2.36-0.5 5-0.0938 2.69-0.0938 2.69-0.5 5-0.99 0.66-1.98 1.32-3 2-0.47 2.36-0.47 2.36-0.5 5-0.0938 2.69-0.0938 2.69-0.5 5-0.99 0.66-1.98 1.32-3 2-0.47 2.36-0.47 2.36-0.5 5-0.0938 2.69-0.0938 2.69-0.5 5-0.99 0.66-1.98 1.32-3 2-0.47 2.36-0.47 2.36-0.5 5-0.0938 2.69-0.0938 2.69-0.5 5-0.99 0.66-1.98 1.32-3 2-0.736 3.57-0.736 3.57-1 7h-3c-0.33 3.63-0.66 7.26-1 11-0.99 0.33-1.98 0.66-3 1-0.33 0.99-0.66 1.98-1 3-0.99 0.66-1.98 1.32-3 2-1.22 3.56-1.22 3.56-2 7h-2c-0.155 1.67-0.155 1.67-0.312 3.38-0.227 1.2-0.454 2.39-0.688 3.62-0.99 0.66-1.98 1.32-3 2-0.0825 0.908-0.165 1.82-0.25 2.75-0.846 3.67-1.4 4.05-4.25 6.25-3.08 2.28-3.08 2.28-4 6-0.765 4.59-3.94 6.28-7.5 9-3.89 3.26-4.86 6.07-6 11h-2c-0.33 0.99-0.66 1.98-1 3-1.59 1.54-1.59 1.54-3.5 3.06-2.68 2.11-2.68 2.11-4.5 4.94-13.4 1.07-13.4 1.07-17.3-1.52-1.43-1.76-2.57-3.54-3.74-5.48-0.66-0.33-1.32-0.66-2-1v-2c-0.99-0.33-1.98-0.66-3-1v-2h-2c-2.06-1.62-2.06-1.62-4-4-0.103-0.949-0.206-1.9-0.312-2.88-0.91-4.14-2.89-5.36-6.19-7.83-0.494-0.428-0.987-0.856-1.5-1.3v-2c-0.99-0.33-1.98-0.66-3-1-0.678-2.33-1.34-4.66-2-7-0.99-0.66-1.98-1.32-3-2-0.333-2-0.667-4-1-6-0.99-0.66-1.98-1.32-3-2-0.268-1.09-0.536-2.19-0.812-3.31-1.46-4.52-3.6-5.71-7.19-8.69-0.688-3.19-0.688-3.19-1-6-1.49-0.99-1.49-0.99-3-2-0.333-2-0.667-4-1-6-1.49-0.99-1.49-0.99-3-2-0.453-2.58-0.503-5.07-0.594-7.69-0.134-0.763-0.268-1.53-0.406-2.31-1.49-0.99-1.49-0.99-3-2-0.333-2-0.667-4-1-6-1.49-0.99-1.49-0.99-3-2-0.453-2.58-0.503-5.07-0.594-7.69-0.134-0.763-0.268-1.53-0.406-2.31-0.99-0.66-1.98-1.32-3-2-0.453-2.58-0.503-5.07-0.594-7.69-0.134-0.763-0.268-1.53-0.406-2.31-0.99-0.66-1.98-1.32-3-2-0.512-2.6-0.512-2.6-0.688-5.62-0.0986-1.5-0.0986-1.5-0.199-3.04-0.0374-0.771-0.0748-1.54-0.113-2.34-0.99-0.33-1.98-0.66-3-1-0.0374-0.987-0.0748-1.97-0.113-2.99-0.0657-1.28-0.131-2.56-0.199-3.88-0.058-1.28-0.116-2.55-0.176-3.87-0.169-1.08-0.338-2.15-0.512-3.26-0.99-0.66-1.98-1.32-3-2-0.292-2.53-0.396-4.81-0.363-7.34-4.99e-4 -0.725-9.97e-4 -1.45-0.00151-2.2 0.00234-1.53 0.0121-3.07 0.0286-4.6 0.0236-2.35 0.0206-4.7 0.0139-7.05 0.00558-1.49 0.0127-2.98 0.0215-4.46-9.11e-4 -0.705-0.00182-1.41-0.00276-2.14 0.102-7.01 0.102-7.01 5-7.45zm156 4.25 4 1z" fill="#FCFCFC"/>
<path transform="translate(757 555)" d="m0 0c1.45 0.00399 2.9 0.0188 4.35 0.043 1.09 9.67e-4 1.09 9.67e-4 2.21 0.00195 3.2 0.0264 5.8 0.166 8.85 1.19v2c0.949 0.103 1.9 0.206 2.88 0.312 3.12 0.688 3.12 0.688 5.12 3.69 1.64 0.402 1.64 0.402 3.31 0.812 4.54 1.46 5.69 3.59 8.69 7.19 1.15 0.33 2.31 0.66 3.5 1 4.49 1.28 5.76 3.3 8.5 7 3.24 3.89 6.09 4.87 11 6v2c2.12 1.12 2.12 1.12 5 2 0.33 0.99 0.66 1.98 1 3 1.98 1.71 3.96 3.37 6 5 2.38 1.94 2.38 1.94 4 4 0.25 3.25 0.25 3.25 0 6 0.557 0.206 1.11 0.413 1.69 0.625 2.58 1.53 4.05 3.39 5.88 5.73 1.58 1.81 3.29 3.17 5.18 4.64 2.7 2.21 3.18 2.68 4 6.25 0.0825 0.908 0.165 1.82 0.25 2.75 1.49 0.99 1.49 0.99 3 2 0.0825 0.908 0.165 1.82 0.25 2.75 0.846 3.67 1.4 4.05 4.25 6.25 3.42 2.64 3.42 2.64 4.25 6.25 0.0825 0.908 0.165 1.82 0.25 2.75 1.49 0.99 1.49 0.99 3 2 0.188 3.12 0.188 3.12 0 6l4 2v6c0.639 0.206 1.28 0.413 1.94 0.625 0.681 0.454 1.36 0.908 2.06 1.38 0.374 1.99 0.707 3.99 1 6 1.49 0.99 1.49 0.99 3 2 0.453 2.58 0.503 5.07 0.594 7.69 0.201 1.14 0.201 1.14 0.406 2.31 1.49 0.99 1.49 0.99 3 2 0.293 2.38 0.293 2.38 0.188 5.12-0.0406 1.37-0.0406 1.37-0.082 2.76-0.0348 0.699-0.0696 1.4-0.105 2.12 0.648 0.186 1.3 0.371 1.96 0.562 0.672 0.474 1.34 0.949 2.04 1.44 0.504 3.19 0.504 3.19 0.562 7 0.00223 3.72 0.00223 3.72 0.438 7 0.99 0.66 1.98 1.32 3 2 0.221 2.63 0.282 5.01 0.188 7.62-0.0135 0.706-0.0271 1.41-0.041 2.14-0.0354 1.75-0.0892 3.49-0.146 5.23-1.17 0.0219-1.17 0.0219-2.35 0.0442-3.51 0.0743-7.01 0.171-10.5 0.268-1.22 0.0226-2.45 0.0451-3.71 0.0684-1.17 0.0354-2.33 0.0709-3.54 0.107-1.62 0.0393-1.62 0.0393-3.27 0.0793-0.863 0.143-1.73 0.285-2.61 0.432-0.66 0.99-1.32 1.98-2 3-2.14 0.394-2.14 0.394-4.83 0.42-1 0.0159-2.01 0.0318-3.04 0.0482-1.09 2.01e-4 -2.18 4.03e-4 -3.3 6.1e-4 -1.68 0.0114-1.68 0.0114-3.39 0.0231-2.37 0.0108-4.74 0.0136-7.1 0.00916-3.62-9.7e-4 -7.24 0.0406-10.9 0.085-2.3 0.00521-4.6 0.0079-6.9 0.00781-1.08 0.0164-2.17 0.0328-3.28 0.0497-7.51-0.0689-7.51-0.0689-11.5-2.98-2.03-2.98-2.34-5.13-2.82-8.66-0.99-0.66-1.98-1.32-3-2-0.385-1.85-0.385-1.85-0.406-4.06-0.0219-0.797-0.0438-1.59-0.0664-2.41-0.0182-1.68-0.0365-3.36-0.0547-5.05-0.0219-0.797-0.0438-1.59-0.0664-2.41-0.00709-0.731-0.0142-1.46-0.0215-2.21-0.246-2.26-0.246-2.26-3.38-3.85-0.385-1.85-0.385-1.85-0.406-4.06-0.0219-0.797-0.0438-1.59-0.0664-2.41-0.0182-1.68-0.0365-3.36-0.0547-5.05-0.0219-0.797-0.0438-1.59-0.0664-2.41-0.00709-0.731-0.0142-1.46-0.0215-2.21-0.246-2.26-0.246-2.26-3.38-3.85-0.461-3.61-0.504-7.17-0.594-10.8-0.201-1.58-0.201-1.58-0.406-3.19-0.99-0.66-1.98-1.32-3-2-0.461-3.61-0.504-7.17-0.594-10.8-0.201-1.58-0.201-1.58-0.406-3.19-0.99-0.66-1.98-1.32-3-2-0.453-2.58-0.503-5.07-0.594-7.69-0.134-0.763-0.268-1.53-0.406-2.31-1.49-0.99-1.49-0.99-3-2-0.453-2.58-0.503-5.07-0.594-7.69-0.134-0.763-0.268-1.53-0.406-2.31-1.49-0.99-1.49-0.99-3-2-0.453-2.58-0.503-5.07-0.594-7.69-0.134-0.763-0.268-1.53-0.406-2.31-0.99-0.66-1.98-1.32-3-2-0.333-2-0.667-4-1-6-0.99-0.66-1.98-1.32-3-2-0.333-2-0.667-4-1-6-0.99-0.66-1.98-1.32-3-2-0.453-2.58-0.503-5.07-0.594-7.69-0.134-0.763-0.268-1.53-0.406-2.31-0.99-0.66-1.98-1.32-3-2-0.333-2-0.667-4-1-6-0.99-0.66-1.98-1.32-3-2-0.333-2-0.667-4-1-6-0.99-0.66-1.98-1.32-3-2-0.363-2.09-0.363-2.09-0.312-4.5 0.00387-0.794 0.00773-1.59 0.0117-2.41 0.566-3.94 2.12-4.08 5.89-4.32z" fill="#FCFCFC"/>
<path transform="translate(549,555)" d="m0 0c2.81-0.0268 5.62-0.0468 8.44-0.0625 0.802-0.00838 1.6-0.0168 2.43-0.0254 2.04-0.00862 4.09 0.0356 6.13 0.0879 1 1 1 1 1.25 4.44-0.0825 1.18-0.165 2.35-0.25 3.56-0.99 0.66-1.98 1.32-3 2-0.47 2.36-0.47 2.36-0.5 5-0.0938 2.69-0.0938 2.69-0.5 5-0.99 0.66-1.98 1.32-3 2-0.165 0.99-0.33 1.98-0.5 3-0.165 0.99-0.33 1.98-0.5 3-0.99 0.66-1.98 1.32-3 2-0.165 0.99-0.33 1.98-0.5 3-0.165 0.99-0.33 1.98-0.5 3-0.99 0.66-1.98 1.32-3 2-0.47 2.36-0.47 2.36-0.5 5-0.0938 2.69-0.0938 2.69-0.5 5-0.99 0.66-1.98 1.32-3 2-0.165 0.99-0.33 1.98-0.5 3-0.165 0.99-0.33 1.98-0.5 3-0.99 0.66-1.98 1.32-3 2-0.165 0.99-0.33 1.98-0.5 3-0.165 0.99-0.33 1.98-0.5 3-0.99 0.66-1.98 1.32-3 2-0.473 3.28-0.473 3.28-0.5 7-0.0938 3.81-0.0938 3.81-0.5 7-0.99 0.66-1.98 1.32-3 2-0.165 0.99-0.33 1.98-0.5 3-0.165 0.99-0.33 1.98-0.5 3-0.99 0.66-1.98 1.32-3 2-0.473 3.28-0.473 3.28-0.5 7-0.0938 3.81-0.0938 3.81-0.5 7-0.99 0.66-1.98 1.32-3 2-0.47 2.36-0.47 2.36-0.5 5-0.0938 2.69-0.0938 2.69-0.5 5-0.99 0.66-1.98 1.32-3 2-0.473 3.28-0.473 3.28-0.5 7-0.0938 3.81-0.0938 3.81-0.5 7-0.99 0.66-1.98 1.32-3 2-0.457 1.89-0.457 1.89-0.406 4.06-0.0329 1.19-0.0329 1.19-0.0664 2.41-0.00902 0.833-0.018 1.67-0.0273 2.52-0.0178 1.65-0.0485 3.29-0.0938 4.94-0.00709 0.731-0.0142 1.46-0.0215 2.21-0.385 1.85-0.385 1.85-3.38 3.85-0.505 1.92-0.505 1.92-0.512 4.13-0.0532 1.21-0.0532 1.21-0.107 2.44-0.0226 0.842-0.0451 1.68-0.0684 2.55-0.0342 0.849-0.0683 1.7-0.104 2.57-0.0826 2.1-0.147 4.2-0.209 6.3-1.13 0.289-2.27 0.578-3.44 0.875-1.18 0.371-2.35 0.743-3.56 1.12-0.33 0.66-0.66 1.32-1 2-9.17 0.116-18.3 0.205-27.5 0.259-4.26 0.0261-8.52 0.0614-12.8 0.118-4.11 0.0544-8.22 0.0842-12.3 0.0972-1.57 0.00923-3.13 0.0273-4.7 0.0543-2.2 0.0364-4.39 0.0413-6.59 0.039-1.25 0.0111-2.5 0.0222-3.79 0.0336-4.19-0.764-5.66-2.33-8.3-5.6-0.568-2.13-0.568-2.13-0.488-4.21 0.0161-0.751 0.0322-1.5 0.0488-2.28 0.0419-0.769 0.0838-1.54 0.127-2.33 0.0338-1.18 0.0338-1.18 0.0684-2.39 0.0586-1.93 0.148-3.87 0.244-5.8 1.98-0.99 1.98-0.99 4-2v-14c1.98-0.99 1.98-0.99 4-2v-10l4-2v-10l4-2v-6l4-2v-6l4-2v-6c0.619-0.247 1.24-0.495 1.88-0.75 2.48-1.46 3.08-2.63 4.12-5.25h2v-6c0.619-0.247 1.24-0.495 1.88-0.75 2.48-1.46 3.08-2.63 4.12-5.25h2v-6c0.619-0.247 1.24-0.495 1.88-0.75 2.48-1.46 3.08-2.63 4.12-5.25h2c0.66-1.32 1.32-2.64 2-4h2v-3h4v-7c0.639-0.247 1.28-0.495 1.94-0.75 2.25-1.07 2.25-1.07 2.81-3.38 0.0825-0.619 0.165-1.24 0.25-1.88h3c0.268-0.598 0.536-1.2 0.812-1.81 1.19-2.19 2.28-3.6 4.19-5.19h2c0.278-0.959 0.278-0.959 0.562-1.94 0.474-0.681 0.949-1.36 1.44-2.06 3.5-0.5 3.5-0.5 7-1 1.51-1.94 1.51-1.94 2-4h2c0.66-1.32 1.32-2.64 2-4h2c0.33-1.32 0.66-2.64 1-4h4v-3c1.67-0.124 1.67-0.124 3.38-0.25 3.68-0.329 3.68-0.329 5.06-2.81 0.278-0.959 0.278-0.959 0.562-1.94h6c0.66-1.32 1.32-2.64 2-4h6c0.66-1.32 1.32-2.64 2-4zm-46 31 1 2z" fill="#FCFCFC"/>
<path transform="translate(440 787)" d="m0 0c0.743-0.00832 1.49-0.0166 2.25-0.0252 2.46-0.0242 4.93-0.0329 7.39-0.0395 1.71-0.00896 3.42-0.0181 5.13-0.0274 3.59-0.0165 7.18-0.0242 10.8-0.0271 4.6-0.00538 9.2-0.043 13.8-0.0887 3.54-0.0298 7.07-0.037 10.6-0.038 1.7-0.0042 3.39-0.0167 5.09-0.0375 2.38-0.0269 4.75-0.0221 7.12-0.00958 0.699-0.0148 1.4-0.0297 2.12-0.045 3.8 0.057 5.4 0.578 8.42 2.96 2.64 3.44 2.66 5.57 2.69 9.87-0.0229 3.63-0.0229 3.63 0.375 6.81 0.99 0.66 1.98 1.32 3 2 0.385 1.85 0.385 1.85 0.406 4.06 0.0219 0.797 0.0438 1.59 0.0664 2.41 0.0182 1.68 0.0365 3.36 0.0547 5.05 0.0219 0.797 0.0438 1.59 0.0664 2.41 0.00709 0.731 0.0142 1.46 0.0215 2.21 0.246 2.26 0.246 2.26 3.38 3.85 0.461 3.61 0.504 7.17 0.594 10.8 0.134 1.05 0.268 2.1 0.406 3.19 1.49 0.99 1.49 0.99 3 2 0.461 3.61 0.504 7.17 0.594 10.8 0.201 1.58 0.201 1.58 0.406 3.19 1.49 0.99 1.49 0.99 3 2 0.453 2.58 0.503 5.07 0.594 7.69 0.201 1.14 0.201 1.14 0.406 2.31 1.49 0.99 1.49 0.99 3 2 0.453 2.58 0.503 5.07 0.594 7.69 0.201 1.14 0.201 1.14 0.406 2.31 1.49 0.99 1.49 0.99 3 2 0.453 2.58 0.503 5.07 0.594 7.69 0.201 1.14 0.201 1.14 0.406 2.31 1.49 0.99 1.49 0.99 3 2 0.406 2.28 0.406 2.28 0.5 4.94 0.0387 3.71 0.0387 3.71 1.96 6.69 0.507 0.454 1.01 0.908 1.54 1.38 0.691 1.99 1.36 3.99 2 6l2 2c0.217 1.24 0.217 1.24 0.438 2.5 0.339 2.85 0.339 2.85 3.56 4.5 0.453 2.58 0.503 5.07 0.594 7.69 0.201 1.14 0.201 1.14 0.406 2.31 1.49 0.99 1.49 0.99 3 2 0.188 3.12 0.188 3.12 0 6 0.648 0.228 1.3 0.456 1.96 0.691 2.04 1.31 2.04 1.31 2.54 3.59 0.0193 0.878 0.0387 1.76 0.0586 2.66-0.00237 3.75-0.00237 3.75 1.96 6.75 0.729 0.648 0.729 0.648 1.47 1.31 0 2 0 2-1.38 4.12-3.5 2.5-6.08 2.31-10.3 2.31-2.34-0.434-2.34-0.434-3.85-1.95-1.41-1.72-1.41-1.72-3.76-1.75-1.26 0.00773-1.26 0.00773-2.54 0.0156-4.69-0.306-4.69-0.306-6.93-2.29-0.961-1.26-1.9-2.53-2.83-3.82-2.26-2.58-5.19-2.81-8.43-3.64-2.94-2.5-2.94-2.5-5-5v-2l-3.12-0.0625c-4.61-1.12-5.63-2.47-8.39-6.09-1.49-1.85-3-3.2-4.86-4.66-0.866-0.722-1.73-1.44-2.62-2.19v-2c-0.99-0.33-1.98-0.66-3-1v-3c-0.722-0.206-1.44-0.413-2.19-0.625-3-1.47-4.41-3.12-6.43-5.73-2.01-2.38-4.35-4.27-6.74-6.27-2.01-1.69-3.9-3.42-5.65-5.38v-2c-0.99-0.33-1.98-0.66-3-1-4.88-4.07-4.88-4.07-5.38-7.94-0.84-4.11-2.85-5.08-6.06-7.56-2.26-2.17-2.06-4.47-2.56-7.5-1.71-1.64-3.55-3.04-5.42-4.48-2.3-2.21-2.3-4.43-2.58-7.52-1.49-0.99-1.49-0.99-3-2-0.985-2.62-1.42-5.25-2-8h-2c-0.0374-0.699-0.0748-1.4-0.113-2.12-0.0657-0.91-0.131-1.82-0.199-2.76-0.087-1.36-0.087-1.36-0.176-2.74-0.3-2.75-0.3-2.75-3.51-4.38-0.342-1.67-0.674-3.33-1-5-0.495-0.443-0.99-0.887-1.5-1.34-2.47-2.73-1.97-5.84-2.09-9.38-0.134-0.752-0.268-1.5-0.406-2.28-0.99-0.66-1.98-1.32-3-2-0.461-3.61-0.504-7.17-0.594-10.8-0.134-1.05-0.268-2.1-0.406-3.19-0.99-0.66-1.98-1.32-3-2-0.372-2.12-0.372-2.12-0.363-4.72 6.45e-4 -0.932 0.00129-1.86 0.00195-2.82 0.0161-0.976 0.0322-1.95 0.0488-2.96-0.00483-1.46-0.00483-1.46-0.00977-2.96 0.0621-8.17 1.17-9.84 9.54-9.85z" fill="#FCFCFC"/>
<path transform="translate(810 787)" d="m0 0c1.07 0.0108 1.07 0.0108 2.16 0.0218 0.751-2.92e-4 1.5-5.84e-4 2.28-8.85e-4 2.49 0.0014 4.98 0.017 7.47 0.0326 1.72 0.00373 3.45 0.00658 5.17 0.00858 4.54 0.00764 9.08 0.0273 13.6 0.0494 4.63 0.0204 9.26 0.0296 13.9 0.0397 9.09 0.0215 18.2 0.0556 27.3 0.0977 0.33 0.99 0.66 1.98 1 3 2 1.21 2 1.21 4 2 0.0809 1.79 0.139 3.58 0.188 5.38 0.0348 0.998 0.0696 2 0.105 3.02-0.0967 0.859-0.193 1.72-0.293 2.6-0.99 0.66-1.98 1.32-3 2-0.457 1.89-0.457 1.89-0.406 4.06-0.0329 1.19-0.0329 1.19-0.0664 2.41-0.00902 0.833-0.018 1.67-0.0273 2.52-0.0178 1.65-0.0485 3.29-0.0938 4.94-0.00709 0.731-0.0142 1.46-0.0215 2.21-0.385 1.85-0.385 1.85-3.38 3.85-0.165 0.99-0.33 1.98-0.5 3-0.165 0.99-0.33 1.98-0.5 3-0.99 0.66-1.98 1.32-3 2-0.47 2.36-0.47 2.36-0.5 5-0.0938 2.69-0.0938 2.69-0.5 5-0.99 0.66-1.98 1.32-3 2-0.47 2.36-0.47 2.36-0.5 5-0.0938 2.69-0.0938 2.69-0.5 5-0.99 0.66-1.98 1.32-3 2-0.165 0.99-0.33 1.98-0.5 3-0.165 0.99-0.33 1.98-0.5 3-0.99 0.66-1.98 1.32-3 2-0.165 0.99-0.33 1.98-0.5 3-0.165 0.99-0.33 1.98-0.5 3-0.99 0.66-1.98 1.32-3 2-0.0825 0.908-0.165 1.82-0.25 2.75-0.971 4.21-2.81 5.18-6.11 7.75-2.33 2.14-2.75 4.52-3.64 7.5-0.825 0.804-1.65 1.61-2.5 2.44-2.76 2.4-2.76 2.4-3.31 5.94-1.47 4.49-3.55 6.08-7.15 8.98-1.78 1.44-3.34 2.92-4.91 4.58-2.12 2.06-2.12 2.06-4.12 2.06-0.66 1.65-1.32 3.3-2 5h-2v2c-0.619 0.0619-1.24 0.124-1.88 0.188-2.4 0.641-2.4 0.641-3.38 3.38-0.371 1.21-0.371 1.21-0.75 2.44h-2v2c-1.32 0.33-2.64 0.66-4 1-0.0825 0.619-0.165 1.24-0.25 1.88-0.75 2.12-0.75 2.12-2.75 3.25-0.99 0.433-0.99 0.433-2 0.875-0.33 0.66-0.66 1.32-1 2-0.908 0.247-1.82 0.495-2.75 0.75-4.27 1.64-5.48 3.65-8.25 7.25-0.99 0.66-1.98 1.32-3 2-0.33 0.99-0.66 1.98-1 3-1.67 0.186-1.67 0.186-3.38 0.375-3.66 0.272-3.66 0.272-5.62 2.62-1.01 0.33-2.02 0.66-3.06 1-3.06 0.658-3.06 0.658-3.94 3-2.55 0.356-5.08 0.444-7.65 0.559-0.775 0.146-1.55 0.291-2.35 0.441-0.66 0.99-1.32 1.98-2 3-3.38 0.5-3.38 0.5-7 0-2.5-2.31-2.5-2.31-4-5 0.33-0.99 0.66-1.98 1-3h2v-10l4-2v-6l4-2v-10l4-2v-6l4-2v-10l4-2v-6c1.98-0.99 1.98-0.99 4-2v-10c1.98-0.99 1.98-0.99 4-2v-14c1.98-0.99 1.98-0.99 4-2v-10c1.98-0.99 1.98-0.99 4-2v-14c1.32-0.66 2.64-1.32 4-2v-18c1.32-0.66 2.64-1.32 4-2v-22c1.32-0.66 2.64-1.32 4-2-0.0412-0.949-0.0825-1.9-0.125-2.88 0.213-5.32 2.49-5.35 7.26-5.37z" fill="#FDFDFD"/>
<path transform="translate(1457,1551)" d="m0 0c3 1 3 1 3 1z" fill="#000100"/>
<path transform="translate(1410,1591)" d="m0 0 2 1z" fill="#000100"/>
<path transform="translate(1166,1551)" d="m0 0 2 1z" fill="#000100"/>
<path transform="translate(814,931)" d="m0 0 2 1z" fill="#000100"/>
<path transform="translate(822,923)" d="m0 0 2 1z" fill="#000100"/>
<path transform="translate(830,915)" d="m0 0 2 1z" fill="#000100"/>
<path transform="translate(834,911)" d="m0 0 2 1z" fill="#000100"/>
<path transform="translate(850,891)" d="m0 0 2 1z" fill="#000100"/>
<path transform="translate(446,567)" d="m0 0 2 1z" fill="#000100"/>
<path transform="translate(462,551)" d="m0 0 2 1z" fill="#000100"/>
<path transform="translate(470,543)" d="m0 0 2 1z" fill="#000100"/>
<path transform="translate(514,511)" d="m0 0 2 1z" fill="#000100"/>
<path transform="translate(530,503)" d="m0 0 2 1z" fill="#000100"/>
<path transform="translate(768,495)" d="m0 0 2 1z" fill="#000100"/>
<path transform="translate(1176,243)" d="m0 0 2 1z" fill="#000100"/>
<path transform="translate(822,6)" d="m0 0 2 1z" fill="#FDFDFD"/>
</svg>
