<?xml version="1.0" encoding="UTF-8"?>
<svg version="1.1" viewBox="0 0 1600 1600" width="1280" height="1280" xmlns="http://www.w3.org/2000/svg">
<path transform="translate(761,367)" d="m0 0c9.99-0.0695 20-0.123 30-0.155 4.64-0.0157 9.28-0.0369 13.9-0.0709 4.47-0.0326 8.95-0.0505 13.4-0.0583 1.71-0.00555 3.42-0.0164 5.13-0.0326 2.39-0.0217 4.78-0.0248 7.17-0.0234 0.709-0.0108 1.42-0.0216 2.15-0.0327 4.85 0.0307 4.85 0.0307 7.04 1.87 0.403 0.496 0.806 0.992 1.22 1.5 3.05 0.459 3.05 0.459 6.53 0.406 1.93 0.0329 1.93 0.0329 3.89 0.0664 1.36 0.0108 2.72 0.0199 4.07 0.0273 2.66 0.0146 5.31 0.0484 7.97 0.0938 1.77 0.0106 1.77 0.0106 3.58 0.0215 3.34 0.435 3.77 1.03 5.96 3.38 2.27 0.454 2.27 0.454 4.78 0.406 1.39 0.0329 1.39 0.0329 2.8 0.0664 0.963 0.00902 1.93 0.018 2.92 0.0273 1.91 0.0179 3.81 0.0486 5.72 0.0938 0.845 0.00709 1.69 0.0142 2.56 0.0215 2.7 0.468 3.4 1.42 5.22 3.38 3.37 0.446 6.67 0.503 10.1 0.594 0.968 0.134 1.94 0.268 2.93 0.406 0.66 0.99 1.32 1.98 2 3 2.36 0.47 2.36 0.47 5 0.5 2.69 0.0938 2.69 0.0938 5 0.5 0.66 0.99 1.32 1.98 2 3 2.33 0.471 2.33 0.471 4.94 0.5 4.08 0.144 5.27 0.639 8.06 3.5 2.18 0.464 2.18 0.464 4.5 0.5 3.84 0.154 4.85 0.839 7.5 3.5 2.4 0.716 2.4 0.716 5 1.06 3.49 0.545 4.98 0.924 8 2.94 0.66 0.144 1.32 0.289 2 0.438 2 0.562 2 0.562 3.38 2 2.24 2.15 4.69 2.63 7.62 3.56 0.66 0.66 1.32 1.32 2 2 0.804 0.144 1.61 0.289 2.44 0.438 2.56 0.562 2.56 0.562 3.93 2.05 2.11 1.95 3.49 1.99 6.32 2.2 0.808 0.0657 1.62 0.131 2.45 0.199 0.615 0.0374 1.23 0.0748 1.86 0.113v2h2c1.5 1.38 1.5 1.38 3 3 1.93 2.22 1.93 2.22 5 3 3 1 3 1 5 3 1.98 0.714 3.98 1.39 6 2v2c1.05 0.0619 2.1 0.124 3.19 0.188 4.49 0.956 5.88 2.38 8.81 5.81 1.81 2.21 1.81 2.21 4.31 2.31 3.65 0.935 5.2 2.93 7.69 5.69 1.9 2.21 1.9 2.21 4.81 2.88 3.45 1.22 5.57 2.59 8.19 5.12v3c0.949-0.0206 1.9-0.0412 2.88-0.0625 3.12 0.0625 3.12 0.0625 5.12 1.06v2c0.66 0.33 1.32 0.66 2 1 0.33 0.99 0.66 1.98 1 3 0.835 0.402 0.835 0.402 1.69 0.812 2.35 1.21 3.48 2.33 5.25 4.25 2.35 2.5 2.35 2.5 5.62 3.44 3.18 0.652 4.11 2.29 6.02 4.79 1.51 1.82 3.11 3.25 4.92 4.78 5.65 4.81 10.8 10.2 16 15.4 1.39 1.41 2.8 2.8 4.21 4.19 1.84 1.86 3.52 3.73 5.16 5.75 2.58 3.06 5.38 5.55 8.46 8.09 1.64 1.46 2.98 2.96 4.35 4.66 2.1 2.84 2.1 2.84 4.62 4.31 1.69 1.5 1.69 1.5 1.94 4.69-0.0825 0.928-0.165 1.86-0.25 2.81 0.596 0.257 1.19 0.513 1.8 0.777 2.39 1.33 3.62 2.66 5.32 4.79 2.08 2.65 2.08 2.65 4.88 4.44v2c0.66 0.33 1.32 0.66 2 1 1.56 2.45 2.98 4.96 4.38 7.5 1.59 2.65 1.59 2.65 4.19 5 2.45 2.51 3.4 4.2 4.44 7.5 0.33 0.99 0.66 1.98 1 3 0.99 0.33 1.98 0.66 3 1 2 2 2 2 2.5 5.06 0.165 0.969 0.33 1.94 0.5 2.94 0.66 0.33 1.32 0.66 2 1v2c0.619 0.206 1.24 0.413 1.88 0.625 2.97 1.92 3.16 4.05 4.12 7.38 0.66 0.66 1.32 1.32 2 2 0.667 2 1.33 4 2 6 0.66 0.66 1.32 1.32 2 2 0.309 0.969 0.619 1.94 0.938 2.94 0.801 3.03 0.801 3.03 2.62 4.62 1.96 1.96 1.91 3.76 2.44 6.44 0.973 1.35 1.97 2.69 3 4 0.673 1.66 1.34 3.33 2 5 0.66 0.66 1.32 1.32 2 2 0.165 1.01 0.33 2.02 0.5 3.06 0.165 0.969 0.33 1.94 0.5 2.94 0.66 0.33 1.32 0.66 2 1 0.273 1.93 0.273 1.93 0.375 4.31 0.377 4.34 1.32 5.78 4.62 8.69 1.12 3 1.12 3 2 6 0.371 0.66 0.742 1.32 1.12 2 0.875 2 0.875 2 0.75 5-0.221 3.11-0.221 3.11 2.12 4.88 2 2.12 2 2.12 2.16 4.01-0.0653 1.42-0.136 2.83-0.211 4.25 0.0723 2.66 1.42 3.81 3.05 5.87 0.577 2.28 0.999 4.56 1.38 6.88 0.444 2.21 0.444 2.21 2.21 3.48 1.42 1.64 1.42 1.64 1.49 4.78-0.128 1.17-0.255 2.34-0.387 3.55-0.18 1.77-0.18 1.77-0.363 3.57-0.107 0.904-0.214 1.81-0.324 2.74 0.648 0.197 1.3 0.394 1.96 0.598 1.01 0.694 1.01 0.694 2.04 1.4 0.504 2.93 0.504 2.93 0.562 6.44-0.199 4.46-0.199 4.46 1.94 8.01 2.92 3.01 1.98 8.36 2.03 12.4 0.0606 2.06 0.26 4.11 0.473 6.16 0.495 0.423 0.99 0.846 1.5 1.28 2.35 2.69 1.92 5.72 1.91 9.12 0.0108 0.721 0.0217 1.44 0.0328 2.19 0.0459 3.08 0.0573 6.17 0.0721 9.25 0.0157 2.25 0.0487 4.5 0.0825 6.75-0.00302 0.697-0.00604 1.39-0.00916 2.11 0.00148 2.2 0.00148 2.2 0.415 5.29 0.496 0.452 0.992 0.905 1.5 1.37 2.13 2.32 1.86 3.91 1.84 7.02-3.4e-4 1.65-3.4e-4 1.65-6.87e-4 3.34-0.0155 1.19-0.031 2.38-0.0469 3.6-0.00424 1.22-0.00849 2.43-0.0129 3.69-0.0168 3.89-0.0545 7.78-0.0926 11.7-0.015 2.64-0.0287 5.27-0.041 7.91-0.0331 6.47-0.0833 12.9-0.146 19.4l-2 1c-1.49 3.8-1.17 7.96-1.21 12-0.028 1.57-0.0567 3.15-0.0859 4.72-0.0414 2.47-0.0783 4.95-0.104 7.42-0.0275 2.39-0.0733 4.78-0.122 7.17-0.00325 0.743-0.00651 1.49-0.00986 2.25-0.0502 2.08-0.0502 2.08-0.467 5.46-0.99 0.66-1.98 1.32-3 2-0.459 2.27-0.459 2.27-0.406 4.9-0.0219 0.973-0.0438 1.95-0.0664 2.95-0.00902 1.02-0.018 2.04-0.0273 3.09-0.0179 2.01-0.0485 4.02-0.0938 6.03-0.0106 1.34-0.0106 1.34-0.0215 2.71-0.461 2.79-1.35 3.46-3.38 5.33-0.446 3.37-0.503 6.67-0.594 10.1-0.134 0.968-0.268 1.94-0.406 2.93l-3 2c-0.473 3.28-0.473 3.28-0.5 7-0.0938 3.81-0.0938 3.81-0.5 7l-3 2c-0.582 2.43-0.582 2.43-0.688 5.12-0.0657 0.91-0.131 1.82-0.199 2.76-0.0374 0.699-0.0748 1.4-0.113 2.12-0.99 0.33-1.98 0.66-3 1-0.33 3.96-0.66 7.92-1 12-0.99 0.33-1.98 0.66-3 1-0.33 3.3-0.66 6.6-1 10-0.99 0.33-1.98 0.66-3 1-0.144 0.949-0.289 1.9-0.438 2.88-0.562 3.12-0.562 3.12-1.56 5.12h-2c-0.33 2.31-0.66 4.62-1 7-0.99 0.33-1.98 0.66-3 1-0.33 3.96-0.66 7.92-1 12-0.99 0.33-1.98 0.66-3 1-0.103 0.949-0.206 1.9-0.312 2.88-0.688 3.13-0.688 3.13-3.69 5.12-0.25 3.08-0.25 3.08 0 6-0.639 0.186-1.28 0.371-1.94 0.562-2.48 1.38-2.48 1.38-2.81 5.06-0.0825 1.11-0.165 2.23-0.25 3.38h-3c-0.103 0.639-0.206 1.28-0.312 1.94-0.227 0.681-0.454 1.36-0.688 2.06-0.99 0.33-1.98 0.66-3 1-0.33 1.98-0.66 3.96-1 6-0.99 0.33-1.98 0.66-3 1v6c-0.639 0.248-1.28 0.495-1.94 0.75-2.25 1.04-2.25 1.04-2.62 3.25-0.144 0.66-0.289 1.32-0.438 2-0.99 0.66-1.98 1.32-3 2-0.25 2.58-0.25 2.58 0 5-1.32 0.33-2.64 0.66-4 1-0.33 1.32-0.66 2.64-1 4h-3c0.103 0.887 0.206 1.77 0.312 2.69-0.312 3.31-0.312 3.31-2.62 6.12-2.69 2.19-2.69 2.19-5.69 3.19v3c-0.577 0.227-1.16 0.454-1.75 0.688-2.82 1.64-4.33 3.71-6.25 6.31 0.554 0.459 1.11 0.918 1.68 1.39 0.724 0.614 1.45 1.23 2.2 1.86 0.719 0.603 1.44 1.21 2.18 1.83 1.93 1.91 2.8 3.51 3.95 5.92 1.33 0.683 2.66 1.35 4 2 0.33 0.99 0.66 1.98 1 3 0.99 0.33 1.98 0.66 3 1v2c0.868 0.377 0.868 0.377 1.75 0.762 2.53 1.39 4.18 2.98 6.18 5.05 0.696 0.714 1.39 1.43 2.11 2.16 0.967 1 0.967 1 1.95 2.02 0.887 0.887 1.77 1.77 2.69 2.69 0.763 0.763 1.53 1.53 2.31 2.31 0.784 0.763 1.57 1.53 2.38 2.31 2.8 2.87 5.39 5.86 7.98 8.92 1.72 1.99 1.72 1.99 4.65 3.77v2c0.577 0.248 1.16 0.495 1.75 0.75 2.58 1.43 4.31 3.03 6.25 5.25v2c0.577 0.248 1.16 0.495 1.75 0.75 2.58 1.43 4.31 3.03 6.25 5.25v2c0.577 0.248 1.16 0.495 1.75 0.75 2.58 1.43 4.31 3.03 6.25 5.25v2c0.561 0.236 1.12 0.471 1.7 0.714 2.85 1.59 4.79 3.54 7.1 5.86 0.462 0.462 0.925 0.924 1.4 1.4 1.52 1.52 3.04 3.05 4.55 4.58 1.06 1.06 2.12 2.13 3.18 3.19 2.79 2.8 5.58 5.6 8.36 8.41 2.83 2.85 5.66 5.69 8.49 8.53 4.99 5 9.97 10 14.9 15 1.5 1.51 3.03 3 4.58 4.47 1.7 1.82 1.7 1.82 1.7 3.82 0.577 0.25 1.16 0.5 1.75 0.758 2.55 1.41 4.23 3.02 6.25 5.12l2 2.05c0.66 0.683 1.32 1.37 2 2.07 0.742 0.704 1.49 1.41 2.25 2.13 1.75 1.87 1.75 1.87 1.75 3.87 0.577 0.25 1.16 0.5 1.75 0.758 2.55 1.41 4.23 3.02 6.25 5.12l2 2.05c0.66 0.683 1.32 1.37 2 2.07 0.742 0.704 1.49 1.41 2.25 2.13 1.75 1.87 1.75 1.87 1.75 3.87 0.577 0.25 1.16 0.5 1.75 0.758 2.55 1.41 4.23 3.02 6.25 5.12l2 2.05c0.66 0.683 1.32 1.37 2 2.07 0.742 0.704 1.49 1.41 2.25 2.13 1.75 1.87 1.75 1.87 1.75 3.87 0.577 0.25 1.16 0.5 1.75 0.758 2.55 1.41 4.23 3.02 6.25 5.12l2 2.05c0.66 0.683 1.32 1.37 2 2.07 0.742 0.704 1.49 1.41 2.25 2.13 1.75 1.87 1.75 1.87 1.75 3.87 0.578 0.253 1.16 0.506 1.75 0.767 2.51 1.38 4.18 2.93 6.2 4.96 0.764 0.765 1.53 1.53 2.32 2.32 0.817 0.827 1.63 1.65 2.47 2.51 1.27 1.28 1.27 1.28 2.57 2.58 2.71 2.72 5.42 5.45 8.12 8.18 1.82 1.83 3.64 3.66 5.46 5.48 3.34 3.36 6.69 6.72 10 10.1 3.95 3.98 7.9 7.96 11.9 11.9 0.954 0.936 1.91 1.87 2.86 2.81 0.485 0.469 0.971 0.937 1.47 1.42 2.57 2.53 4.29 4.79 5.84 8.02 1.66 0.688 3.32 1.36 5 2 0.33 0.99 0.66 1.98 1 3 1.6 1.33 1.6 1.33 3.5 2.5 3.39 2.17 3.39 2.17 4.5 5.5 0.99 0.495 0.99 0.495 2 1v2c0.557 0.206 1.11 0.412 1.69 0.625 3.23 1.92 5.09 4.37 7.31 7.38l0.5 2.06c0.802 3.11 3.25 4.75 5.5 6.94v2h2v3h2c0.454 1.13 0.908 2.27 1.38 3.44 1.2 3.61 1.2 3.61 3.62 4.56v27c-0.99 0.33-1.98 0.66-3 1v6l-1.94 0.562c-2.48 1.38-2.48 1.38-2.81 5.06l-0.25 3.38c-0.99 0.33-1.98 0.66-3 1-0.33 0.99-0.66 1.98-1 3-0.66 0.33-1.32 0.66-2 1-1.13 2.02-1.13 2.02-2 4h-3c-0.66 1.32-1.32 2.64-2 4-0.784-0.0619-1.57-0.124-2.38-0.188-0.866 0.0619-1.73 0.124-2.62 0.188-0.66 0.99-1.32 1.98-2 3-3.63 0.688-3.63 0.688-7 1-0.33 0.99-0.66 1.98-1 3h-23c-0.66-1.32-1.32-2.64-2-4h-6c-0.66-1.32-1.32-2.64-2-4-0.887 0.103-1.77 0.206-2.69 0.312-3.31-0.312-3.31-0.312-6.12-2.62-2.19-2.69-2.19-2.69-3.19-5.69h-6c-0.248-0.619-0.495-1.24-0.75-1.88-1.06-2.24-1.06-2.24-3.12-3.06-2.88-1.44-4.13-3.55-6.12-6.06-1.11-0.979-2.23-1.94-3.38-2.88-3.15-2.61-5.71-5.43-8.27-8.61-1.48-1.77-1.48-1.77-4.36-3.52v-2c-0.577-0.248-1.16-0.495-1.75-0.75-2.58-1.43-4.31-3.03-6.25-5.25v-2c-0.577-0.248-1.16-0.495-1.75-0.75-2.58-1.43-4.31-3.03-6.25-5.25v-2c-0.577-0.248-1.16-0.495-1.75-0.75-2.58-1.43-4.31-3.03-6.25-5.25v-2c-0.577-0.248-1.16-0.495-1.75-0.75-2.58-1.43-4.31-3.03-6.25-5.25v-2c-0.577-0.248-1.16-0.495-1.75-0.75-2.58-1.43-4.31-3.03-6.25-5.25v-2c-0.577-0.248-1.16-0.495-1.75-0.75-2.58-1.43-4.31-3.03-6.25-5.25v-2c-0.577-0.248-1.16-0.495-1.75-0.75-2.58-1.43-4.31-3.03-6.25-5.25v-2c-0.577-0.248-1.16-0.495-1.75-0.75-2.58-1.43-4.31-3.03-6.25-5.25v-2c-0.577-0.248-1.16-0.495-1.75-0.75-2.58-1.43-4.31-3.03-6.25-5.25v-2c-0.577-0.248-1.16-0.495-1.75-0.75-2.58-1.43-4.31-3.03-6.25-5.25v-2c-0.577-0.248-1.16-0.495-1.75-0.75-2.58-1.43-4.31-3.03-6.25-5.25v-2c-0.577-0.248-1.16-0.495-1.75-0.75-2.58-1.43-4.31-3.03-6.25-5.25v-2c-0.577-0.248-1.16-0.495-1.75-0.75-2.58-1.43-4.31-3.03-6.25-5.25v-2c-0.577-0.248-1.16-0.495-1.75-0.75-2.58-1.43-4.31-3.03-6.25-5.25v-2c-0.577-0.248-1.16-0.495-1.75-0.75-2.58-1.43-4.31-3.03-6.25-5.25v-2c-0.577-0.248-1.16-0.495-1.75-0.75-2.58-1.43-4.31-3.03-6.25-5.25v-2c-0.577-0.248-1.16-0.495-1.75-0.75-2.58-1.43-4.31-3.03-6.25-5.25v-2c-0.577-0.248-1.16-0.495-1.75-0.75-2.58-1.43-4.31-3.03-6.25-5.25v-2c-0.577-0.248-1.16-0.495-1.75-0.75-2.58-1.43-4.31-3.03-6.25-5.25v-2c-0.577-0.248-1.16-0.495-1.75-0.75-2.58-1.43-4.31-3.03-6.25-5.25v-2c-0.577-0.248-1.16-0.495-1.75-0.75-2.58-1.43-4.31-3.03-6.25-5.25v-2c-0.577-0.248-1.16-0.495-1.75-0.75-2.58-1.43-4.31-3.03-6.25-5.25v-2c-0.577-0.248-1.16-0.495-1.75-0.75-2.58-1.43-4.31-3.03-6.25-5.25v-2c-0.577-0.248-1.16-0.495-1.75-0.75-2.58-1.43-4.31-3.03-6.25-5.25v-2c-0.577-0.248-1.16-0.495-1.75-0.75-2.58-1.43-4.31-3.03-6.25-5.25v-2h-2c-4.77-4.3-4.77-4.3-6-8-1.32-0.685-2.66-1.35-4-2-2.25-2-2.25-2-4-4v-2c-0.577-0.248-1.16-0.495-1.75-0.75-2.58-1.43-4.31-3.03-6.25-5.25v-2c-0.577-0.248-1.16-0.495-1.75-0.75-2.58-1.43-4.31-3.03-6.25-5.25v-2c-0.639-0.268-1.28-0.536-1.94-0.812-2.06-1.19-2.06-1.19-3.06-4.19-1.32-0.702-2.65-1.37-4-2-1.75-1.5-1.75-1.5-3-3v-2c-1.32-0.66-2.64-1.32-4-2v-2c-1.46 0.0601-2.92 0.149-4.38 0.25-0.812 0.0464-1.62 0.0928-2.46 0.141-0.714 0.201-1.43 0.402-2.16 0.609-1.13 1.96-1.13 1.96-2 4-0.99 0.33-1.98 0.66-3 1-0.66 0.99-1.32 1.98-2 3-3.13 0.188-3.13 0.188-6 0-0.103 0.639-0.206 1.28-0.312 1.94-0.227 0.681-0.454 1.36-0.688 2.06-0.99 0.33-1.98 0.66-3 1-0.66 0.99-1.32 1.98-2 3h-2c-0.33 0.99-0.66 1.98-1 3-2.33 0.667-4.67 1.33-7 2-0.33 0.99-0.66 1.98-1 3h-3c-0.33 0.99-0.66 1.98-1 3-2.32 0.705-4.66 1.37-7 2-0.33 0.66-0.66 1.32-1 2-2.65 0.594-5.29 0.742-8 1-0.103 0.598-0.206 1.2-0.312 1.81-0.833 2.65-1.41 3.59-3.69 5.19-3.69 0.688-3.69 0.688-7 1-0.33 1.32-0.66 2.64-1 4-1.64 0.155-1.64 0.155-3.31 0.312-3.83 0.715-4.25 1.03-6.69 3.69-1.66 0.356-3.33 0.692-5 1-0.33 0.66-0.66 1.32-1 2-2.55 0.356-5.08 0.444-7.65 0.559-0.775 0.146-1.55 0.291-2.35 0.441-0.66 0.99-1.32 1.98-2 3-3.63 0.688-3.63 0.688-7 1v3c-0.843 0.11-1.69 0.219-2.55 0.332l-3.32 0.48c-1.09 0.151-2.18 0.302-3.3 0.457-3.13 0.477-3.13 0.477-4.82 3.73h-5c-0.66 0.99-1.32 1.98-2 3-2.58 0.453-5.07 0.503-7.69 0.594-0.763 0.134-1.53 0.268-2.31 0.406-0.66 0.99-1.32 1.98-2 3-3.61 0.461-7.17 0.504-10.8 0.594l-3.19 0.406c-0.66 0.99-1.32 1.98-2 3-2.58 0.453-5.07 0.503-7.69 0.594-0.763 0.134-1.53 0.268-2.31 0.406-0.66 0.99-1.32 1.98-2 3-1.88 0.432-1.88 0.432-4.13 0.512-0.806 0.0354-1.61 0.0709-2.44 0.107-1.26 0.0338-1.26 0.0338-2.55 0.0684-1.27 0.0512-1.27 0.0512-2.57 0.104-2.1 0.0826-4.2 0.147-6.3 0.209-0.33 0.99-0.66 1.98-1 3-0.686 0.0146-1.37 0.0292-2.08 0.0442-3.1 0.0743-6.2 0.171-9.3 0.268-1.62 0.0338-1.62 0.0338-3.27 0.0684-1.03 0.0354-2.06 0.0709-3.12 0.107-1.43 0.0393-1.43 0.0393-2.89 0.0793-0.772 0.143-1.54 0.285-2.34 0.432-0.66 0.99-1.32 1.98-2 3-1.87 0.399-1.87 0.399-4.17 0.432-0.861 0.0198-1.72 0.0396-2.61 0.06-0.93 0.00639-1.86 0.0128-2.82 0.0194-0.952 0.018-1.9 0.0359-2.88 0.0544-3.05 0.0543-6.09 0.0881-9.14 0.121-2.06 0.0332-4.13 0.0676-6.19 0.104-5.06 0.0851-10.1 0.152-15.2 0.209-0.33 0.99-0.66 1.98-1 3-5.36 0.0741-10.7 0.129-16.1 0.165-1.82 0.0151-3.65 0.0356-5.47 0.0615-2.62 0.0364-5.24 0.0534-7.86 0.0667-0.816 0.0155-1.63 0.031-2.47 0.0469-5.79 0.00173-5.79 0.00173-7.63-1.83-0.495-0.497-0.99-0.994-1.5-1.51-2.93-0.331-5.67-0.489-8.61-0.512-0.839-0.018-1.68-0.0359-2.54-0.0544-2.68-0.0542-5.36-0.088-8.04-0.121-1.82-0.0332-3.63-0.0677-5.45-0.104-4.45-0.085-8.91-0.152-13.4-0.209-0.66-1.32-1.32-2.64-2-4h-22c-0.66-1.32-1.32-2.64-2-4-1.28 0.0348-2.55 0.0696-3.87 0.105-1.67 0.0281-3.34 0.0554-5.01 0.082-0.842 0.0251-1.68 0.0503-2.55 0.0762-0.806 0.00967-1.61 0.0193-2.44 0.0293-1.12 0.0236-1.12 0.0236-2.25 0.0476-0.93-0.169-0.93-0.169-1.88-0.341-0.66-0.99-1.32-1.98-2-3-2.36-0.47-2.36-0.47-5-0.5-2.69-0.0938-2.69-0.0938-5-0.5-0.66-0.99-1.32-1.98-2-3-2.58-0.414-5.08-0.439-7.69-0.496-1.14-0.249-1.14-0.249-2.31-0.504-0.66-1.32-1.32-2.64-2-4h-14c-0.66-1.32-1.32-2.64-2-4-0.949 0.0619-1.9 0.124-2.88 0.188-1.03-0.0619-2.06-0.124-3.12-0.188-0.66-0.99-1.32-1.98-2-3-1.86-0.397-1.86-0.397-4-0.375-6.84-0.52-12.4-3.88-18-7.62-2.16-1.02-4.32-2.02-6.5-3-3.37-1.52-6.42-2.95-9.5-5-0.825-0.33-1.65-0.66-2.5-1-2.5-1-2.5-1-5.5-3-1.33-0.682-2.66-1.35-4-2v-2c-1.64-0.186-1.64-0.186-3.31-0.375-3.69-0.625-3.69-0.625-6.69-2.62v-2c-1.14 0.0619-1.14 0.0619-2.31 0.125-2.69-0.125-2.69-0.125-5.69-2.12v-2c-1.32-0.66-2.64-1.32-4-2v-2h-6c-0.186-0.639-0.371-1.28-0.562-1.94-1.38-2.48-1.38-2.48-5.06-2.81-1.11-0.0825-2.23-0.165-3.38-0.25-0.33-0.99-0.66-1.98-1-3-2-1.21-2-1.21-4-2v-2c-1.32-0.66-2.64-1.32-4-2v-2h-6c-0.247-0.619-0.495-1.24-0.75-1.88-1.46-2.48-2.63-3.08-5.25-4.12v-2h-2c-0.66-1.32-1.32-2.64-2-4-1.42 0.0619-1.42 0.0619-2.88 0.125-3.97-0.159-4.42-1.42-7.12-4.12-0.743-0.722-1.48-1.44-2.25-2.19-2-2.04-3.81-4.06-5.62-6.25-2.58-3.06-5.39-5.55-8.47-8.1-2.51-2.23-4.5-4.89-6.65-7.46-1.15-1.02-2.32-2.02-3.5-3-3.26-2.7-5.79-5.74-8.5-9-1.15-1.02-2.32-2.02-3.5-3-3.3-2.73-5.81-5.67-8.5-9-0.866-0.825-1.73-1.65-2.62-2.5-2.55-2.68-3.79-5.18-5.38-8.5-2.63-3.68-5.45-6.23-9-9-4.92-4.15-4.92-4.15-5.31-8.31 0.103-0.887 0.206-1.77 0.312-2.69-0.99-0.33-1.98-0.66-3-1-2.91-3.06-4.7-5.02-5.94-9.06-1.13-3.12-1.64-3.58-4.19-5.44-2.88-2.5-2.88-2.5-3.25-5.81 0.124-0.887 0.248-1.77 0.375-2.69-0.99-0.33-1.98-0.66-3-1-0.667-1.33-1.33-2.67-2-4-0.99-0.33-1.98-0.66-3-1-0.717-1.98-1.38-3.98-2-6-0.66-0.66-1.32-1.32-2-2l-0.938-3.5c-0.73-3.74-0.73-3.74-4.06-5.5v-2c-0.99-0.33-1.98-0.66-3-1-0.0374-0.699-0.0748-1.4-0.113-2.12l-0.199-2.76-0.176-2.74c-0.3-2.75-0.3-2.75-3.51-4.38l-0.438-3.5c-0.186-1.16-0.371-2.31-0.562-3.5-1.94-1.51-1.94-1.51-4-2v-2c-0.99-0.33-1.98-0.66-3-1-0.049-0.71-0.098-1.42-0.148-2.15-0.0748-0.919-0.15-1.84-0.227-2.79l-0.211-2.78c-0.137-0.754-0.273-1.51-0.414-2.29-0.66-0.33-1.32-0.66-2-1l-0.938-3.44c-0.719-3.79-0.719-3.79-4.06-5.56-0.477-2.06-0.477-2.06-0.625-4.44-0.195-2.82-0.469-4.84-1.38-7.56h-2c-0.0374-0.699-0.0748-1.4-0.113-2.12l-0.199-2.76-0.176-2.74c-0.3-2.75-0.3-2.75-3.51-4.38-0.453-2.58-0.503-5.07-0.594-7.69l-0.406-2.31-3-2c-0.384-2.61-0.603-5.01-0.688-7.62-0.0342-0.706-0.0683-1.41-0.104-2.14-0.0825-1.74-0.147-3.49-0.209-5.23-0.99-0.33-1.98-0.66-3-1l-1-15c-0.99-0.33-1.98-0.66-3-1-0.33-6.27-0.66-12.5-1-19-0.99-0.33-1.98-0.66-3-1-0.33-8.91-0.66-17.8-1-27-0.99-0.33-1.98-0.66-3-1v-85c1.32-0.66 2.64-1.32 4-2v-26c1.32-0.66 2.64-1.32 4-2v-22c1.32-0.66 2.64-1.32 4-2v-14c1.32-0.66 2.64-1.32 4-2v-10c1.32-0.66 2.64-1.32 4-2v-10c1.32-0.66 2.64-1.32 4-2v-10c1.32-0.66 2.64-1.32 4-2v-10c1.32-0.66 2.64-1.32 4-2v-6c1.32-0.66 2.64-1.32 4-2v-10l4-2v-6l4-2v-6l4-2v-6c0.619-0.247 1.24-0.495 1.88-0.75 2.48-1.46 3.08-2.63 4.12-5.25h2v-6l4-2-0.312-2.69c0.312-3.31 0.312-3.31 2.62-6.19 2.69-2.12 2.69-2.12 5.69-2.12v-7c1.32-0.66 2.64-1.32 4-2v-6c0.928-0.371 0.928-0.371 1.88-0.75 2.48-1.46 3.08-2.63 4.12-5.25h2c-0.0619-0.928-0.124-1.86-0.188-2.81 0.188-3.19 0.188-3.19 1.56-5.06 1.62-1.12 1.62-1.12 3.62-1.12 0.103-0.619 0.206-1.24 0.312-1.88 0.688-2.12 0.688-2.12 3.69-4.12h3c-0.0206-0.949-0.0412-1.9-0.0625-2.88 0.0625-3.12 0.0625-3.12 1.06-5.12h2c0.206-0.557 0.412-1.11 0.625-1.69 1.89-3.17 4.53-5 7.38-7.31 0.66-0.99 1.32-1.98 2-3h2l2-4h2c0.66-1.32 1.32-2.64 2-4h2c0.289-0.639 0.578-1.28 0.875-1.94 1.12-2.06 1.12-2.06 3.12-3.06 0.705-2.32 1.37-4.66 2-7 1-1 1-1 4.06-1.06 0.969 0.0206 1.94 0.0412 2.94 0.0625 0.34-0.866 0.34-0.866 0.688-1.75 1.64-2.82 3.75-4.26 6.31-6.25 0.99-1.49 0.99-1.49 2-3h2c0.371-0.866 0.371-0.866 0.75-1.75 1.43-2.58 3.03-4.31 5.25-6.25h2c0.371-0.866 0.371-0.866 0.75-1.75 1.43-2.58 3.03-4.31 5.25-6.25h2c0.34-0.835 0.34-0.835 0.688-1.69 1.72-3.02 3.68-5.05 6.31-7.31 2.62-0.625 2.62-0.625 5-1 1.67-1.5 1.67-1.5 3-3h2c0.34-0.866 0.34-0.866 0.688-1.75 1.7-2.91 3.49-4.41 6.31-6.25 2.81-0.25 2.81-0.25 5 0 0.99-1.98 0.99-1.98 2-4h2c0.99-1.98 0.99-1.98 2-4h6c0.99-1.98 0.99-1.98 2-4h2c0.99-1.98 0.99-1.98 2-4h6c0.66-1.32 1.32-2.64 2-4h6c0.34-0.866 0.34-0.866 0.688-1.75 1.69-2.9 3.54-4.38 6.31-6.25 1.66-0.356 3.33-0.692 5-1 1.02-0.979 2.02-1.98 3-3 2.31-1.06 2.31-1.06 5-2 1.05-0.371 2.1-0.743 3.19-1.12 2.81-0.875 2.81-0.875 4.81-0.875 0.206-0.639 0.413-1.28 0.625-1.94 0.454-0.681 0.908-1.36 1.38-2.06 1.99-0.381 3.99-0.713 6-1l1.56-1.56c1.44-1.44 1.44-1.44 4.12-1.62 1.14 0.0928 1.14 0.0928 2.31 0.188 0.66-1.32 1.32-2.64 2-4h10c0.66-1.32 1.32-2.64 2-4h6c0.66-1.32 1.32-2.64 2-4h14c0.66-1.32 1.32-2.64 2-4h6c0.66-1.32 1.32-2.64 2-4h14c0.66-1.32 1.32-2.64 2-4h14c0.66-1.32 1.32-2.64 2-4h18c0.66-1.32 1.32-2.64 2-4h34c0.66-1.32 1.32-2.64 2-4zm-158 47 1 2zm-68 44 1 2zm-12 8 1 2zm-8 8 1 2zm-8 8 1 2zm-8 8 1 2zm-16 16 1 2zm-4 4 1 2zm-4 4 1 2zm-12 12 1 2zm314 5c-0.66 1.32-1.32 2.64-2 4-0.664-0.0116-1.33-0.0232-2.01-0.0352-6.58-0.185-6.58-0.185-13 1.04-0.33 0.66-0.66 1.32-1 2-1.73 0.464-1.73 0.464-3.5 0.938-1.15 0.351-2.31 0.701-3.5 1.06-0.33 0.99-0.66 1.98-1 3-1.11 0.103-2.23 0.206-3.38 0.312-1.2 0.227-2.39 0.454-3.62 0.688-0.66 0.99-1.32 1.98-2 3-0.908 0.0825-1.82 0.165-2.75 0.25-3.68 0.849-4.01 1.38-6.19 4.25-2.41 3.13-2.82 3.44-6.94 4.44l-3.12 0.0625c-0.495 1.48-0.495 1.48-1 3-0.99 0.495-0.99 0.495-2 1v3h-4c-0.268 0.598-0.536 1.2-0.812 1.81-1.18 2.17-2.46 3.46-4.19 5.19v2c-1.98 0.495-1.98 0.495-4 1 0.124 1.11 0.124 1.11 0.25 2.25-0.323 3.55-1.68 4.42-4.25 6.75v2c-1.98 0.495-1.98 0.495-4 1v6c-1.49 0.495-1.49 0.495-3 1-0.33 0.99-0.66 1.98-1 3-2.06 1.19-2.06 1.19-4 2-0.0206 1.28-0.0412 2.56-0.0625 3.88-0.0116 0.719-0.0232 1.44-0.0352 2.18-0.0288 2.03-0.0288 2.03 1.1 3.95-0.959 0.217-0.959 0.217-1.94 0.438-2.04 0.373-2.04 0.373-3.06 1.56-0.0723 1.85-0.0838 3.71-0.0625 5.56 0.00902 1.01 0.018 2.02 0.0273 3.07 0.0116 0.782 0.0232 1.56 0.0352 2.37h-3c-1.09 4.39-1.15 8.69-1.12 13.2-0.00387 0.724-0.00773 1.45-0.0117 2.19-0.0678 3.94-0.0678 3.94 1.14 7.62-0.639 0.124-1.28 0.247-1.94 0.375-1.02 0.309-1.02 0.309-2.06 0.625-1.11 2.21-1.2 3.55-1.25 6-0.0258 0.701-0.0516 1.4-0.0781 2.12 0.108 0.619 0.217 1.24 0.328 1.88 0.99 0.66 1.98 1.32 3 2 0.385 2.11 0.385 2.11 0.406 4.68 0.0219 0.927 0.0438 1.85 0.0664 2.81 0.0135 1.46 0.0135 1.46 0.0273 2.94 0.0179 1.92 0.0486 3.83 0.0938 5.75 0.00709 0.851 0.0142 1.7 0.0215 2.58 0.465 2.7 1.38 3.45 3.38 5.24 0.406 2.12 0.406 2.12 0.5 4.44 0.302 3.82 0.905 5.66 3.5 8.56 0.673 1.66 1.34 3.33 2 5 0.66 0.66 1.32 1.32 2 2 0.474 1.11 0.949 2.23 1.44 3.38 1.3 3.02 2.35 5.23 4.56 7.62 0.99 0.33 1.98 0.66 3 1-0.103 0.701-0.206 1.4-0.312 2.12 0.461 4.24 2.36 5.85 5.31 8.88h2c0.33 0.99 0.66 1.98 1 3 1.44 1.25 2.89 2.49 4.39 3.68 2.37 1.94 4.47 4.13 6.61 6.32 0.887 0.866 1.77 1.73 2.69 2.62 2.31 2.38 2.31 2.38 4.31 5.38 2.37 2.2 3.48 2.96 6.75 3.19 0.743-0.0619 1.49-0.124 2.25-0.188 0.33 0.99 0.66 1.98 1 3 2.31 0.33 4.62 0.66 7 1 0.33 0.99 0.66 1.98 1 3 1.8 0.947 1.8 0.947 3.94 1.56 2.79 0.897 3.94 1.32 6.06 3.44 2.21 0.243 2.21 0.243 4.62 0.125 0.817-0.018 1.63-0.0361 2.48-0.0547 0.626-0.0232 1.25-0.0464 1.9-0.0703 0.33 0.99 0.66 1.98 1 3 3.62 1.81 7.94 1.35 11.9 1.52 3.07 0.477 3.07 0.477 4.39 1.98 2.45 2.19 4.35 1.88 7.59 1.89 1.15 0.00387 2.31 0.00773 3.5 0.0117 1.21-0.0116 2.41-0.0232 3.65-0.0352 1.81 0.0174 1.81 0.0174 3.67 0.0352 1.15-0.00387 2.31-0.00773 3.49-0.0117 1.59-0.00508 1.59-0.00508 3.21-0.0103 0.847-0.128 1.69-0.256 2.57-0.388 0.66-0.99 1.32-1.98 2-3 1.88-0.432 1.88-0.432 4.13-0.512 0.806-0.0354 1.61-0.0709 2.44-0.107 0.842-0.0226 1.68-0.0451 2.55-0.0684 0.849-0.0342 1.7-0.0683 2.57-0.104 2.1-0.0826 4.2-0.147 6.3-0.209 0.33-0.99 0.66-1.98 1-3 3.63-0.33 7.26-0.66 11-1 0.33-0.99 0.66-1.98 1-3 1.09-0.103 2.19-0.206 3.31-0.312 3.87-0.721 4.23-1.01 6.69-3.69 3.19-1.19 3.19-1.19 6-2v-2c1.05-0.227 2.1-0.454 3.19-0.688 4.03-1.16 5.98-3.2 8.81-6.31 1.16-0.992 2.32-1.97 3.5-2.94 3.24-2.73 5.79-5.8 8.5-9.06 1.98-1.69 3.98-3.36 6-5 3.29-2.84 4.8-4.26 5.94-8.5 1.34-4.43 3.56-5.59 7.06-8.5 1.28-3.64 1.28-3.64 2-7 0.66-0.33 1.32-0.66 2-1 0.356-2.55 0.444-5.08 0.559-7.65l0.441-2.35c0.99-0.66 1.98-1.32 3-2 0.473-3.28 0.473-3.28 0.5-7 0.0938-3.81 0.0938-3.81 0.5-7 0.99-0.66 1.98-1.32 3-2 0.45-2.03 0.45-2.03 0.372-4.4 0.00623-0.911 0.0125-1.82 0.0189-2.76-0.00921-0.986-0.0184-1.97-0.0279-2.99 4.99e-4 -1.01 9.97e-4 -2.02 0.00151-3.06-0.00234-2.14-0.0121-4.28-0.0286-6.42-0.0236-3.28-0.0206-6.56-0.0139-9.84-0.00558-2.08-0.0127-4.15-0.0215-6.23 0.00137-1.48 0.00137-1.48 0.00276-2.98-0.00953-0.914-0.0191-1.83-0.0289-2.77-0.00461-0.804-0.00921-1.61-0.014-2.44-0.14-2.4-0.14-2.4-2.26-5.09h-2c0.0348-0.987 0.0696-1.97 0.105-2.99 0.0406-1.92 0.0406-1.92 0.082-3.88 0.0348-1.28 0.0696-2.55 0.105-3.87-0.145-1.61-0.145-1.61-0.293-3.26-0.99-0.66-1.98-1.32-3-2-0.694-2.33-1.36-4.66-2-7-0.66-0.33-1.32-0.66-2-1-0.402-1.33-0.402-1.33-0.812-2.69-1.46-4.07-3.21-6.19-6.19-9.31h-2c-0.33-2.31-0.66-4.62-1-7h-2c-0.33-0.99-0.66-1.98-1-3-2.73-2.55-5.58-4.93-8.43-7.33-2.75-2.86-3.58-4.88-4.57-8.67-1.07-1.3-1.07-1.3-3.56-1.06-0.804 0.0206-1.61 0.0412-2.44 0.0625-0.33-0.99-0.66-1.98-1-3-2.77-3.34-4.4-4.83-8.62-6-3.38-1-3.38-1-4.75-3.44-2.23-3.52-4.65-3.84-8.57-4.89-2.06-0.676-2.06-0.676-4.06-2.68-2.58-0.618-5.17-1.02-7.79-1.44-0.731-0.186-1.46-0.371-2.21-0.562-0.33-0.66-0.66-1.32-1-2-3.59-0.359-7.17-0.445-10.8-0.559-1.06-0.146-2.13-0.291-3.22-0.441-0.99-1.48-0.99-1.48-2-3-1.85-0.436-1.85-0.436-3.99-0.341-1.23 3.4e-4 -1.23 3.4e-4 -2.49 6.87e-4 -0.887 0.0155-1.77 0.031-2.69 0.0469-1.36 0.00637-1.36 0.00637-2.75 0.0129-2.9 0.0168-5.81 0.0545-8.71 0.0926-1.97 0.015-3.93 0.0287-5.9 0.041-4.83 0.0331-9.65 0.0849-14.5 0.146zm-322 7c-0.33 0.66-0.66 1.32-1 2h2c-0.33-0.66-0.66-1.32-1-2zm-24 36 1 2zm464 6 1 3zm-4 142 1 2zm-8 8 1 2zm-8 8 1 2zm-8 8 1 2zm-127 5 4 1zm-103 80c-0.278 0.65-0.556 1.3-0.842 1.97-0.382 0.67-0.764 1.34-1.16 2.03-2.53 0.504-2.53 0.504-5.5 0.562-2.91 0.00415-2.91 0.00415-5.5 0.438l-2 3c-0.99 0.33-1.98 0.66-3 1v3c-1.98 0.99-1.98 0.99-4 2v2h-3c-0.33 1.65-0.66 3.3-1 5h-3c-2.85 1.93-2.85 1.93-5 5-0.267 2.02-0.267 2.02-0.125 4.12 0.125 3.88 0.125 3.88-1.31 5.5-0.773 0.681-0.773 0.681-1.56 1.38-1.46 5.3-2.53 13.9 0 19-1.98 0.495-1.98 0.495-4 1-0.874 1.74-0.874 1.74-1 4 0.639 0.784 1.28 1.57 1.94 2.38 2.47 3.15 2.43 4.73 2.06 8.62l-3 1c-1.6 3.71-1.22 8.02-1.25 12l-0.0625 2.16c-0.101 4.17-0.101 4.17 1.81 7.72 1.95 2.76 1.89 4.52 1.91 7.88 0.0219 1.1 0.0438 2.2 0.0664 3.34 0.0183 2.32 0.0365 4.64 0.0547 6.95 0.0219 1.1 0.0438 2.2 0.0664 3.33 0.00709 1.01 0.0142 2.01 0.0215 3.05 0.444 2.97 1.16 3.67 3.38 5.57 0.625 2.34 0.625 2.34 1 4.94 0.57 3.94 1.56 5.95 4 9.06 0.688 3.25 0.688 3.25 1 6h3c-0.103 0.701-0.206 1.4-0.312 2.12 0.449 4.13 2.46 5.96 5.31 8.88 0.99 0.33 1.98 0.66 3 1 0.0726 0.885 0.145 1.77 0.22 2.68 0.945 4.02 2.36 5.53 5.26 8.43 1.38 1.38 1.38 1.38 2.78 2.79 0.481 0.469 0.962 0.937 1.46 1.42 1.46 1.43 2.9 2.88 4.34 4.34 4.58 4.53 7.72 7.46 13.9 9.35 2.71 2.48 5.08 5.15 7.54 7.88 2.28 2.37 2.28 2.37 5.27 2.42 0.723-0.101 1.45-0.201 2.19-0.305 0.33 0.99 0.66 1.98 1 3 2.31 0.33 4.62 0.66 7 1v2c0.626 0.254 1.25 0.508 1.9 0.77 0.817 0.344 1.63 0.688 2.48 1.04 0.812 0.336 1.62 0.673 2.46 1.02 2.16 1.17 2.16 1.17 4.16 4.17 1.65-0.33 3.3-0.66 5-1 0.33 0.66 0.66 1.32 1 2 2.95 2.37 2.95 2.37 7 2v2c3.23 2.15 4.28 2.2 8 2 0.33 0.99 0.66 1.98 1 3 2.41 1.2 3.95 1.1 6.62 1.06 0.817-0.00902 1.63-0.018 2.48-0.0273 0.626-0.0116 1.25-0.0232 1.9-0.0352 0.33 0.99 0.66 1.98 1 3 2.41 1.2 3.95 1.1 6.62 1.06 0.817-0.00902 1.63-0.018 2.48-0.0273 0.626-0.0116 1.25-0.0232 1.9-0.0352 0.33 0.99 0.66 1.98 1 3 3.76 1.88 8.61 1.33 12.8 1.43 5.91 0.244 5.91 0.244 7.6 2.07 2.34 2.17 4.12 1.88 7.26 1.9 1.66 0.0329 1.66 0.0329 3.35 0.0664 1.15 0.00902 2.31 0.018 3.5 0.0273 2.28 0.0178 4.56 0.0485 6.84 0.0938 1.52 0.0106 1.52 0.0106 3.07 0.0215 2.59 0.385 2.59 0.385 3.97 1.88 2.13 1.97 3.29 1.88 6.15 1.89 1.37 0.0142 1.37 0.0142 2.77 0.0287 0.984-0.00607 1.97-0.0121 2.98-0.0184 1.01 0.00287 2.02 0.00574 3.07 0.0087 2.14 0.00204 4.28-0.0035 6.42-0.016 3.28-0.0161 6.57-1.46e-4 9.85 0.019 2.08-0.00198 4.15-0.00583 6.23-0.0117 0.986 0.00607 1.97 0.0121 2.99 0.0184 0.911-0.00946 1.82-0.0189 2.76-0.0287 0.804-0.00239 1.61-0.00477 2.44-0.00723 0.649-0.126 1.3-0.251 1.97-0.381 0.66-0.99 1.32-1.98 2-3 2.55-0.325 2.55-0.325 5.74-0.258 1.15 0.0142 2.3 0.0284 3.48 0.043 1.21 0.0296 2.41 0.0593 3.65 0.0898 2.37 0.0434 4.74 0.0826 7.12 0.117 1.06 0.0243 2.11 0.0487 3.2 0.0737 2.52-0.0592 4.47-0.145 6.81-1.07 0.66-0.99 1.32-1.98 2-3 2.58-0.453 5.07-0.503 7.69-0.594 1.14-0.201 1.14-0.201 2.31-0.406 0.66-0.99 1.32-1.98 2-3 3.61-0.461 7.17-0.504 10.8-0.594 1.58-0.201 1.58-0.201 3.19-0.406 0.66-0.99 1.32-1.98 2-3 3.12-1.19 3.12-1.19 6-2v-2c0.843-0.0374 1.69-0.0748 2.55-0.113 1.1-0.0657 2.19-0.131 3.32-0.199 1.64-0.087 1.64-0.087 3.3-0.176 0.931-0.169 1.86-0.338 2.82-0.512 0.66-0.99 1.32-1.98 2-3 1.98-0.724 3.99-1.38 6-2 3.03-1.28 6.01-2.63 9-4v-2c3.47-0.99 3.47-0.99 7-2v-2c1.79-0.0309 1.79-0.0309 3.62-0.0625 2.75-0.315 4.01-0.59 6.03-2.53 0.981-1.28 1.95-2.56 2.91-3.85 2.1-2.3 4.42-2.06 7.43-2.56 1.74-1.65 3.16-3.4 4.61-5.31 1.39-1.69 1.39-1.69 4.39-3.69v-2l3.19-0.125c5.04-1.16 5.78-2.84 8.81-6.88 0.99-0.33 1.98-0.66 3-1l0.0625-3.12c1.25-5.19 3.8-6.79 7.94-9.88 3.03-2.54 3.88-3.54 4.88-7.44 1.12-3.56 1.12-3.56 4.19-5.88 3.33-3.04 3.34-3.61 3.62-7.88 0.00387-0.86 0.00773-1.72 0.0117-2.61 0.0993-0.728 0.199-1.46 0.301-2.21l3-2c0.47-2.36 0.47-2.36 0.5-5 0.0938-2.69 0.0938-2.69 0.5-5l3-2c0.303-2.53 0.41-4.81 0.388-7.34 0.00526-0.756 0.0105-1.51 0.0159-2.29 0.0132-2.51 0.00445-5.01-0.00568-7.52 0.00202-1.74 0.00493-3.48 0.0087-5.22 0.00443-3.65-0.00202-7.3-0.016-10.9-0.0171-4.68-0.00726-9.36 0.0107-14 0.0108-3.59 0.00739-7.18-3.83e-4 -10.8-2e-3 -1.73 4.62e-4 -3.45 0.00744-5.18 0.00761-2.41-0.00398-4.82-0.0207-7.23 0.00911-1.07 0.00911-1.07 0.0184-2.17-0.0178-3.87-0.0178-3.87-1.91-7.13-0.495-0.385-0.991-0.771-1.5-1.17-0.434-2.3-0.5-4.5-0.594-6.84-0.499-2.65-1.48-3.35-3.41-5.16-0.744-2.31-1.42-4.64-2-7h-2c-0.33-0.99-0.66-1.98-1-3-1.69-1.68-1.69-1.68-3.75-3.31-2.65-2.21-4.71-4.21-6.62-7.06-3.41-3.41-5.74-3.3-10.4-3.32-1.09-0.149-1.09-0.149-2.21-0.301-0.66-0.99-1.32-1.98-2-3-2.43-0.452-2.43-0.452-5.32-0.369-1.14-0.00597-2.27-0.0119-3.44-0.0181-1.89 0.0131-1.89 0.0131-3.81 0.0265-1.34-0.00131-2.68-0.00393-4.03-0.00777-3.7-0.00673-7.4 0.00533-11.1 0.0203-3.99 0.0129-7.97 0.00857-12 0.00629-6.91-0.00158-13.8 0.00786-20.7 0.0247-9.99 0.0243-20 0.0322-30 0.036-16.2 0.00657-32.4 0.0266-48.6 0.0549-15.7 0.0275-31.5 0.0488-47.2 0.0615-0.97 7.88e-4 -1.94 0.00158-2.94 0.00239-4.87 0.00392-9.73 0.00771-14.6 0.0114-40.4 0.0311-80.8 0.084-121 0.151zm354 21 1 2zm-24 154 1 2zm-40 28 1 2zm-16 8 1 2zm-20 8 1 2z" fill="#FCFCFC"/>
<path transform="translate(228 1199)" d="m0 0c0.948-0.00384 1.9-0.00768 2.87-0.0116 1.04 8.66e-4 2.09 0.00173 3.16 0.00263 1.11-0.00297 2.21-0.00594 3.35-9e-3 3.73-0.00871 7.46-0.0102 11.2-0.0117 2.67-0.00463 5.33-0.00963 8-0.015 7.25-0.0136 14.5-0.0196 21.8-0.024 4.53-0.00276 9.05-7e-3 13.6-0.0115 12.5-0.0122 25.1-0.0225 37.6-0.0259 1.2-3.29e-4 1.2-3.29e-4 2.43-6.65e-4 1.21-3.27e-4 1.21-3.27e-4 2.44-6.61e-4 1.63-4.43e-4 3.26-8.9e-4 4.89-0.00134 0.808-2.21e-4 1.62-4.43e-4 2.45-6.71e-4 13.1-0.00395 26.2-0.0214 39.3-0.0447 13.4-0.0237 26.9-0.0362 40.3-0.0373 7.55-9.18e-4 15.1-0.0067 22.7-0.0248 6.43-0.0154 12.9-0.0205 19.3-0.0123 3.28 0.00392 6.56 0.0013 9.84-0.0111 3.55-0.0126 7.1-0.00691 10.7 0.00358 1.04-0.00806 2.09-0.0161 3.16-0.0244 0.948 0.00659 1.9 0.0132 2.87 0.02 1.23-8.96e-4 1.23-8.96e-4 2.49-0.00181 2.6 0.462 3.38 1.45 5.11 3.37 2.08 0.316 2.08 0.316 4.31 0.25 2.86 0.208 4.23 0.326 6.36 2.29 0.968 1.26 1.92 2.54 2.86 3.82 2.28 2.55 5.23 2.77 8.46 3.63 1.65 1.44 3.06 3 4.53 4.62 1.54 1.64 1.54 1.64 4.53 2.38 2.94 1 2.94 1 5.38 4 3.07 3.59 5.11 3.79 9.56 5 1.33 1.67 2.67 3.33 4 5 2.31 0.744 4.64 1.42 7 2 0.33 0.66 0.66 1.32 1 2 0.99 0.66 1.98 1.32 3 2 0.33 0.99 0.66 1.98 1 3 2 1.21 2 1.21 4 2 0.0694 9.74 0.123 19.5 0.155 29.2 0.0157 4.52 0.037 9.05 0.0709 13.6 0.0325 4.36 0.0505 8.73 0.0583 13.1 0.00556 1.67 0.0164 3.33 0.0326 5 0.0217 2.33 0.0248 4.66 0.0234 6.99 0.0162 1.04 0.0162 1.04 0.0327 2.1-0.0125 1.92-0.0125 1.92-0.373 5.01-1.49 0.99-1.49 0.99-3 2-0.582 2.43-0.582 2.43-0.688 5.12-0.0986 1.37-0.0986 1.37-0.199 2.76-0.0374 0.699-0.0748 1.4-0.113 2.12-0.99 0.33-1.98 0.66-3 1-0.33 2.31-0.66 4.62-1 7-0.99 0.33-1.98 0.66-3 1-0.33 2.31-0.66 4.62-1 7-0.99 0.33-1.98 0.66-3 1-0.33 0.99-0.66 1.98-1 3-0.66 0.33-1.32 0.66-2 1-0.309 0.66-0.619 1.32-0.938 2-1.06 2-1.06 2-4.06 3 0.0799 0.75 0.16 1.5 0.242 2.27-0.242 2.73-0.242 2.73-1.92 4.64-0.724 0.565-1.45 1.13-2.2 1.71-2.65 2.1-4.22 3.52-6.12 6.38h-2c-0.33 0.99-0.66 1.98-1 3h-3c-0.0825 0.577-0.165 1.15-0.25 1.75-1.01 3.04-2.2 4.3-4.75 6.25-3.75 0.75-3.75 0.75-7 1-0.33 1.32-0.66 2.64-1 4h-3c-0.33 0.99-0.66 1.98-1 3-2.64 0.33-5.28 0.66-8 1-0.0825 0.577-0.165 1.15-0.25 1.75-1 3.01-2.26 4.3-4.75 6.25-1.99 0.366-3.99 0.701-6 1-1.02 0.979-2.02 1.98-3 3-1.66 0.356-3.33 0.692-5 1-0.33 0.66-0.66 1.32-1 2-2.55 0.356-5.08 0.444-7.65 0.559-0.775 0.146-1.55 0.291-2.35 0.441-0.66 0.99-1.32 1.98-2 3-3.63 0.688-3.63 0.688-7 1v3c-0.771 0.0374-1.54 0.0748-2.34 0.113-1.5 0.0986-1.5 0.0986-3.04 0.199-1.5 0.087-1.5 0.087-3.02 0.176-0.859 0.169-1.72 0.338-2.6 0.512-0.66 0.99-1.32 1.98-2 3-3.61 0.461-7.17 0.504-10.8 0.594-1.58 0.201-1.58 0.201-3.19 0.406-0.66 0.99-1.32 1.98-2 3-1.85 0.385-1.85 0.385-4.06 0.406-0.797 0.0219-1.59 0.0438-2.41 0.0664-1.68 0.0182-3.36 0.0365-5.05 0.0547-1.19 0.0329-1.19 0.0329-2.41 0.0664-1.1 0.0106-1.1 0.0106-2.21 0.0215-2.26 0.246-2.26 0.246-3.85 3.38-2.58 0.385-2.58 0.385-5.81 0.406-1.16 0.0219-2.32 0.0438-3.51 0.0664-2.45 0.0182-4.91 0.0365-7.36 0.0547-1.16 0.0219-2.32 0.0438-3.51 0.0664-1.07 0.00709-2.13 0.0142-3.23 0.0215-0.852 0.127-1.7 0.254-2.58 0.385-0.66 0.99-1.32 1.98-2 3-1.87 0.361-1.87 0.361-4.17 0.341-0.861-2.27e-4 -1.72-4.53e-4 -2.61-6.87e-4 -0.93-0.0155-1.86-0.031-2.82-0.0469-0.952-0.00424-1.9-0.00849-2.88-0.0129-3.05-0.0168-6.09-0.0545-9.14-0.0926-2.06-0.015-4.12-0.0287-6.19-0.041-5.06-0.0331-10.1-0.0849-15.2-0.146-0.66-1.32-1.32-2.64-2-4h-26c-0.66-1.32-1.32-2.64-2-4h-14c-0.66-1.32-1.32-2.64-2-4h-14c-0.66-1.32-1.32-2.64-2-4h-10c-0.66-1.32-1.32-2.64-2-4h-6c-0.66-1.32-1.32-2.64-2-4h-6c-0.66-1.32-1.32-2.64-2-4h-6c-0.66-1.32-1.32-2.64-2-4-0.928 0.0619-1.86 0.124-2.81 0.188-3.69-0.217-3.83-0.632-6.19-3.19-1.03-0.33-2.06-0.66-3.12-1-0.949-0.33-1.9-0.66-2.88-1-0.33-0.99-0.66-1.98-1-3-2-1.21-2-1.21-4-2v-2h-2c-0.99-1.98-0.99-1.98-2-4-0.907 0.103-1.81 0.206-2.75 0.312-3.25-0.312-3.25-0.312-5.5-2.75-0.577-0.846-1.16-1.69-1.75-2.56-0.66-0.33-1.32-0.66-2-1v-2c-0.99-0.33-1.98-0.66-3-1-1.36-1.42-1.36-1.42-2.75-3.19-2.69-3.29-5.6-5.92-8.93-8.55-0.436-0.416-0.871-0.833-1.32-1.26v-2c-0.99-0.33-1.98-0.66-3-1-0.0206-0.866-0.0412-1.73-0.0625-2.62-1.17-4.22-2.94-5.26-6.29-7.86-2.35-2.16-2.89-4.48-3.65-7.52-0.66-0.66-1.32-1.32-2-2-0.33-1.18-0.66-2.35-1-3.56-0.495-1.7-0.495-1.7-1-3.44-0.66-0.33-1.32-0.66-2-1-0.356-2.55-0.444-5.08-0.559-7.65-0.146-0.775-0.291-1.55-0.441-2.35-0.99-0.66-1.98-1.32-3-2-0.286-2.63-0.378-5.03-0.341-7.66-4.38e-4 -0.79-8.76e-4 -1.58-0.00133-2.39 0.00209-2.62 0.0255-5.24 0.0489-7.86 0.00559-1.81 0.00986-3.63 0.0129-5.44 0.0115-4.78 0.0409-9.55 0.0741-14.3 0.0307-4.87 0.0444-9.75 0.0595-14.6 0.0322-9.57 0.0834-19.1 0.146-28.7 1.32-0.66 2.64-1.32 4-2v-6c1.32-0.66 2.64-1.32 4-2v-6c0.619-0.247 1.24-0.495 1.88-0.75 2.48-1.46 3.08-2.63 4.12-5.25h2c0.66-1.32 1.32-2.64 2-4h2c0.309-0.959 0.309-0.959 0.625-1.94 1.38-2.06 1.38-2.06 4.44-2.69 0.969-0.124 1.94-0.247 2.94-0.375 0.33-0.66 0.66-1.32 1-2 2.79-0.93 4.77-1.19 7.67-1.32 0.893-0.0419 1.79-0.0838 2.71-0.127 0.929-0.0393 1.86-0.0786 2.81-0.119 0.94-0.0432 1.88-0.0864 2.85-0.131 2.32-0.106 4.64-0.208 6.96-0.307 0.33-0.66 0.66-1.32 1-2 2.86-0.953 4.63-1.13 7.59-1.13zm-52.6 133 1 2z" fill="#FCFCFC"/>
<path transform="translate(1209,167)" d="m0 0c6.35-0.076 12.7-0.129 19.1-0.165 2.16-0.0151 4.32-0.0356 6.49-0.0615 3.11-0.0363 6.21-0.0534 9.32-0.0667 0.969-0.0155 1.94-0.031 2.94-0.0469 1.35-3.4e-4 1.35-3.4e-4 2.73-6.87e-4 0.793-0.00666 1.59-0.0133 2.4-0.0202 2.59 0.452 3.32 1.47 5.07 3.36 3.09 0.724 3.09 0.724 6.5 1.06 6.19 0.732 6.19 0.732 9.5 2.94 1.01 0.33 2.02 0.66 3.06 1 2.94 1 2.94 1 4.94 3 0.99 0.33 1.98 0.66 3 1 3 1 3 1 5 3 0.887 0.227 1.77 0.454 2.69 0.688 5.15 2.04 8.19 6 11.9 10 1.42 1.52 1.42 1.52 3.82 1.68 3.66 0.871 5.23 2.82 7.62 5.62v2c0.639 0.227 1.28 0.454 1.94 0.688 0.681 0.433 1.36 0.866 2.06 1.31 0.342 1.67 0.674 3.33 1 5 2 1.69 2 1.69 4 3v2c0.66 0.33 1.32 0.66 2 1 1.06 1.07 2.07 2.18 3.06 3.31 0.527 0.594 1.05 1.19 1.6 1.8 1.42 2 1.83 3.51 2.34 5.89 0.454 0.598 0.908 1.2 1.38 1.81 3.03 4.08 4.65 8.28 5.06 13.3 0.218 3.92 0.218 3.92 2.69 6.38 2.15 2.87 2.07 3.42 1.62 6.81-0.371 1.83-0.371 1.83-0.75 3.69 0.99 0.33 1.98 0.66 3 1 1.78 2.74 2.24 4.86 2.18 8.09-0.0105 0.794-0.021 1.59-0.0318 2.41-0.0228 0.848-0.0456 1.7-0.069 2.57-0.0179 0.877-0.0358 1.75-0.0543 2.66-0.0411 1.85-0.0877 3.7-0.139 5.55-0.0758 2.84-0.125 5.68-0.172 8.52-0.0433 1.8-0.0882 3.6-0.135 5.39-0.0127 0.852-0.0253 1.7-0.0384 2.58-0.0795 2.39-0.0795 2.39-0.544 6.22-0.99 0.66-1.98 1.32-3 2-0.384 2.61-0.603 5.01-0.688 7.62-0.0342 0.706-0.0683 1.41-0.104 2.14-0.0825 1.74-0.147 3.49-0.209 5.23-0.99 0.33-1.98 0.66-3 1v6c-1.98 0.99-1.98 0.99-4 2v6c-0.639 0.186-1.28 0.371-1.94 0.562-0.681 0.474-1.36 0.949-2.06 1.44-0.165 1.15-0.33 2.31-0.5 3.5-0.165 1.15-0.33 2.31-0.5 3.5-2 1.31-2 1.31-4 2-0.33 0.66-0.66 1.32-1 2h-2c0.144 0.866 0.289 1.73 0.438 2.62-0.497 3.83-0.911 4.16-3.75 6.5-0.639 0.49-1.28 0.98-1.94 1.48-1.97 1.57-3.27 3.37-4.75 5.39h-2c-0.33 0.99-0.66 1.98-1 3h-3c-0.0825 0.578-0.165 1.15-0.25 1.75-1.03 3.08-2.13 4.3-4.75 6.25-2.7 0.625-5.21 0.814-8 1-0.33 1.32-0.66 2.64-1 4h-2c-0.33 0.99-0.66 1.98-1 3-2.31 0.33-4.62 0.66-7 1-0.33 0.99-0.66 1.98-1 3-1.05 0.0561-1.05 0.0561-2.12 0.113-1.37 0.0986-1.37 0.0986-2.76 0.199-0.905 0.058-1.81 0.116-2.74 0.176-2.75 0.3-2.75 0.3-4.38 3.51-2.58 0.453-5.07 0.503-7.69 0.594-1.14 0.201-1.14 0.201-2.31 0.406-0.66 0.99-1.32 1.98-2 3-2.33 0.361-2.33 0.361-5.28 0.341-1.65-3.4e-4 -1.65-3.4e-4 -3.34-6.87e-4 -1.19-0.0155-2.39-0.031-3.61-0.0469-1.22-0.00424-2.44-0.00849-3.69-0.0129-3.9-0.0168-7.81-0.0545-11.7-0.0926-2.64-0.015-5.28-0.0287-7.92-0.041-6.48-0.0331-13-0.0834-19.5-0.146-0.66-1.32-1.32-2.64-2-4-0.603 0.0348-1.21 0.0696-1.83 0.105-0.799 0.0271-1.6 0.0541-2.42 0.082-0.789 0.0348-1.58 0.0696-2.39 0.105-2.91-0.362-4.06-1.52-6.36-3.29-2.57-0.778-2.57-0.778-5.25-1.19-0.892-0.159-1.78-0.317-2.7-0.48-0.675-0.11-1.35-0.219-2.05-0.332-0.33-0.99-0.66-1.98-1-3h-6c-0.247-0.619-0.495-1.24-0.75-1.88-1.51-2.57-2.61-2.84-5.25-4.12-0.804-0.846-1.61-1.69-2.44-2.56-2.29-2.61-2.29-2.61-5.06-2.94-3.64-0.728-5.13-2.74-7.5-5.5-0.33-0.99-0.66-1.98-1-3-1.32-0.702-2.65-1.37-4-2-2.83-1.96-3.29-3.89-4-7.12-0.124-0.704-0.247-1.41-0.375-2.13-0.206-0.575-0.412-1.15-0.625-1.74-0.99-0.33-1.98-0.66-3-1-3.52-2.54-3.88-5.97-5-10l-2-1c-0.68-2-1.34-4-2-6-0.994-1.67-1.99-3.34-3-5-0.333-1.33-0.667-2.67-1-4l-2-1c-0.414-2.5-0.414-2.5-0.625-5.56-0.112-1.52-0.112-1.52-0.227-3.07-0.049-0.782-0.098-1.56-0.148-2.37-0.99-0.33-1.98-0.66-3-1-0.0146-0.656-0.0292-1.31-0.0442-1.99-0.0743-2.96-0.171-5.92-0.268-8.89-0.0338-1.55-0.0338-1.55-0.0684-3.13-0.0354-0.986-0.0709-1.97-0.107-2.99-0.0262-0.911-0.0524-1.82-0.0793-2.76-0.143-0.741-0.285-1.48-0.432-2.25-0.99-0.66-1.98-1.32-3-2-0.293-2.16-0.293-2.16-0.188-4.62 0.0271-0.817 0.0541-1.63 0.082-2.48 0.0348-0.626 0.0696-1.25 0.105-1.9l4-2v-22l4-2v-10l4-2c0.407-2.32 0.744-4.66 1-7 0.99-0.495 0.99-0.495 2-1 0.33-1.16 0.66-2.31 1-3.5 0.33-1.16 0.66-2.31 1-3.5l2-1c0.309-1.16 0.619-2.31 0.938-3.5 0.351-1.16 0.701-2.31 1.06-3.5 1.48-0.495 1.48-0.495 3-1 0.268-0.577 0.536-1.16 0.812-1.75 1.4-2.66 3.28-4.06 5.61-5.9 2.52-2.16 4.49-4.78 6.58-7.35 2.69-2.88 2.69-2.88 5-5h2c0.227-0.577 0.454-1.16 0.688-1.75 1.7-2.91 3.49-4.41 6.31-6.25 2.81-0.25 2.81-0.25 5 0 0.66-1.32 1.32-2.64 2-4h2c0.66-1.32 1.32-2.64 2-4h6c0.66-1.32 1.32-2.64 2-4h10c0.66-1.32 1.32-2.64 2-4h10c0.66-1.32 1.32-2.64 2-4zm-82 157 1 3zm8 16 1 3zm8 12 1 2z" fill="#FCFCFC"/>
<path transform="translate(345,167)" d="m0 0c5.78-0.0741 11.6-0.129 17.4-0.165 1.97-0.0151 3.94-0.0356 5.9-0.0615 2.83-0.0363 5.65-0.0534 8.48-0.0667 0.881-0.0155 1.76-0.031 2.67-0.0469 0.821-2.27e-4 1.64-4.53e-4 2.49-6.87e-4 0.722-0.00666 1.44-0.0133 2.19-0.0202 2.46 0.463 3.22 1.58 4.92 3.36 3.09 0.469 3.09 0.469 6.5 0.5 6.14 0.166 6.14 0.166 8.12 2 0.454 0.495 0.908 0.99 1.38 1.5 2.18 0.464 2.18 0.464 4.5 0.5 4.14 0.165 4.14 0.165 6.11 1.98 0.46 0.501 0.92 1 1.39 1.52 1.39 0.402 1.39 0.402 2.81 0.812 3.66 1.37 5.15 3.05 7.73 5.86 1.98 1.8 3.84 2.03 6.45 2.32 0.33 0.66 0.66 1.32 1 2 0.99 0.66 1.98 1.32 3 2 2.14 1.92 4.15 3.97 6.19 6 0.559 0.547 1.12 1.09 1.69 1.66 1.41 1.41 2.77 2.87 4.12 4.34v2c0.99 0.33 1.98 0.66 3 1 0.699 1.32 1.37 2.65 2 4 0.66 0.33 1.32 0.66 2 1 1.04 1.64 2.04 3.31 3 5 0.66 0.99 1.32 1.98 2 3 0.33 0.99 0.66 1.98 1 3 0.639 0.268 1.28 0.536 1.94 0.812 3.01 1.73 3.12 3.96 4.06 7.19 0.66 0.66 1.32 1.32 2 2 0.309 2.02 0.309 2.02 0.438 4.38 0.349 3.93 1.14 5.52 3.56 8.62 0.576 2.22 0.998 4.42 1.38 6.68 0.485 2.4 0.485 2.4 2.16 4.26 2.25 4.69 1.72 9.14 1.54 14.3-0.0397 1.62-0.0397 1.62-0.0801 3.27-0.0876 3.44-0.197 6.89-0.307 10.3-0.0633 2.34-0.125 4.68-0.186 7.01-0.151 5.73-0.32 11.4-0.502 17.2-0.99 0.33-1.98 0.66-3 1-0.33 4.62-0.66 9.24-1 14-0.99 0.33-1.98 0.66-3 1-0.33 2.64-0.66 5.28-1 8h-3c0.0619 0.949 0.124 1.9 0.188 2.88-0.0619 1.03-0.124 2.06-0.188 3.12-0.99 0.66-1.98 1.32-3 2-0.33 0.99-0.66 1.98-1 3-0.639 0.248-1.28 0.495-1.94 0.75-2.48 1.2-2.48 1.2-3.31 4.88-0.248 1.11-0.495 2.23-0.75 3.38h-2c-0.33 0.99-0.66 1.98-1 3-2.44 2.69-2.44 2.69-5 5h-2c-0.33 0.99-0.66 1.98-1 3h-3c-0.155 0.959-0.155 0.959-0.312 1.94-0.227 0.681-0.454 1.36-0.688 2.06-0.99 0.33-1.98 0.66-3 1-0.33 0.99-0.66 1.98-1 3-1.59 1.54-1.59 1.54-3.5 3.06-2.68 2.11-2.68 2.11-4.5 4.94-2.32 0.407-4.66 0.744-7 1v3c-0.566 0.121-1.13 0.242-1.71 0.367-0.733 0.168-1.47 0.335-2.22 0.508l-2.21 0.492c-2.05 0.462-2.05 0.462-2.85 2.63-2.33 0.667-4.67 1.33-7 2-0.33 0.66-0.66 1.32-1 2-2.55 0.356-5.08 0.444-7.65 0.559-0.775 0.146-1.55 0.291-2.35 0.441-0.66 0.99-1.32 1.98-2 3-2.32 0.381-2.32 0.381-5.24 0.388-1.64 0.0142-1.64 0.0142-3.32 0.0287-1.19-0.00607-2.37-0.0121-3.6-0.0184-1.21 0.00287-2.43 0.00574-3.68 0.0087-2.57 0.00204-5.14-0.00351-7.71-0.016-3.94-0.016-7.89-1.63e-4 -11.8 0.019-2.49-0.00198-4.98-0.00583-7.47-0.0117-1.19 0.00607-2.37 0.0121-3.6 0.0184-1.09-0.00946-2.19-0.0189-3.32-0.0287-0.967-0.00239-1.93-0.00477-2.93-0.00723-0.764-0.126-1.53-0.251-2.32-0.381-0.66-0.99-1.32-1.98-2-3-3.62-0.421-7.17-0.44-10.8-0.496-1.05-0.166-2.1-0.333-3.19-0.504-1.44-2.04-1.44-2.04-2-4h-6l-2-4h-6l-2-4h-6c-0.268-0.639-0.536-1.28-0.812-1.94-1.07-2.39-1.07-2.39-4.19-3.06-4.77-4.32-4.77-4.32-6-8-0.99-0.33-1.98-0.66-3-1v-2h-2c-4.77-4.3-4.77-4.3-6-8-1.32-0.702-2.65-1.37-4-2-2.39-1.84-2.99-2.96-3.94-5.88-1.35-3.97-3.22-7.21-7.06-9.12-0.667-2.33-1.33-4.67-2-7-0.66-0.33-1.32-0.66-2-1-0.414-2.5-0.414-2.5-0.625-5.56-0.112-1.52-0.112-1.52-0.227-3.07-0.049-0.782-0.098-1.56-0.148-2.37-0.99-0.33-1.98-0.66-3-1-0.121-0.782-0.242-1.56-0.367-2.37-0.168-1.01-0.335-2.02-0.508-3.07-0.162-1.01-0.325-2.02-0.492-3.06-0.209-0.826-0.418-1.65-0.633-2.5-0.66-0.33-1.32-0.66-2-1v-49c1.98-0.99 1.98-0.99 4-2v-10l4-2v-10l4-2v-6c0.619-0.248 1.24-0.495 1.88-0.75 2.48-1.46 3.08-2.63 4.12-5.25h2c-0.144-0.866-0.289-1.73-0.438-2.62 0.499-3.85 0.957-4.2 3.81-6.56 0.626-0.468 1.25-0.936 1.9-1.42 1.99-1.46 1.99-1.46 3.73-4.39h2c0.227-0.557 0.454-1.11 0.688-1.69 1.69-2.97 3.78-5.03 6.31-7.31h2c0.66-1.32 1.32-2.64 2-4h6c0.33-1.32 0.66-2.64 1-4 1.32-0.33 2.64-0.66 4-1v-2c1.09-0.268 2.19-0.536 3.31-0.812 3.56-1.15 4.29-1.68 6.69-4.19 1.67-0.333 3.33-0.667 5-1 0.495-0.516 0.99-1.03 1.5-1.56 1.5-1.44 1.5-1.44 4.19-1.62 0.763 0.0619 1.53 0.124 2.31 0.188 0.33-0.99 0.66-1.98 1-3 3.29-1.1 5.74-1.1 9.19-1.06 1.63 0.0135 1.63 0.0135 3.29 0.0273 0.831 0.0116 1.66 0.0232 2.52 0.0352 0.66-1.32 1.32-2.64 2-4zm-62 35 1 2zm-8 8 1 2zm-20 98 1 4z" fill="#FCFCFC"/>
<path transform="translate(1177,467)" d="m0 0c28.6-0.0233 57.3-0.041 85.9-0.0518 13.3-0.00516 26.6-0.0122 39.9-0.0236 11.6-0.00995 23.2-0.0164 34.8-0.0186 6.14-0.00131 12.3-0.00439 18.4-0.0116 5.77-0.00677 11.5-0.00889 17.3-0.00738 2.12-2.76e-4 4.24-0.00228 6.37-0.0061 2.89-0.00495 5.78-0.00379 8.67-0.00105 0.847-0.00291 1.69-0.00583 2.57-0.00883 3.31 0.00852 5.99 0.0762 9.15 1.13 0.33 0.66 0.66 1.32 1 2 0.722 0.289 1.44 0.577 2.19 0.875 3.31 1.32 5.96 2.99 8.81 5.12 0.33 0.99 0.66 1.98 1 3 1.79 1.82 1.79 1.82 3.94 3.56 6.01 5.07 6.01 5.07 6.5 8.44 0.186 0.99 0.371 1.98 0.562 3 0.99 0.66 1.98 1.32 3 2 0.406 2.68 0.406 2.68 0.5 5.88-0.0279 4.31-0.0279 4.31 2 7.89 2.06 3.07 1.86 5.25 1.84 8.93 4.38e-4 0.664 8.76e-4 1.33 0.00133 2.01-0.00208 2.19-0.0254 4.37-0.0489 6.56-0.0056 1.52-0.00987 3.04-0.0129 4.56-0.0114 3.99-0.0409 7.98-0.0741 12-0.0307 4.08-0.0444 8.15-0.0595 12.2-0.0321 7.99-0.0833 16-0.146 24-0.99 0.33-1.98 0.66-3 1-0.33 4.62-0.66 9.24-1 14-0.99 0.33-1.98 0.66-3 1-0.217 1.42-0.217 1.42-0.438 2.88-0.562 3.12-0.562 3.12-1.56 5.12h-2c-0.33 2.31-0.66 4.62-1 7-0.99 0.33-1.98 0.66-3 1 0.103 0.887 0.206 1.77 0.312 2.69-0.312 3.31-0.312 3.31-2.62 6.19-2.69 2.12-2.69 2.12-5.69 2.12-0.33 1.32-0.66 2.64-1 4h-3c-0.155 0.959-0.155 0.959-0.312 1.94-0.227 0.681-0.454 1.36-0.688 2.06-0.99 0.33-1.98 0.66-3 1-1.21 2-1.21 2-2 4h-2c-0.66 1.32-1.32 2.64-2 4h-2c-0.33 0.99-0.66 1.98-1 3h-3c-0.66 1.65-1.32 3.3-2 5h-2c-0.155 0.959-0.155 0.959-0.312 1.94-0.227 0.681-0.454 1.36-0.688 2.06-0.99 0.33-1.98 0.66-3 1-0.33 0.66-0.66 1.32-1 2-2.33 0.667-4.67 1.33-7 2-0.33 0.66-0.66 1.32-1 2-2.32 0.407-4.66 0.744-7 1-0.33 0.99-0.66 1.98-1 3h-3v4c-4.29 0.33-8.58 0.66-13 1v3c-1.7 0.433-1.7 0.433-3.44 0.875-1.18 0.371-2.35 0.743-3.56 1.12-0.33 0.66-0.66 1.32-1 2-2.32 0.407-4.66 0.744-7 1v3c-2.64 0.33-5.28 0.66-8 1-0.33 0.99-0.66 1.98-1 3-1.05 0.0561-1.05 0.0561-2.12 0.113-1.37 0.0986-1.37 0.0986-2.76 0.199-0.905 0.058-1.81 0.116-2.74 0.176-2.75 0.3-2.75 0.3-4.38 3.51-2.34 0.341-2.34 0.341-5.23 0.293-1.03-0.00967-2.06-0.0193-3.12-0.0293-1.08-0.0251-2.16-0.0503-3.27-0.0762-1.09-0.0135-2.18-0.0271-3.3-0.041-2.69-0.0354-5.39-0.0848-8.08-0.146-0.268-1.11-0.536-2.23-0.812-3.38-0.846-3.84-0.846-3.84-4.19-5.62-0.406-2.06-0.406-2.06-0.5-4.44-0.0363-2.35-0.0363-2.35-0.5-4.56-0.737-0.646-0.737-0.646-1.49-1.3-2.41-2.7-2.09-5.92-2.2-9.38-0.0342-0.702-0.0683-1.4-0.104-2.13-0.0823-1.73-0.147-3.46-0.209-5.19-0.99-0.33-1.98-0.66-3-1-0.33-3.63-0.66-7.26-1-11-0.99-0.33-1.98-0.66-3-1-0.0374-0.615-0.0748-1.23-0.113-1.86-0.0657-0.808-0.131-1.62-0.199-2.45-0.058-0.801-0.116-1.6-0.176-2.43-0.605-2.67-1.57-3.41-3.51-5.26-0.688-3.69-0.688-3.69-1-7-0.99-0.33-1.98-0.66-3-1-0.0561-1.05-0.0561-1.05-0.113-2.12-0.0657-0.91-0.131-1.82-0.199-2.76-0.058-0.905-0.116-1.81-0.176-2.74-0.3-2.75-0.3-2.75-3.51-4.38-0.688-3.62-0.688-3.62-1-7-0.99-0.33-1.98-0.66-3-1-0.495-3.47-0.495-3.47-1-7-1.48-0.495-1.48-0.495-3-1-0.717-1.98-1.38-3.98-2-6-0.66-0.66-1.32-1.32-2-2-0.4-2.32-0.74-4.66-1-7-1.48-0.495-1.48-0.495-3-1-0.495-3.47-0.495-3.47-1-7-1.48-0.495-1.48-0.495-3-1-0.495-3.47-0.495-3.47-1-7-0.99-0.33-1.98-0.66-3-1v-6c-0.99-0.33-1.98-0.66-3-1-1.1-2.73-2-5.04-2-8-0.99-0.33-1.98-0.66-3-1-0.309-1.11-0.619-2.23-0.938-3.38-1.14-3.88-1.79-4.55-5.06-6.62v-2h-2v-6c-0.99-0.33-1.98-0.66-3-1-3.31-2.75-4.83-4.35-5.94-8.56-0.74-3.71-0.74-3.71-4.19-5.44-0.949-0.66-1.9-1.32-2.88-2-0.375-3.75-0.375-3.75 0-7-1.48-0.495-1.48-0.495-3-1-2.69-2.44-2.69-2.44-5-5v-2c-0.99-0.33-1.98-0.66-3-1-0.667-1.33-1.33-2.67-2-4-0.99-0.33-1.98-0.66-3-1-0.68-2-1.34-4-2-6-2.63-3.72-5.74-6.83-9-10 0.33-0.99 0.66-1.98 1-3z" fill="#FCFCFC"/>
<path transform="translate(212 467)" d="m0 0c1.34-0.00128 1.34-0.00128 2.71-0.00259 3-0.00165 6.01 0.00386 9.01 0.00932 2.15 2.82e-4 4.3 1.24e-4 6.44-4.43e-4 5.84-2.88e-4 11.7 0.0056 17.5 0.0126 6.1 0.00624 12.2 0.00684 18.3 0.00803 11.6 0.00311 23.1 0.0113 34.7 0.0213 13.2 0.0112 26.3 0.0167 39.5 0.0217 27.1 0.0105 54.1 0.0281 81.2 0.0503 0.99 1.98 0.99 1.98 2 4-1.62 1.71-3.29 3.37-5 5h-2c-0.33 0.99-0.66 1.98-1 3h-3c-0.155 0.959-0.155 0.959-0.312 1.94-0.227 0.681-0.454 1.36-0.688 2.06-0.99 0.33-1.98 0.66-3 1-0.33 0.99-0.66 1.98-1 3-0.742 0.681-0.742 0.681-1.5 1.38-1.71 1.56-1.71 1.56-1.88 4-0.871 3.66-2.82 5.23-5.62 7.62h-2v6c-0.639 0.268-1.28 0.536-1.94 0.812-2.39 1.07-2.39 1.07-3.06 4.19-0.99 0.66-1.98 1.32-3 2-0.33 0.99-0.66 1.98-1 3h-3c-0.33 2.31-0.66 4.62-1 7-0.99 0.33-1.98 0.66-3 1 0.0619 0.949 0.124 1.9 0.188 2.88-0.0619 1.03-0.124 2.06-0.188 3.12-0.99 0.66-1.98 1.32-3 2-0.33 0.681-0.66 1.36-1 2.06-1 1.94-1 1.94-4 2.94-0.33 2.31-0.66 4.62-1 7-0.99 0.33-1.98 0.66-3 1-2.27 1.69-2.27 1.69-4 4-0.335 2.67-0.335 2.67 0 5-0.619 0.165-1.24 0.33-1.88 0.5-3.4 2.4-3.35 5.5-4.12 9.5h-2v6c-0.639 0.186-1.28 0.371-1.94 0.562-2.48 1.38-2.48 1.38-2.81 5.06-0.0825 1.11-0.165 2.23-0.25 3.38-0.99 0.33-1.98 0.66-3 1-0.33 2.31-0.66 4.62-1 7-0.99 0.33-1.98 0.66-3 1-0.144 0.949-0.289 1.9-0.438 2.88-0.562 3.12-0.562 3.12-1.56 5.12h-2c-0.33 2.31-0.66 4.62-1 7-0.99 0.33-1.98 0.66-3 1-0.0561 1.16-0.0561 1.16-0.113 2.34-0.0657 1-0.131 2.01-0.199 3.04-0.058 0.998-0.116 2-0.176 3.02-0.169 0.859-0.338 1.72-0.512 2.6-0.99 0.66-1.98 1.32-3 2-0.34 2-0.673 4-1 6-0.491 0.451-0.982 0.902-1.49 1.37-2.05 2.22-2.01 3.84-2.2 6.82-0.0986 1.35-0.0986 1.35-0.199 2.73-0.0374 0.687-0.0748 1.37-0.113 2.08h-3v11c-1.98 0.99-1.98 0.99-4 2-0.704 2.65-0.704 2.65-0.75 5.62-0.0567 1-0.113 2.01-0.172 3.04-0.0387 1.16-0.0387 1.16-0.0781 2.34h-3c-0.0561 1.16-0.0561 1.16-0.113 2.34-0.0657 1-0.131 2.01-0.199 3.04-0.058 0.998-0.116 2-0.176 3.02-0.169 0.859-0.338 1.72-0.512 2.6-0.99 0.66-1.98 1.32-3 2-0.384 2.61-0.603 5.01-0.688 7.62-0.0342 0.706-0.0683 1.41-0.104 2.14-0.0825 1.74-0.147 3.49-0.209 5.23h-3c-0.33 0.99-0.66 1.98-1 3-3.38 0.188-3.38 0.188-7 0-0.66-0.99-1.32-1.98-2-3-1.18-0.33-2.35-0.66-3.56-1-1.13-0.33-2.27-0.66-3.44-1-0.33-0.99-0.66-1.98-1-3-0.615 0.0232-1.23 0.0464-1.86 0.0703-0.808 0.018-1.62 0.0361-2.45 0.0547-0.801 0.0232-1.6 0.0464-2.43 0.0703-2.26-0.195-2.26-0.195-5.26-2.2v-2c-0.976 0.0348-1.95 0.0696-2.96 0.105-1.91 0.0406-1.91 0.0406-3.86 0.082-1.26 0.0348-2.53 0.0696-3.83 0.105-3.36-0.293-3.36-0.293-5.14-1.73-0.603-0.773-0.603-0.773-1.22-1.56-2.6-1.19-2.6-1.19-5-2v-2c-0.701 0.0825-1.4 0.165-2.12 0.25-3.83-0.333-5.77-2.05-8.88-4.25-1.65-0.716-3.31-1.4-5-2v-2c-1.92-0.186-1.92-0.186-3.88-0.375-3.88-0.375-3.88-0.375-6.12-2.62-1.26-0.611-2.53-1.19-3.81-1.75-4.29-2.07-6.33-4.49-9.19-8.25-0.99-0.66-1.98-1.32-3-2v-2c-0.887 0.124-1.77 0.247-2.69 0.375-3.31-0.375-3.31-0.375-5.75-3-0.401-0.548-0.802-1.1-1.21-1.66-1.46-1.86-3.03-3.27-4.85-4.78-8.74-7.33-8.74-7.33-9.5-12.9-1.5-1.5-3.03-2.98-4.56-4.44-2.44-2.56-2.44-2.56-3.44-5.56-0.99-0.33-1.98-0.66-3-1-0.33-2.31-0.66-4.62-1-7-0.99-0.33-1.98-0.66-3-1-0.182-1.05-0.182-1.05-0.367-2.12-0.168-0.91-0.335-1.82-0.508-2.76-0.162-0.905-0.325-1.81-0.492-2.74-0.463-2.55-0.463-2.55-2.63-4.38-0.414-2.6-0.414-2.6-0.625-5.62-0.0748-1-0.15-2.01-0.227-3.04-0.0735-1.16-0.0735-1.16-0.148-2.34-0.99-0.33-1.98-0.66-3-1v-77c1.32-0.66 2.64-1.32 4-2v-10c1.32-0.66 2.64-1.32 4-2 1.27-2.03 1.27-2.03 2-4h2c0.309-0.835 0.309-0.835 0.625-1.69 1.89-3.17 4.53-4.99 7.38-7.31 1.01-1.33 2.01-2.66 3-4h2v-2c1.13-0.289 2.27-0.577 3.44-0.875 1.18-0.371 2.35-0.743 3.56-1.12 0.33-0.66 0.66-1.32 1-2 3.89-1.3 7.58-1.13 11.6-1.12zm-36.6 129 1 2z" fill="#FCFCFC"/>
<path transform="translate(304,916)" d="m0 0c6.26-0.481 6.26-0.481 9.22 1.44 2.66 3.83 2.22 7.27 2.03 11.8-0.018 0.84-0.0361 1.68-0.0547 2.55-0.047 2.07-0.119 4.14-0.195 6.2 0.639 0.289 1.28 0.577 1.94 0.875 2.06 1.12 2.06 1.12 3.06 3.12-0.168 2.7-0.612 5.32-1 8 1.32 0.66 2.64 1.32 4 2v10c1.32 0.66 2.64 1.32 4 2 1.12 2.94 1.12 2.94 2 6 0.66 0.99 1.32 1.98 2 3 0.562 2.53 0.947 5.06 1.34 7.62 0.74 2.66 1.66 3.54 3.66 5.38 0.364 1.66 0.7 3.33 1 5 0.66 0.66 1.32 1.32 2 2 0.124 1.28 0.248 2.56 0.375 3.88 0.393 4.04 1.6 5.39 4.62 8.12 0.369 1.66 0.696 3.33 1 5 2.18 5.2 2.18 5.2 5.6 9.59 1.92 1.94 1.88 3.77 2.4 6.41 0.973 1.35 1.97 2.69 3 4 0.673 1.66 1.34 3.33 2 5 0.66 0.66 1.32 1.32 2 2-0.375 2.62-0.375 2.62-1 5 1.49 0.495 1.49 0.495 3 1 2 3 2 3 2.5 5.62 0.165 0.784 0.33 1.57 0.5 2.38 0.66 0.33 1.32 0.66 2 1v2c0.99 0.33 1.98 0.66 3 1 2 2 2 2 2.38 4.31 0.786 3.38 2.3 5.15 4.62 7.69 0.66 0.33 1.32 0.66 2 1 0.268 1.09 0.536 2.19 0.812 3.31 1.39 4.31 2.73 4.97 6.19 7.69 1.11 1.97 2.02 3.99 2.96 6.05 1.07 2.23 1.07 2.23 3.66 4.57 2.72 2.72 3.18 4.78 4.38 8.38 1.63 1.71 3.29 3.38 5 5 0.33 0.99 0.66 1.98 1 3 2 1.21 2 1.21 4 2v6c0.99 0.33 1.98 0.66 3 1 1 2 1 2 1 8-4.95 0.33-9.9 0.66-15 1-0.33 0.99-0.66 1.98-1 3-8.03 0.0463-16.1 0.0819-24.1 0.104-3.73 0.0104-7.46 0.0246-11.2 0.0473-3.6 0.0217-7.2 0.0337-10.8 0.0389-1.37 0.0037-2.75 0.0109-4.12 0.0217-1.92 0.0145-3.84 0.0154-5.77 0.0156-1.09 0.00444-2.19 0.00888-3.32 0.0135-2.71-0.241-2.71-0.241-5.71-2.24v-2c-0.615 0.0232-1.23 0.0464-1.86 0.0703-0.808 0.018-1.62 0.0361-2.45 0.0547-0.801 0.0232-1.6 0.0464-2.43 0.0703-2.26-0.195-2.26-0.195-5.26-2.2v-2h-6c-0.186-0.639-0.371-1.28-0.562-1.94-0.474-0.681-0.949-1.36-1.44-2.06-1.07-0.103-2.14-0.206-3.25-0.312-4.63-0.849-5.68-2.35-8.39-6-1.43-1.96-1.43-1.96-4.36-3.69v-2h-6c-0.248-0.619-0.495-1.24-0.75-1.88-1.49-2.53-2.63-2.93-5.25-4.12-3.37-2.5-3.39-5-4-9-0.66-0.33-1.32-0.66-2-1-1.69-1.64-3.35-3.31-5-5-1.08-0.928-1.08-0.928-2.19-1.88-2.39-2.8-2.88-5.61-3.81-9.12-0.66-0.33-1.32-0.66-2-1-0.407-2.32-0.744-4.66-1-7-0.99-0.33-1.98-0.66-3-1-0.33-3.63-0.66-7.26-1-11-0.99-0.33-1.98-0.66-3-1-0.0374-0.699-0.0748-1.4-0.113-2.12-0.0657-0.91-0.131-1.82-0.199-2.76-0.058-0.905-0.116-1.81-0.176-2.74-0.3-2.75-0.3-2.75-3.51-4.38-0.361-1.95-0.361-1.95-0.341-4.36 2.27e-4 -0.901 4.53e-4 -1.8 6.87e-4 -2.73 0.0155-0.974 0.031-1.95 0.0469-2.95 0.00424-0.996 0.00849-1.99 0.0129-3.02 0.0168-3.19 0.0545-6.38 0.0926-9.57 0.015-2.16 0.0287-4.32 0.041-6.48 0.0331-5.3 0.0834-10.6 0.146-15.9 1.98-0.99 1.98-0.99 4-2v-10c1.32-0.66 2.64-1.32 4-2v-10c1.32-0.66 2.64-1.32 4-2 1.27-2.03 1.27-2.03 2-4h2v-6c1.32-0.66 2.64-1.32 4-2v-6c0.639-0.268 1.28-0.536 1.94-0.812 2.39-1.07 2.39-1.07 3.06-4.19 1.94-2.19 1.94-2.19 4-4h2c0.248-0.577 0.495-1.15 0.75-1.75 1.43-2.58 3.03-4.31 5.25-6.25h2c0.248-0.577 0.495-1.15 0.75-1.75 1.43-2.58 3.03-4.31 5.25-6.25h2c0.66-1.32 1.32-2.64 2-4h3c0.33-1.32 0.66-2.64 1-4zm-5 6 1 2zm-8 8 1 2zm-8 8 1 2zm-4 150 1 2z" fill="#FCFCFC"/>
<path transform="translate(592,1179)" d="m0 0 2 1z" fill="#000002"/>
<path transform="translate(466,339)" d="m0 0 2 1z" fill="#000002"/>
</svg>
